<mxfile host="Electron" modified="2023-07-21T08:58:55.187Z" agent="Mozilla/5.0 (X11; Linux x86_64) AppleWebKit/537.36 (KHTML, like Gecko) draw.io/21.6.1 Chrome/112.0.5615.204 Electron/24.6.1 Safari/537.36" etag="B-c4GRzAJmnCxS7pQXnD" version="21.6.1" type="device">
  <diagram name="第1頁" id="N42Pnm51TaPZFsTvytJ0">
    <mxGraphModel dx="1434" dy="1943" grid="1" gridSize="10" guides="1" tooltips="1" connect="1" arrows="1" fold="1" page="1" pageScale="1" pageWidth="850" pageHeight="1100" math="0" shadow="0">
      <root>
        <mxCell id="0" />
        <mxCell id="1" parent="0" />
        <mxCell id="CQqDh8j7xDfzOsfukJwt-28" value="" style="whiteSpace=wrap;html=1;aspect=fixed;" vertex="1" parent="1">
          <mxGeometry x="1490" y="-240" width="80" height="80" as="geometry" />
        </mxCell>
        <mxCell id="CQqDh8j7xDfzOsfukJwt-32" value="" style="whiteSpace=wrap;html=1;aspect=fixed;strokeColor=#000000;fillColor=#007FFF;" vertex="1" parent="1">
          <mxGeometry x="1480" y="-230" width="80" height="80" as="geometry" />
        </mxCell>
        <mxCell id="CQqDh8j7xDfzOsfukJwt-33" value="" style="whiteSpace=wrap;html=1;aspect=fixed;fillColor=#00FF00;" vertex="1" parent="1">
          <mxGeometry x="1470" y="-220" width="80" height="80" as="geometry" />
        </mxCell>
        <mxCell id="CQqDh8j7xDfzOsfukJwt-34" value="" style="whiteSpace=wrap;html=1;aspect=fixed;fillColor=#FF0808;" vertex="1" parent="1">
          <mxGeometry x="1460" y="-210" width="80" height="80" as="geometry" />
        </mxCell>
        <mxCell id="CQqDh8j7xDfzOsfukJwt-51" value="" style="group;strokeWidth=4;" vertex="1" connectable="0" parent="1">
          <mxGeometry x="700" y="160" width="460" height="40" as="geometry" />
        </mxCell>
        <mxCell id="CQqDh8j7xDfzOsfukJwt-44" value="" style="rounded=0;whiteSpace=wrap;html=1;strokeWidth=4;" vertex="1" parent="CQqDh8j7xDfzOsfukJwt-51">
          <mxGeometry x="50" width="120" height="40" as="geometry" />
        </mxCell>
        <mxCell id="CQqDh8j7xDfzOsfukJwt-1" value="32&amp;nbsp; &amp;nbsp;" style="rounded=1;whiteSpace=wrap;html=1;container=0;strokeWidth=4;align=right;" vertex="1" parent="CQqDh8j7xDfzOsfukJwt-51">
          <mxGeometry width="420" height="40" as="geometry" />
        </mxCell>
        <mxCell id="CQqDh8j7xDfzOsfukJwt-49" value="" style="rounded=0;whiteSpace=wrap;html=1;fillColor=#B9E0A5;strokeWidth=4;" vertex="1" parent="CQqDh8j7xDfzOsfukJwt-51">
          <mxGeometry x="160" width="120" height="40" as="geometry" />
        </mxCell>
        <mxCell id="CQqDh8j7xDfzOsfukJwt-50" value="" style="rounded=0;whiteSpace=wrap;html=1;fillColor=#FFE599;strokeWidth=4;" vertex="1" parent="CQqDh8j7xDfzOsfukJwt-51">
          <mxGeometry x="40" width="120" height="40" as="geometry" />
        </mxCell>
        <mxCell id="CQqDh8j7xDfzOsfukJwt-52" value="" style="group;strokeWidth=4;" vertex="1" connectable="0" parent="1">
          <mxGeometry x="700" y="200" width="460" height="40" as="geometry" />
        </mxCell>
        <mxCell id="CQqDh8j7xDfzOsfukJwt-53" value="" style="rounded=0;whiteSpace=wrap;html=1;strokeWidth=4;" vertex="1" parent="CQqDh8j7xDfzOsfukJwt-52">
          <mxGeometry x="50" width="120" height="40" as="geometry" />
        </mxCell>
        <mxCell id="CQqDh8j7xDfzOsfukJwt-54" value="" style="rounded=1;whiteSpace=wrap;html=1;container=0;strokeWidth=4;" vertex="1" parent="CQqDh8j7xDfzOsfukJwt-52">
          <mxGeometry width="420" height="40" as="geometry" />
        </mxCell>
        <mxCell id="CQqDh8j7xDfzOsfukJwt-55" value="" style="rounded=0;whiteSpace=wrap;html=1;fillColor=#B9E0A5;strokeWidth=4;" vertex="1" parent="CQqDh8j7xDfzOsfukJwt-52">
          <mxGeometry x="160" width="120" height="40" as="geometry" />
        </mxCell>
        <mxCell id="CQqDh8j7xDfzOsfukJwt-56" value="" style="rounded=0;whiteSpace=wrap;html=1;fillColor=#FFE599;strokeWidth=4;" vertex="1" parent="CQqDh8j7xDfzOsfukJwt-52">
          <mxGeometry x="40" width="120" height="40" as="geometry" />
        </mxCell>
        <mxCell id="CQqDh8j7xDfzOsfukJwt-57" value="" style="group;strokeWidth=4;" vertex="1" connectable="0" parent="1">
          <mxGeometry x="700" y="240" width="460" height="40" as="geometry" />
        </mxCell>
        <mxCell id="CQqDh8j7xDfzOsfukJwt-58" value="" style="rounded=0;whiteSpace=wrap;html=1;strokeWidth=4;" vertex="1" parent="CQqDh8j7xDfzOsfukJwt-57">
          <mxGeometry x="50" width="120" height="40" as="geometry" />
        </mxCell>
        <mxCell id="CQqDh8j7xDfzOsfukJwt-59" value="" style="rounded=1;whiteSpace=wrap;html=1;container=0;strokeWidth=4;" vertex="1" parent="CQqDh8j7xDfzOsfukJwt-57">
          <mxGeometry width="420" height="40" as="geometry" />
        </mxCell>
        <mxCell id="CQqDh8j7xDfzOsfukJwt-60" value="" style="rounded=0;whiteSpace=wrap;html=1;fillColor=#B9E0A5;strokeWidth=4;" vertex="1" parent="CQqDh8j7xDfzOsfukJwt-57">
          <mxGeometry x="160" width="120" height="40" as="geometry" />
        </mxCell>
        <mxCell id="CQqDh8j7xDfzOsfukJwt-61" value="" style="rounded=0;whiteSpace=wrap;html=1;fillColor=#FFE599;strokeWidth=4;" vertex="1" parent="CQqDh8j7xDfzOsfukJwt-57">
          <mxGeometry x="40" width="120" height="40" as="geometry" />
        </mxCell>
        <mxCell id="CQqDh8j7xDfzOsfukJwt-62" value="" style="group;strokeWidth=4;" vertex="1" connectable="0" parent="1">
          <mxGeometry x="700" y="360" width="460" height="40" as="geometry" />
        </mxCell>
        <mxCell id="CQqDh8j7xDfzOsfukJwt-63" value="" style="rounded=0;whiteSpace=wrap;html=1;strokeWidth=4;" vertex="1" parent="CQqDh8j7xDfzOsfukJwt-62">
          <mxGeometry x="50" width="120" height="40" as="geometry" />
        </mxCell>
        <mxCell id="CQqDh8j7xDfzOsfukJwt-64" value="" style="rounded=1;whiteSpace=wrap;html=1;container=0;strokeWidth=4;" vertex="1" parent="CQqDh8j7xDfzOsfukJwt-62">
          <mxGeometry width="420" height="40" as="geometry" />
        </mxCell>
        <mxCell id="CQqDh8j7xDfzOsfukJwt-65" value="" style="rounded=0;whiteSpace=wrap;html=1;fillColor=#B9E0A5;strokeWidth=4;" vertex="1" parent="CQqDh8j7xDfzOsfukJwt-62">
          <mxGeometry x="160" width="120" height="40" as="geometry" />
        </mxCell>
        <mxCell id="CQqDh8j7xDfzOsfukJwt-66" value="" style="rounded=0;whiteSpace=wrap;html=1;fillColor=#FFE599;strokeWidth=4;" vertex="1" parent="CQqDh8j7xDfzOsfukJwt-62">
          <mxGeometry x="40" width="120" height="40" as="geometry" />
        </mxCell>
        <mxCell id="CQqDh8j7xDfzOsfukJwt-67" value="" style="group;strokeWidth=4;" vertex="1" connectable="0" parent="1">
          <mxGeometry x="700" y="400" width="460" height="40" as="geometry" />
        </mxCell>
        <mxCell id="CQqDh8j7xDfzOsfukJwt-68" value="" style="rounded=0;whiteSpace=wrap;html=1;strokeWidth=4;" vertex="1" parent="CQqDh8j7xDfzOsfukJwt-67">
          <mxGeometry x="50" width="120" height="40" as="geometry" />
        </mxCell>
        <mxCell id="CQqDh8j7xDfzOsfukJwt-69" value="" style="rounded=1;whiteSpace=wrap;html=1;container=0;strokeWidth=4;" vertex="1" parent="CQqDh8j7xDfzOsfukJwt-67">
          <mxGeometry width="420" height="40" as="geometry" />
        </mxCell>
        <mxCell id="CQqDh8j7xDfzOsfukJwt-70" value="" style="rounded=0;whiteSpace=wrap;html=1;fillColor=#B9E0A5;strokeWidth=4;" vertex="1" parent="CQqDh8j7xDfzOsfukJwt-67">
          <mxGeometry x="160" width="120" height="40" as="geometry" />
        </mxCell>
        <mxCell id="CQqDh8j7xDfzOsfukJwt-71" value="" style="rounded=0;whiteSpace=wrap;html=1;fillColor=#FFE599;strokeWidth=4;" vertex="1" parent="CQqDh8j7xDfzOsfukJwt-67">
          <mxGeometry x="40" width="120" height="40" as="geometry" />
        </mxCell>
        <mxCell id="CQqDh8j7xDfzOsfukJwt-72" value="" style="group;strokeWidth=4;" vertex="1" connectable="0" parent="1">
          <mxGeometry x="700" y="440" width="460" height="40" as="geometry" />
        </mxCell>
        <mxCell id="CQqDh8j7xDfzOsfukJwt-73" value="" style="rounded=0;whiteSpace=wrap;html=1;strokeWidth=4;" vertex="1" parent="CQqDh8j7xDfzOsfukJwt-72">
          <mxGeometry x="50" width="120" height="40" as="geometry" />
        </mxCell>
        <mxCell id="CQqDh8j7xDfzOsfukJwt-74" value="" style="rounded=1;whiteSpace=wrap;html=1;container=0;strokeWidth=4;" vertex="1" parent="CQqDh8j7xDfzOsfukJwt-72">
          <mxGeometry width="420" height="40" as="geometry" />
        </mxCell>
        <mxCell id="CQqDh8j7xDfzOsfukJwt-75" value="" style="rounded=0;whiteSpace=wrap;html=1;fillColor=#B9E0A5;strokeWidth=4;" vertex="1" parent="CQqDh8j7xDfzOsfukJwt-72">
          <mxGeometry x="160" width="120" height="40" as="geometry" />
        </mxCell>
        <mxCell id="CQqDh8j7xDfzOsfukJwt-76" value="" style="rounded=0;whiteSpace=wrap;html=1;fillColor=#FFE599;strokeWidth=4;" vertex="1" parent="CQqDh8j7xDfzOsfukJwt-72">
          <mxGeometry x="40" width="120" height="40" as="geometry" />
        </mxCell>
        <mxCell id="CQqDh8j7xDfzOsfukJwt-77" value="" style="group;strokeWidth=4;" vertex="1" connectable="0" parent="1">
          <mxGeometry x="700" y="560" width="460" height="40" as="geometry" />
        </mxCell>
        <mxCell id="CQqDh8j7xDfzOsfukJwt-78" value="" style="rounded=0;whiteSpace=wrap;html=1;strokeWidth=4;" vertex="1" parent="CQqDh8j7xDfzOsfukJwt-77">
          <mxGeometry x="50" width="120" height="40" as="geometry" />
        </mxCell>
        <mxCell id="CQqDh8j7xDfzOsfukJwt-79" value="" style="rounded=1;whiteSpace=wrap;html=1;container=0;strokeWidth=4;" vertex="1" parent="CQqDh8j7xDfzOsfukJwt-77">
          <mxGeometry width="420" height="40" as="geometry" />
        </mxCell>
        <mxCell id="CQqDh8j7xDfzOsfukJwt-80" value="" style="rounded=0;whiteSpace=wrap;html=1;fillColor=#B9E0A5;strokeWidth=4;" vertex="1" parent="CQqDh8j7xDfzOsfukJwt-77">
          <mxGeometry x="160" width="120" height="40" as="geometry" />
        </mxCell>
        <mxCell id="CQqDh8j7xDfzOsfukJwt-81" value="" style="rounded=0;whiteSpace=wrap;html=1;fillColor=#FFE599;strokeWidth=4;" vertex="1" parent="CQqDh8j7xDfzOsfukJwt-77">
          <mxGeometry x="40" width="120" height="40" as="geometry" />
        </mxCell>
        <mxCell id="CQqDh8j7xDfzOsfukJwt-82" value="" style="group;strokeWidth=4;" vertex="1" connectable="0" parent="1">
          <mxGeometry x="700" y="600" width="460" height="40" as="geometry" />
        </mxCell>
        <mxCell id="CQqDh8j7xDfzOsfukJwt-83" value="" style="rounded=0;whiteSpace=wrap;html=1;strokeWidth=4;" vertex="1" parent="CQqDh8j7xDfzOsfukJwt-82">
          <mxGeometry x="50" width="120" height="40" as="geometry" />
        </mxCell>
        <mxCell id="CQqDh8j7xDfzOsfukJwt-84" value="" style="rounded=1;whiteSpace=wrap;html=1;container=0;strokeWidth=4;" vertex="1" parent="CQqDh8j7xDfzOsfukJwt-82">
          <mxGeometry width="420" height="40" as="geometry" />
        </mxCell>
        <mxCell id="CQqDh8j7xDfzOsfukJwt-85" value="" style="rounded=0;whiteSpace=wrap;html=1;fillColor=#B9E0A5;strokeWidth=4;" vertex="1" parent="CQqDh8j7xDfzOsfukJwt-82">
          <mxGeometry x="160" width="120" height="40" as="geometry" />
        </mxCell>
        <mxCell id="CQqDh8j7xDfzOsfukJwt-86" value="" style="rounded=0;whiteSpace=wrap;html=1;fillColor=#FFE599;strokeWidth=4;" vertex="1" parent="CQqDh8j7xDfzOsfukJwt-82">
          <mxGeometry x="40" width="120" height="40" as="geometry" />
        </mxCell>
        <mxCell id="CQqDh8j7xDfzOsfukJwt-87" value="" style="group;strokeWidth=4;" vertex="1" connectable="0" parent="1">
          <mxGeometry x="700" y="640" width="460" height="40" as="geometry" />
        </mxCell>
        <mxCell id="CQqDh8j7xDfzOsfukJwt-88" value="" style="rounded=0;whiteSpace=wrap;html=1;strokeWidth=4;" vertex="1" parent="CQqDh8j7xDfzOsfukJwt-87">
          <mxGeometry x="50" width="120" height="40" as="geometry" />
        </mxCell>
        <mxCell id="CQqDh8j7xDfzOsfukJwt-89" value="" style="rounded=1;whiteSpace=wrap;html=1;container=0;strokeWidth=4;" vertex="1" parent="CQqDh8j7xDfzOsfukJwt-87">
          <mxGeometry width="420" height="40" as="geometry" />
        </mxCell>
        <mxCell id="CQqDh8j7xDfzOsfukJwt-90" value="" style="rounded=0;whiteSpace=wrap;html=1;fillColor=#B9E0A5;strokeWidth=4;" vertex="1" parent="CQqDh8j7xDfzOsfukJwt-87">
          <mxGeometry x="160" width="120" height="40" as="geometry" />
        </mxCell>
        <mxCell id="CQqDh8j7xDfzOsfukJwt-91" value="" style="rounded=0;whiteSpace=wrap;html=1;fillColor=#FFE599;strokeWidth=4;" vertex="1" parent="CQqDh8j7xDfzOsfukJwt-87">
          <mxGeometry x="40" width="120" height="40" as="geometry" />
        </mxCell>
        <mxCell id="CQqDh8j7xDfzOsfukJwt-93" value="" style="shape=image;aspect=fixed;image=data:image/png,iVBORw0KGgoAAAANSUhEUgAAAQAAAAEACAYAAABccqhmAAEAAElEQVR4nOT9d5gc+Xnfi34qdM7T3TM9OQADYDDIcbEJxO6Su+RyuSLFHEyJIkWLOpZtyrLs89x7js9zffzIkq+PZVvBfmRRlBhEcpk3ciN2scACixwHk3Ps6Zwr3T+qq6ZnACyWInWufO9vnnq6uqaqusLv9/7e8H2/r9C957DRt2kLH/n4pwEPrx5/nYfec5TV5Wl+9NQ3CHt1Ak6dUi6Dy+kkEIiymqrQ0dVPrlDlnn0dnDl3iRvjM+w5fBRvuJmConNjaJR//fv/kpd+9jx6rczDDx0lHArwX/7rnxIMRfjM5z/PD378I5JXRlhdXWbP/h0Ewj40qoxOTVAsVegfGOS9732CK9fH2LR1B06XGx0Rf9BHOpehu6eT0uI8ggCXLl3iu9/9LvsPHsDtdjI3M8uOndt56Oh7uHL5Im8cf52B/n6SS8sszs3S39/P4QMHeeonz7C0ssK/+Je/j8PrI9rSguFwgCxSUUGUAUAwQAAkA0TDQEBHMEATdH6RJhggCIK5Xv80DMP+FEXxnY+vH3OnZp3r79rudryx4ef1hu+iASICQn1dNgREQUBEQBZAFCAvga4b6Lr5HEVBQBAEDMNA0Nd+W6gfZ61btx1Aa9gmrPufIICuY383DPN+GhdYe3+N92qt3+35s+EaN37e7f0gru2j6zqappn3LghIkoTDIaEo5jZJktA0jXK5jKqqiKJIpVSmqyvB+fNXKZVKtHW0s7S0QjKZRNN1Zhfm2bp1G6VymZs3b9LV1UNNU9F1nbm5OWSXw0EkEiHo8/ODHz+H7HKTyaSQZZlyuYhbFHDoUCqVcDs9lMtVfAE/osNJNB7gjTfeYHpuiZa2bgB27drF1OIK2wZ2srS0xNTUFL/zlS/z1qkTTE9NkEwm6d+yjXA4TEtLC2NvniPR1k4ml+fa0BUCYR8Or5ODBw9SKKvMzc2xY8cOejdt5cy5C0zNzhCKhKhUSuhqjcunThAI+EmlUiQSCVZXV/nIR36F5e4eLl+5yNe//nWCAR+f+MQnyCSTFLI5Oju72b17N5VKhUKhQE9PD2NjYzz82PtRDANfSCSZ0UG43cv/+QbUXTtAvaM17mcNgH8I7a4C5g7PQ3yXly8I9YHSeM764LcGApiCEmHteqzzGxi3eV6mELA2vZtHebvBv3H9DgeuE9y28Kp/3lWAGmu/IQgCoijagsMwDPSG+cUSEIIg4HQ6cTqdVMsVkskczc3NXLp0CX8wQLFYJBAMEo/HkV1OMpkMDqeTbdu20dnZzRsn38Tj8dSFqq7hcsokWpoZ3L6New8fYmFxjmvXrhL0B6hWFUrlMqphysp0Nk+hWGZicpKFpRUAIpEIDoeDxcVFisUi165dQxShUqnQ2trCT37yY4L+AJIk0d3dyZd+8zd48Wc/4/VXX6NUrTEwOMjjT3yIrp5eFE1ldHQUTdPYtWsXZ8+e5drVywiCQDgUZGVxEbcssXvXDsqlHMVcjtRKkm3bttHd3Y1SrZBJpRkZGUHTNFwuF4Ig8NRTT/Gtb32LEydOcOXaVXQdstksPp+PRCLB0PAwqqridMosL5fJZDKIQv2mdXPYC/rtZpB3butnptsvG/dt/P4PvQkbHsG7Hfj2/nVNoHFgN55DqGsRjf+TNpyjUWOyFl031g2uO+3X+B5vt67r+jsu73Tcuzle0zQ0TUNVVVRVXffdmu1rtdq67YqioCgK1WoVt9vNysoKuVyOqlJjZWUFr9dr7x8Mhpifn2dhYQGHw4GmaaysrODxePB4PKYGcPn8ef5r/o9xef0k2joo5PMM37yBQ5Ko6Tq6LhIJx5Acbtweg0yhRKFcQF9O0d1kPuhctkBRK/HCCy/ga4rT1dWF2+Xgpeef4V/93leZmR7nytUa+/buxe/14fV6UFWVeHOCSCxGrDmOqmsk2trJlYrMLSwysGMvAwMDROOtGJpC0ONhcNtW7j1yEK/Xzek3jxOJRLjnnntobW0ll8uxe/dOarUaXd0dDAwMkFxaJhT0Uy6WmJ2cIrO6iigI/MVf/AWbe/uoVqu4XC6cisrrr7/OkQceQNM0enuaQIBU7taOLjR8v9sgvesgFm7d75cpBP7vECIC600BydoI6xQmXYBGncqw9jXMA6xdBaO+zQBBFBAbzSRrsdR6reEi6p+2VmBrB2tXahgGGAKGbqoU+jrdo1GTWJvJ36mtnwOEW/53VwVCWBMclhAAkGUZSTJFXaNWYZkk5XIZRVHwer2IssTy8jKdnZ1MTc0QaYqxtLyMqmpUVYVyuUyxVKK9vZOJiQkAnE4npVIJUdR1OlrbCPq95HNp3jr5BunVZUqlAvlCFsMQECSZSFMzguigtbMLp8dPor0d0ekimUySy+VwOp0YhkG1WuUTn/gEhw/vZm5uDgONQiHH6dOnWJpfwOmUuXTpEm6HE01Vec8j7+X+o++hUKpQrNbYsXM3Dxx9Dw899AibNm2iVCjS2dZOLrWKQxZ577EHMWo1nv3Jj7h84W1q1SoD27YxOTVOrVKiLZFAkiR6e3sp5Qts3ryZjo4OTp88xZUrV5ienuHmzZs4nU6mp6dxepxE4zG2bt3KhYvnuHHjBhgGmgZTUxm7w4nG2mej3fiLNlEQ3nGxO/w/0MVqGzWBOzVrN8tXIBjrFxFTC5IwF+u5C1j+gfX7G4K56BjrFs3Q0Qz9lu0bF7i9RvBuTTDr9w0B+zcbl8b/327RdECQEEQZTYdKVaFcqaGoOoIoIztcCKKMqhkoqg6ChMPpRpKd6IZAOp3G5/Ph9/vp6OzG7fGQTqdxuVyohk4+nycQCODx+GhpaaFSqdDWkqBUKpHNZpFrlQrbt27h/R98gvOXrzIyMc78/DyioCPLMnq1itvtRdMFCsUqLe0+JIeT7t5N5KsqDsGLyxugUq1hIPLpT3+awcEBbtwY4/z5s7zvfe/lqae+S1dbK719PfR197B1y2Z+8MMfEw4ECUVjTM7O8cMf/ZBUJksyneHixcsEQmGSq1kmJydRlFdpTXRw8OBBxodv8r2n/haXR+bJx9/P8LUxnnnmp8iyjFN2cPnyZfr6epiemMTv97O5bxN/+Id/SDGbYXZmBr/Hi8/jpVqu4HK5ePDoUcLhCIFImPfG3ktbVyeJRIBcXiceD1MXyKb9iYFg/5m9d731emt7NwPjTs6idzcDvfMP/KIagK6/s7ATLfuXWzUB8x+3Xp+1j1530hkGCLrRMLsLGMLaOqw5YRtnf4lb73/j9433v1FdB+OW4xrXf57nf7trudvxmrbmxNz4e9aEaqn9uq7jcDhs+x8gVamQzRUwEEmlUnR0dDA1O0MsFmd5edk0B1SDdDaDKIqIokhbWwdLS0u0xFqQXaLMjWtXQBQoVmscfc9RLl25zPz8OLIgUilBJBwnXyigGRI11cDl9hJNNOOYmEDXDBRFQ9F09h+8l3379pFMJkmuLKHrKhMTYzz5oQ9y8sQbXLpwkf5Nm5mem+f0W29x73334w36eeb5F8hkc3T39LGSTJHJ5rly+Rq1msqj730/U5NzLC3OM3zzBi+++DxD1y/zm1/+De49tJetfduZmZmhv7+fialx3n77bZqawiSTSZxOJ1euXKFWreLx+Dhw4ADJpWVGh0cY2LoNv9/P9Nwsrxx/jb5N/XzoI79KMBQin1fJ5Qp0dIXJ5ddelmgICIKOYAggGoiGgMY7t7sN0EYvc6O3emNn+IfeBOpCwLhVCBjU1f/bPApBNwe/rXgLAmJ9lBuGYHvZBWG9NiA0CJF3esaNj9AwzBPohoH1J97F+Xc3AbjRAbleuHBXG0A1DFsIGIKAWLfTy7UapWqVcrmMw+FAkiTTTDAM9LopYIgiSCLJdAqHw0G2kKe1tRWv10c+nyeXyxGPtaD5oVAqMjMzgyQ5iMfjzM3N4Xa7kd1OD07ZwfjoCP5omM39PahaiZ/8uIBkgCRApClOPlciHInh8viJtci0JBIEQkFySxKZTIYD9x3jy1/+MtevX0dwe9i3bx/f/97fcmjPMXw+LydeP47L4WB0dJSJyRmq5RLhUJDxyUnmlxb5X//V7zM9M8Zfff1/0NzcTDQaZXPfFpYWV+jv28Tw8AgnXnsNr9PBP/rcp+nqbOU///F/pFpxsnfvXkZu3iCZThEIBlFrCv/qq7/F0Og8J0+eJB6Ps7K4xGoyTTAY5p/8k3+Krmp0dXXx2ttvUq5WECQRWZZxux2UqxqxaJiVpTJer2dDZ6qHtcxVft6owJ060e22/UOIBNztGiSEdaG/dzyXYBpPtqYggNHgWLVNnvr5RLAFrOkHuPWcunWiO1y7vk4a1T3ziLYA0IU1R571A43rd2tS3X9hH2f7Ed5lFAARVV0L/QmijK7qFIplyuUy1WqVpqYmvL4AoiiaYUIEVM2MEJRKJQRBIBgMUqlVyWRzSLLM+MQEHo8PRVMJBAIIgkA2mycejxOJRCgUCqyuriILgkBrcyvRtmZqeo2Az83QzRv4PG4KuTxNTTFu3LiJ1+3jfe/9AJOzs8yvjDA+Ps7iyiJBWSYYDBOPx1lYWEAQBO699x5+9KMfkc9n8XrdLM7P0tGWYHBwkJGRMZYW59nU20ulVOaFl5/i9//lV4nEonT0tDI6dpOZmSlmZuYYHR4nuZRi65YByqUShw/sp29TF0fuPcCf/Nf/i6GrV5DkGCtLy7S0JkilUjz2+AcoFIu88PIppqenaW9vp7enh6Fr1zn+6mt8+MknCQdDBAIBVleSDI8Ok8nm8Pu9NLc0sbi0SmtHlJXlEqGgt/5iscNKmmKgGRogIMsi4i0678/XBN1oiFtvUAHeBQ7g3XbUO7W7zXDybUOha80wDNvMMYS6OGzQAiwTwZKV5qA0MKyfbYyI1M9XnxDXYSQw1j2WtdZw+7dToxuv0/psHJiNxzRuu2Umv0NTjVtxBOs0gvoE4XQ60XWdcrlsmqtOJ7VajWpNtR1+qqpSLpcplUq2yt/c3GyfU1VVGw+gKAqSJBEIBVlcWKK5JcHNmzdRVZX29nbTGRiJEAwGSafTFAolpqeneeKJJ5ibm2N8bJKDBw8iOhxu0uksjzzyCE986IOcP3+WGzeuoBs13G430WiUluZWVMWUam+/fY5cLsfU9ARLy/NUKjUi4SjJpKmG7Nq1i+vXr3Pu/Fnuvfde7jl8iPPnz3L58kWymRTTk1N88P0foJgvkE2l+eIXv0AwHCKXyzI8PMz169cxDIMDBw7Q29vL9u3bOXTwIFu3bmV0dJS5mVmeefon7Nm9m66OdrZs7iMejRCLRmhpifPAvUdYWlzka3/5l0xMTHD27bfRdR23200sFmN6eppiqYKhC1SqCpFoE4+892F27tmNqpp+j/mZFJ0tXvLZMkrVQKnqqDVAB5dDxCU7EASDWq32jp3jf4b2bkOUdzze4JYIibUdbuMToK62c6vutHFb47F30jJ04d0vGgYaxrptd3IAvltHoHXNplnBHRfdMNB0fd2iahrFcpVSpUZN1UGUcbg8SA4XNVUnVyhRqalohkBV0ez9DEFCkBzUVJ1ytUa0Oc7Y5AThaBM9m/o4e+Ei128OMTc3h6ZpjI6O43K5iMfjlIoVzp+7SCAQYMuWLcj5XJlqbRqv18/k3BjhSJBCMYcsi+gIVMo1FF1HFGUy6RxbtmwhFAujCCqXr54HUaZcrbJ9+3Y6O7sp1WqMjY+yfft2dmzrR1VrVMpF4rEoIzeHkWURQzfjmctLS/T0dmHoNYpFjdnZafL5PPlshsGBHezdu5+tmwZINCf46Y9+zPLcHG+fPUNyZY5EaxSnSyIcDHH80iVyuRy/+Vv/GMMw+MiTH+Kee+4hk8nw9ttv89JLL9HT2cW+fQd47L3v480332QsN8bVq1c5+tAxHnzwQZSaSqlUoqkpRKFQJZMHWQBZENAN0FUFw5AwHCKiCIYhoqt38wDcvd1u1moM+/x9t18mklA07jxQbT8A6wWGtX+jf2AtELcmBITbnFs0AKNRQxE2fG7UGkw1zhzc1vb16vvG9bs2QXjHYwXBAvAYaHW1XdexvzscjnXvW5IkO/ynqqrt0ZckCVEUzdi9LCMIAqqqEmuOMzw8zI4dO5ienmZoaJi9e/fidrt59dVXKZerjI2NkclkuO/eB7h27RoYBuVSCVVRkCXZBaLIcy88z/jMKHsO7cTn82AYGsVMhYmxcT75sc8wMTpNUzjKcz97gYc/8Ainzp7E73OjFRQqlQojIyN03bzJWxcvc/+xo1y8eJ7nn38WvVYhn0pSLhcREdi6ZTsnTpzAKYskEgnKpRxbtvQzOzfJ0z/5MQsLc7S2JKiUyoR9YcrlMs888wwOh4NDh+7hqe9/C5/PQyqVQtOrCETYMbidaCzG0Xv3cubCEN/69rdJplMMDu6kubm5/sJNx8nTzz1LvCnK5PQUDoeL5eQSumGFjlQ0zRwUT33/KX7lyQ8jy2YvVFUThqnoGg6HhCSIiE4n6i8ap69rkI22b4Nz+q7d8O9fRtwlyoE5MK3Buu56BNah/ISG5Z0gxGAO7tsJAlgTILqw4Ty3jv81AWbN9vU/6zu3UeEb1+8mIPWG37OcjBvPpRk6hiGYoUEMhLoXQjV0HC43uq6j6jq1ShVFUShXqqi6gSg7WE6uIkkSgiAQj8dxuNzkiyWcTieaAZevXLFN3UK+xEoyyZsnTzIyPMyOwV309/fj8/k4/tobdLR3kc/n2T4wYGq68/PI0Xgrg7u2cvPmCJIX/uRP/oTu3k4cDgeyrLJp0ya2bN6KrLt49tnn0XWdmzeusbw4R00pEZDc6BrcuHGTa6MT/NPf/9cc2r+D48dfZWR0mOzqMommCG63m/c98hCRcIxCoUJXdx/33vcAFcPg+WefZmFhBrfbyXuOPsDk+BRnzpyhtbmNZ59+gVi0hXAgyNLiHKFQCH/AhaYVcTgk0A38fh8f++hHGRo2Y/zj4+N0dHQgSRJ79+5lfHyco/cf5W+/9W0WF5eplSvs2rGTD3zgAxAV8Xhc6LpOIBBGUQxymTTn3j7LzRs3+Wf/7J/Vpa4IGDbCSpZlRAnEX1wJoBG/bn43e9U/BCfgu2kbZ34rInCnZgjvbCI0zvbChujB7YTH3dqd7P/G/93u+8+jhd3pnBbib+N5LFRfqZy34b+qqlKpVGznn2EYKIpCqVRC0zSam5vrzrwsXq8XWZYZGBikVKpw9doNDh06RHt7O5cvX2bL1gEKuTxut5tgwJxIL126xEPHjuH3+/F6fIyPTSCWygoPvudhduzchcvlwuNzk8/nSadT5PNZQqEQuq4zNDRELp1BNKCvp5tyqUAo6EcSZUKhEIlEAq/XS0tLnLfeusj09CT9/f3oqkIhl+H9j70PXde5cOECmUwKn8/H9evXefGl50illtm2dQu9PV309/fze7/3u3zuM59hbGwMwzC4//77EUWRLdu2MjAwQFtbG32b+jl0z2Ha2hIIgkAqleKb3/gGp0+epCkSYXh4GIcooes68zPzvPjiiwQCAXK5HKFQiLGJcdxuN4m2NpaSK+TzeSqVGksLi2iaxu/+7u8S8PrIrKaolSvIArhkyQ7JIOioqvquoL5/Vzv7Xdngwi+23P387/4+xDp4p/G7IAh2wosgCBji+m0b7XRYD5SBDf/buAjvvOgYtwCFGr/fqb0TbHgd5NhyanKrL0Bv+H/jomoa1VqNYqlEOpOlXKkiiBJujxeX24MkO+qefh2X24Pb40UQJQRRQtV0CsUSNUWlWlNIplNUVYWOjg6Wl5d568xpotE4W7duJZlaZXh4mJqmUq1WCYfDtCbakESZdDpNOp1GLpXKyA4XDxw9xo2vX+Xo0aOcfvsUoiBSLBaZn1/kxIkTdHZ2srCwQDzWxKuvvUypVKAp7kfTFWKxGKlSkfe+7zH+43/8j9RUhemZSaKHD5BIJAi6nezZs4cTx08wPT1NrapTyOWZmx9hLruIy+Ukm1klubJEKrmCQ5IxVIH+/n7KBYXx8XHC4TCPPfY+nnrqW3g8Hnx+J+fOnWNH/wEuXLjAnj17ePTRR/n6X/81iqLg9/sRRRGHw4Hf76dUKpHPFvj4xz9OX3dPXeqKFAoF3G43IX+A8fEpvvPt75JoaePXPvcZnnzySVwuV93mMm03ER1RkszuYxjv1lK8yyBb/9kYdfj7br/ob1iz/TvZ//ZvcatB0ajmw60+gTv5AN5tzsFtPfO3iQJsjABs3H7H1iBF340Joeu6DezJ5/PIDq8dFXA6nciyvC4HwOl0EgqFAKjVanb+gMPhoFarEWzyo6oqN0dH0GoKO3bsoKOji+OvvkZfXx+9PZvw+XxEo1FkWWZsbAyPx4Pb7aatrQ05Eo0yPT3NIzseJNHSysjUVQDa2trIp4rIsszw8DDb+rYTi8WQHAa6quF2ygQCAajopNNpBI+Xa9eu0dbWxtXr1/jiF79IanWRG5fO4RIMvve977G5tw+324Xf52FycpLmllbyRglRFJibnSWTSeJyOTh98hQLCyv0dG9i37593H//g6hVlWeeeYa9+/dRKWe4dv2iOZOPjfHRD3+EfD7LuafPs23bNiSnE6fLxcLCEhfPnWd5eZl8Ps+HPvgk+/fvxyFKVKtVfB4XWblCpVJhdmGRsbExlpeXObD/EOPjM2zd2kutBi6XOVAURcVAwylLSJKIrku/BBTA//+2RlX+doJgnWOwwWyw/g/rcwvu+nvv4Nn/ZeIuNiIJG4WJpfpXKhVKpRKJ1hiyLGMlDln7KYpihwx9PhPYY2L3TXPB4/FQrQOFrHbk/vuQBZHZWTPdfXR0lPn5edxuN5FIhNHRUbo7u0mn0wwMDAAgp3JjvPrajzCkVVqjUZ57eoyBgQESiQ6uX5omkmgllyvhbYsylZ2nmiuQyWVpbW4l4PAwQwmhVuNf/M7vsH//fjKZDE899RSdkSZS0zNIupNMVmFkdAhPIIErFCMYDBKLxYjFYhxobuL8+YskV8o4DAd97S3k81UGjx6jUtbYsmkzLS3NvPbacSSng8WVDNVqhUxBpFDQ+O0v/wbXrl3jmed/RktbK+XZBZoTLQTCMZqa4fjrJ/jgBz9Ie1cXwVCIgmEgSSD6Xaxq4ENmfGKGc+fOsXv3bjb3dbN3z3Z8Ph+aoYCoUVPNF+hwmS4sQ6+i6SAYBuJduuBdk4Xs4Lm1YYP9LBhrmQe34R7QUNd93/hrFoLujk3amFu3vt09Di5vOODWbL53aq67GfR3OV7S1gZYowZlhfhERFPQGIa9GPWdDMOgtv5h33J+QbxVE1g3wG9z/Y3wcIfDgVIro+mm3R+PtXPp0lUKhQKhUJjlZIpYLIbLI+HyeMhm8xRKFXREMrkCxXKVrp4+5hYuEQ6HkWWZSqVCIBQhHm9GUiv0tXYRjUYJyB5SyRWavD4A3MCzz/6Y5eVlYrEYH3zsYU6depOpqSkOHz7Mvn37kL1eL6urq5w5c4bBnYO4ZAfLy8sUSxV27NiBUlPIZrPs27eHVHKRs+dG6erqxOeVSaVWEUUfR44cYevWreYLkSQSiQSqqnL69GkEwVTlo9EoIyMjLCws8OlPf5pEIsHVq1c59dYJwqEYwUCYe4/sIZ+tUa1mefTRx1AVMHSR73znu1y/fp18PsvWgW2kUqu0trYyMVHi6aefplQqcd999zG4ayfVisJLr7yM2+sHUeCBBx6gr6+P7r4+vD4XlYqKpul4PCLpdBUnBh63l8HtO+ju6sHpcJFoiSMIkM9XTCDOLQAU4ZYX/ctot42Z3+UYYQNQZ+OAEzBx9T9vmu7/zK3RVFgfJWgMs9Rn/buca+2VN2gId9MWhDXBX1VqSA5zhtcMnaqi0JJI4CsUUBSFVCpNpVJBVVXcbreN9Q+Hw2SzWQqFAs8//zwHDhxgaWmJWq1mIltXVshms+zaugld15menqalpYVwMICum1q5x+Nh9+7dLCwsEI1G2bJlC2+++aZplgeDrKysIKfTae655xCbtvSQTWeoVsvoOR1RciCJThwOD0888Ti6rlKpFPG4ZUrlHN3dm1hcnqJcFdm8eTORSIRarcbU1BQnTpygvb2dbDZLPB4HoLm5mWAwiMvlIhgMsry8zOLiItlMEZ83TLVSZHxsismJeZpbOjh58i2+8Td/y30PPEhnZzcDAwNomsKLL79Ie0cr3rwJ7AkGg/h8PvYe2M+uXbu4eOkK+bzpWe3fugVNB4/Hg9PpwOOBfF5BdMi4HKJph2lVnB43vdFNOFwuuvt6KVVVHA4ZRddw1V/eRrvRWvS7RAHuJiLEO+xgduJ3cFLZfoMNJ9igKtvq59+XELjbFH83T+Mv4ZoaIwbWORsVq9uCjuoP/t0SOm30C9zOd7D2uZ7lx+Xy2Hb/6uoqwUAYURRZXFy00YFWRq3X67VnelmWiUQizMzMEAqFuHr1KolEAr/fT7VaRRAEbt68Sa1WQ5Ik3G43Ho+P+flZVFVl34EDPPzwg7z88mu88sorXLp4mWq1SiKRQNM0M5W4XC6zbds2PvKRj6CqNbxeL4VCAZ/XzeiYCdzx+9y8ffYtFpdmcTolqtUiLreEpplOikAgQCaTAcDlclGpVFheXiYUCuHxeDhy5AgPPvgggiDYGORisciWLVt47NEnKORrVMoaE+MzLCwusTBvMgkdfegYIyMjNmrJ8twrikJLS5ydO3cyMjJCMp1idHSUyclJLl++THd3N9sHt3HkyCGa41HC4TCGYVApg6IoFHN5llYqpNOrlMtVgsEwzc0RXC4PPp8HTTOBIsGgD0GQEAQJEDGMeoIKor39F40AGCK3XQRhgwdeNGzveaNXfe061hbEW7cJgoQh3rqICH+vy8Z0343LL9o2zvaN0YPGgW+IZsTBEBsiEQCS+I7LxuMa163vG5fG/QRZAhFUXUcHFpeXyRbyFCtlyrUqgUAAr9dLKBQiHo/j8XjIZrPMz8+zvLxMpVJh27ZtjI+Pk06nbWhwNBqltbWVkZERUqmUDSUen5zgypVrzM7OUi6XWVhKsWXLFnw+HyNjo+zcsYvNmzeTSqWo1WrIzdEYo6OjXL96DUUxPfoLywsUCjlkWSLeHOGb3/o6fr8fVatSLGXp7GihUs2jqxUCER9dXV1EIhEEwaQqCgaD5HI5BEHg/e9/P93d3Zw5c4bZ2VkGBwfp7u7m5s2beL1eJifGUBWBpkiYbK7IE098mK1bthMOxZhfXKF/8zacTicjY6MUCgW2b99OUzTM3NwcL774Ap/65CcZGRnhxRdf5PyFS7S0tPArv/oRBrZ2UijDmTNn2Lt/H4VyyR5AVoplyB/AEGq4vR7KVQNBFFB1cHkcVKsqLlEG0SSPMMe9sK6jCaJFLPEO7S4T4O0GwS2mwC3TVOP3W234X8bA+p+lNeYCWREJ6/Y3RiXs5yo0SIi7aCiGbqzfp9ExaRhrfYLbmxSiJFGpKSiaiihLKJrKymoSURTx+n14XE6WlpaoVqv2GLJU/3Q6TalUoqOjg9HRUTskbxgGsixTKBRoTbSTyWTI5XL25BtrjpNojiNJkpkRGI0Sj8e5dOkS733vewn6A9y8eZOXX34Z2TAMbl6/wdj4TQTJoFDOEvR7SSaXaW5u44H77mN2eoZrVy7T0hIlFo9QKmfJZTTcHgmlWubsmbe4evki4XCYYrFItVxkeXGeRCJBMZ8ln02TSi6j1irkMineOP4q1WqVxx9/nNXkLKLkolhS2LZtB83xVp55+gXue/AoW7ds48qVa3z3qe8RDPr5F//idykUc9wYvsHw2BAH7znM2NgYiqKwc9cuJMnBvn37SKfT/PU33uaHP/oRfX2b6d+6Ba/Xi4GAzx0w8Q4eD4GAG1EEtwOWV8sIgoCmaUSjPgxdQKnV371hUVvW1T1MCWDo78LJdzcb4Db/X7fJIsOzm77uu/AuUvHeyc/2C8ON76bh/z0Lo9ud3n4kxvp7F+qZi+ts+budv8FGu33GYMP/rd+3JoW62Viuq+supwt/KEgqlcHpdJJIJNCrVfL5PIuLizjq/Jwej5mBWiwWaWpqMgk+NY2mpiZu3rxJR0eH6cCs1Qj4vJSWFknPZEkmk+i6jtfrxePxoGmzOJ1OXnntNcbGJqhUKlSrVZK1Gj5/gDaHE7lQKHDkyGEmZ8e4NnQZr9eJy+Uik88RDvvZsXM7D87fx7UrF5FEnUDAz8TEJE6HgtfnRFWdXLp0ieXlZRNo0NpKJBJheXmZaDTK4cOHEUURVVUpFAqIosi2bdvo6uqqawI38HnDuF1emuOtuFweOnt6KZcqvPTSSxRKZZ544nGOHDnCa6+9SiafQTdU9u7dSz6fR62q7D9wiMOHD5sPcmWZl156iZWVFXbt2sWDDz7I7t278flkaqr1giCXy3P2zHVizXHTC+ty4XSKlMsKggA+n4QggBVluR1ox4R938WIvMsAa6SkusVGb5jKzdVbf2tdaOxOP2LcWQj84m7Md+1Gu0P7eQJ5d266cGcfgPV/qzXO1Ma7yPeHO/sA7pQ5aK1byFGLjy8cDjM/v0ilUiEcDlNIpwHsuL4V6vN6vbhcLkKhEJVKBUVRTDO2TmTrdrvx+/30drYTiURYXV1FURRq5QoLi3MsLy/T3NzM+OgIxWKR1XQavz9IPp+nWCwiiiJPPPEEssfj4lc/+mFSqRX+4D/8O0IRP8Ojw9QqFaLRKLVahXNnTtPZ1YrbJTM7M0U0EqKmVBAEE574xS9+EY/HwzPPPMObb75p2+l+v59iscirr77KK6+8QiQSwe/3MzY2ZoN0goEmpqfeYPfu3YDIm6dOIwgSumawfccg5XLZZBqemmRkfIRsNos/4OX69ascPnyYj//qxwHI5/O0toXQMOjq6iKTzbJ//3527tyJIBgUCqYU1jBwOp0sryzyox//gFQ6y/3338/73/9+WhNBNM1BJlPF4XCgqqqdrGG+bOvlrr3kX3QCbWzrYt/1kb02wNc66rp9Gnr57RyKG053iyC4m2PwbjP4Lzr8f9G2buBbvyncus8vej2NA33jeuN3U0VfLwxEUUSSTOyJ0+mkXC5TqVRwu92kl5cJBAK0tbUhiiKlUgkr5bdYLDI6OkpraysrKyu0tbXR399PPp/H7/fT1tbG6uoKLpcLl8tFJBIhHA5TqVS4fOUisiyza89eAj4vf/VXf8XQ0JAdsbtx4wbXr19HliWJP/zDPyDSFKSrq4PRiWFi8SYSLW1cvniekZs36OzsZHxilGpFJx6PMTF+nc6uFlRFZXZ6iv/X//Fv2LZtG7FYDF1VyKZLBHxepicn+PM//ROTe0+W8Hs9LMzNArCytMiLLzyPyx2gvbObHbv2cObMWVKpFKFQhI/86q+ytLRMPB7H6XTgDwUpl8scvucg09PTNMUiPPHkh1haXuG73/0un/jEJyhVK0xOTvLkrzzOffffz40bN/B6PeQKBXw+HxZk+NLwOarVKs3RJjTVYPu2AQI+P5l0DZfLic/jolJR8LicaNoa2s/uRw3uZQvueido7Vr4eT0IxdYmGo5pHNjWgNU0DQtuJAiCzaBreZudLuwMM2tZixBgM5sbxnrjoVGIbbymRk2ncf3d5sg3tl/YxLjb+W+T+Wf7BDag+oS6VtB47418C7e7v7vxJWw8RhAEOwxoGAZutxvDECiXy7bjzYLl5vN52tvbbY7+1tZWSqUS/f39ZLNZYrEYr7/+OoFAwHa2K4pCa2ur/ftOlxvdMJiamiYYDJBMJom1NHNf4AFy+QwrKysYRoyuri5WV1cRJIlXj7+BIDlwuTzIXq8bt9PFysoKFbVAtVzBocvk8hk8Hg9/8Ad/gKro6JpCwG/aJj09PWhqiVqtRntbG83NzTz44IPMzJjJOHv37kWSJNvWtmiKI5EI+/fvZ3h4GFE0OcxOn73CV7/6VZqamojH4xiGQUdXJ9/5zneQJImvfOUrTM2aocWOjg62Dw6yZetWvD43tVqNr33ta3i9Xubn58nl81y/fp1MNsuRI0d4+KF7yBUU/D4PilJFkmUCAR+Li4u4XC4+9alPcenSFbb2byLoF8nlQMQcKYKhIRgysgiwISnEsiMFMKw44B0kwBpnnmGTQzT2VmODE09gbVY3BYJhn0PE7PBCHS0kCAKiTp1ME3RxbfDb2PlGYWVvM9Zmyf/JHYaW0Fyn4m8weRphyu/mtv+uqECbClxbQ/WZJB6CHdYrFAomhXfdEe3AFPJWSPvmzZtIksT27dvp7U3gdDo5ceIEDz/8MBcvXmTr1q0oikJbWxuaptmaRKlcZjWVIhQM0NXVhTfgR9dNfotSqUT/1m2cOXOGXC5nw4LfOnMGUVVrSLLIwsIcuXQGj8eF2+1EURS6urr4jd/4DbxeL4qiUCgUKBdKSJJMOp1FFCUGBwf55//8nzMwMMClS5fo7e01KcHdbmZmZpiZmSEcDhMMBjl06BBHjhwhHA4zMzPD2NgYe/buYnpmkomJCZ544nGWVhZ59NH3cvDQXqKxEDPzM7x58g1ECZ548oP09PTQ2tqK0+E2+dKcTnbv2UOxVMLlcnHkyBF6enoIhQPkCuY1r8XsVZwOGZ/XQ6VcYmZ6il07BwkFfagK6JqCgI4oGLcsJoH02rK2HXtpRJs1bjcDCLdn+m3stJZlajPiCgaSKCIi4BAEpPois7YImklLJQNOEVwSyJK5LgsgGfX00w33IBr1ZUPI7t2E7tYv+i+0/LKaVTPAEggbw4y31BvY8Pzh9prPu03kspOD6lh9K+4vyzLFYpG5uTlSqZTN5FMoFJiZmaFarTI/P7+uLsDs7CwrKyuMjc3T1NRUj+976OnpYX5+Ho/Hg6IoTE1NIYoiU1NTpFIpWltbaW5JMDMzw/nz58kW8ig1c4Lyer2ousHQ0DChUIgdO3bw0EMPIUsCeL1uDF3F4XARa4lRU6uUShXa29t55JFH+ObffIvm5gTFQsYstWSIgEg+XeSFF14gnU5z9uxZZmZm+NKXvsTx48fZt28f+/btY3l5mb6+Pl577TW6urrw+Xz09PRw9uxZKpUKyeQKe/fuQXYI/Ps/+gOOHDlMPp8FdHo39/LW6RPMzc3w3vc9xsrKCktLS/T39/P6669z8eJF3G4viUQbPp+HlpYWQqFQnUgRCoUqHYkI5y8P8fbbbzM8PIyu6/j9Xh555BETEeX3o9YUNE1DBOQ675pgGBj1KiyNL3ljR5HuQJllq6aNE0nDbGx1GMFUMezZ3e68mCmkIqZjQDBMwYCBiQkw6oLFqHMUitj+NFmoyyGghoCEmf0m1s0Ag7qT7A4JKz9P+/tW8e82EW/0exisBUZ1wfTR2rvUfSxrJsB6J5+1U+P63Zpd0sywokPr5gEMVaNWrpBZTdllv1yyA8ktoIXCOJ1OOzlHEAQGB02/VywWs4lABwYGOHXqFP39/YyMjJBIJDh48CCRSISV5RXC4Sa2b99uaxG9vb1MjI9RKBRoaWmhr7uHleQSDz/8MNeuXWNkZIyWljiHDx9GbmoKEw4HCYeDSE6BUDjAykrFtF+cLk69+RbVisLRB49w5sxJcrk0Xk8T/Zu3MTUxit/n4cb1q6RWV2hNNJPLplleWqCvt5ve3l5qtRqKojA6cpOf/uRH7Nmzh1KpRHM8isftpHPzFlRdob25jfsfOMKlS5c4d/4MSyurgInic3k8aLpCsZQnEo5SrVbp7O6iOdFCuVwlEm0ikUjg8zkoF00bq1g0TZDFZI6lpSWWl5dJJk1ghSAI7Nmzh23bthF0e03tABP4IeoauqYiGTpyAxHd7ZCAZgeU7oAUxF63Pu0wkWFVrlnvxLNmLFEw6gNbQBTNQY5Qr6BjrOm3AgKSoSMKovn/hj6ri+Zgd9R9Alr9p4QGU0QzSff+b8k6/PtqjbO8RSVuNZMxyNymCw37Nnyu+XcaHHv8HCZAPeQn1t+vIEoIkimUdV0nk07jdrqIR2Nomsbi4iKSIBKNN7O5bxM3b94gEDDLeU1NTeHz+chmszYfoCAINDU10dzcjCzL3HPPPVy/fp1gMMjMzAxOWSabz1HMF0ilzJJ+HR0d5AtFVpNJmpubWVheIrm8SFtbGy+//DKKovDYY48xt7Bo5gJoilliSNGrZsHBSsWsO1atcvXqVfz+IA7ZhdvtR0RHVTRC/hAtzW0sLOdIJBKmNFpZ4ZlnnmHTpk0kk0laW1txuVysrq7S0dHBzMwM8XicTCZDb28voigyOjNDPp+lp6cLp1Pm/vvv5Znnn2Prtk3kcgX27dvHnr37iUajxOPNCKLM5cuXcbk86Drcf/+9lMsKLpfD5PAXBUKRMIZuqmDpdJquri4uX75IJpNhS38/TqeMQxaJNoWgqtZn/7oXV1WRBAG3123CgRW1rtqt0UgJAohWPrtmrFP/zP+vqYiSKNruARNJCLogoNc7jGKf02LENeo59eZ2uX6sLRywBE/9u2geIxiCrRUYoikM6qBFdMzr1XUDjTWnpACoxnrXxc8rDP6/rQFI3Grfw5owsA4XGwa7lSxkHd+Y4/HzzP7Wucx3Z74osxoRmAFeMxHLKcu4nU7cbje6quJz+3C5XPh8PptLQxTN1PRYLIYgCFQqFXK5HJFIhGKxiCRJnD9/nu7ubnRdZ2pqis2bN6MpCqOjowiCQLSpmWI+R6VSQZIkIpEmmpqaGBsbo7m5mVgsxp49e2xz4ZlnnkHWDZVkMoksS6iKYKfK+p1uZmdnmZ5apLm5mbGxcfweL93b+snnV1lcWCKTzdLbu59SqUS1WmVgYMBOQlhYWODgwYPMzMwwPDyM223a7KOjo0xMTNDb24vP52NieoIdO3bwzLM/pVqtUqvV8AeDeL1ustksA4Pb2L17JxcvXkbTdMKRKJ2dnUxPz/LNb36TYDBIV1cXogiKotmYA0kEr9fDz372MyKRCPPz84SCQY4dO0pzc3M9vlpFVlXbWWJxrTudTlyyiA5IomxXr22c4c0iC4LpO9BN8Id+G7tRltf7Bw0DNE1E10V0XUdhvT1q0V8LdXVVEtecfI3NsmcdgqneYxgmKEis2/J1h6Ah1iGq1Cvr1Dn4tfoPag1muIVt+bmEwC9YHRnjnbMR303bGMpcN9tz+6FsmwLC+nve6AC8m4Cz0nOt1jgZ6LqOJEmUSiVWVlZobm42NVqnxx7gDoeDpaUlRFHE7/fT0tJCNBqlXC6jaRrnz58nEAiQz+ex0oR37NjB5OQkXq+X8dFRALq7u/H5fKg1hf7+fnK5HGfPnmVsbIwzZ85gGAbFXJ7JqXFkWUZRFDMb0PRM5vB6vVA2i2NWq1VEqcTQ0DB+X5hPfOKTPPfMsyzOFfB5vTQ1+VlenCGXLeALmip2OBzm3nvv5cyZM/h8Pj72sY/hdDo5cuQI09PTrK6u2llLtVqN2dlZPB4PH/3or3L8+HFqtRqHDx8G4O3z53jyySfZsWNH3XExxOjoKB/84BOspjJcuXKFEydO4nSazsrmJheZggmSiEZ9FAoquVyOfD5fFzrDGIbBBz7wAY4ePUq1asb5dV23K6y4XQ7Tk87aYCtXavjcTpAEdEmyK0GLwto+gsMa1AK6btVys7SEum1ubYPGatIIgoigrW2QGjqcaKz9zro5qS4Y1uCvgl0hRzcM0+Zt6JCiuDYYrIISuq7X+ez/f7Ot8/qve1Zma7x12wS4g+C7mx5glTOHuh/BMDA0HUPT0VSVfDaHrkO5WKJUKNZBOLJd3rulpcUuhuv1elleXkaWZVwuFwAHDx7E6XQyNDTE5OQkq6urlMtlVlZWuHbtGocPHuTkyZP4fD62bdtGuVhiamqKubk5ZmZmuHjhPPF4HJfLRVtLgpZEnGvXrvG1r32N+++/HzmVLHL4nns4fvwVfH4vbslHzB+hs6uVS5cuIrnh7TefYfTGWVoTHTz6yKOcfuscbrkdQVPRcymcWoWtXa1MDV3BI9aIBZ30d7fyxsk3uTE0zOWr13B5XHR39XH+4iX8kSB79+xncHCQnTt3cu70dX71M7/KI48c4bd/+1/y8Sc/x5aeHVBzIhkGHtHLwV0HoKrjFR00ByMI1Rr/2+//PuFwE4IGQrWG09CRVBi5do4rl85z4sTrxGIx4oEA9913H+9/9HFWkiv43F48DlN4uEUBp0NeN8NWqwqGrtPkca3NDBudeZYjycoWlsAQG2zIhpnFaNRFAV2qH2eAbAg2tZjl9LE8xW63hKqCoRu4vAK1GtRqGj6fhKJAsVhBcOh2ySdBEEwzRAWn6MQhChTLVTwel3n9mo5DElF10HQdl8uJWqurxLpRN1HqEQxBuAVZeBtEBPJtBk1jSE7fMKpuzXMw7I/GmLqtEVmfxm0PQ5PuMkPLjdpX3fFKg7nWEIYVbr29u/oCBEFCFE3TzvLiIxgIIhjoqJqJ4GtJxKjVqoTCfmZmZmwnn8flJOJ3s3nzZi5fvozfJbF3zyGuXr3K6Ogo0WiUtrY2ejsSqOUBpqenCXpClL1O9GqReFOQns5WJkaHyKVXOP7qq2zevJlwOEx3RyulbJqPf+TDiKJINBxhfHwclyjz7LPPUskXkZdXFuspiy67QEFTU5hMJoOu6xw4sB+/P4DP5yPeHCMej7Jly2YuXLhoVhbBy6c/91m2b9/On/3ZnyHKAvfeey/Hjx/nez/4PsVSBdHhxOc3E4T6+/sZ2DbI4K5dXL1ynZdfeZH/x//zf0UURf73f/MHzM5NU62V8Qe8poqsKLz8yosMDg4Sb44yOTXO5NQE9953D7F4E6IAuZxCMOQin9eZmp7kzFunqNUqeDweVpNJZEmitbWVQrGAy+lErps5Nr9fvWmaWXzB5XKY9rGqI0l3K4xxa0exVMv13ua19cYupeu6PXhNjUFAlp2IosnVoWnUn4OEplEvFS3ZtFEqNRwOh6laulxIkhnFqNUUNEkCBHQdVFWrl6By1E0ak6JaFOrXU7dfG6HJd5wVf14z4edswi/xB+4Eavpl+S7MZ7o+K9TarqoqtVoNUTTp9TweD4lEguXlZQqFAh0dHYSDARsn09zcTCQSIZlMAtDf31+HqJuVfC0Q0fz8PIGAmdDzve99j2g0yo0bN0gkEtx7r1mez+l0cv78eWanZ6jVatRqNdwOJ9FolG3bTEzA6OgostPpRFVVnE4nfr+XQCDA4OAg165fIRw2BUE2m61z4Wtcv36VcllBkmDT5h7KxTTbtm3jlVdeYWVlBZfHyfe//33i8bgNVIgGQyzOL+Dzh9i7/wBDQ0Ok0xkqSo1f/0f/CNEwmBgd5ezp03R2dvKTH/6Qew4exOs1PfSlfJ5SPs+J48cZGRlh9+7dfOhDj3LhwnV8Pj+aphKLxSiWsty4WucDEDRq1SrVaplwMEBfTy+6puH3+3EIEsViBZ9LXkvc4FbU17vxBN8WHXc7lh9j43Fr2yRJrDvzsAe+roOimOu1mkG5bFaKKRQKlMtlRNHkM5Bcgl000uPxIElrHdDKGhOENZCKpWmA+XsS5qWKAqgISAJmua561EFdZ7I03Me7HKMblJ933le4FW5rR1Fuc97bbd/YxA0D3VLeBFH8O4F94FZhfzueCIv+q1Kp2Hh+QRBwuVw2ClAQzOq+oihy4cIFkskkhYLpzfd6vWzdupWVlRX8fj+tra02d2CxWOTBBx9kdHSUsbExUqkUly9fRhAE9u3bR1NTE4IgsLhoEtxa+QVLyRW0mgJgow7ltrY2JicnWFlZASHC3NwciUSszpJbYWFhjlKpgs/nZ9OmXtraW/G4vZw/f5ZcPoNWc/Nv/+2/JRQKsWfPHjq7O+jt6+PatWvMzc3hcLqZnZpGlJ3s2r2D/k2b2b1rL+3tHfzFX/wFVy5fJBqN8v3vf59ES5xIOMh7H3mIifFRyuUyzz33HPfddx9dne3kcjm2D3wQRVEYvjmOyykzdOMqBw/uR5Y1kitLjI8NEw75yKTS6KpCPBpj946dhPwBKpUaDkFCFMDlcCJQh9qKMqqqmzTjSMzMzFEqFunp6UGW7+6kugUOyq2z/i2d0PIniKLtKNQ0czEMqFZNogiv10ulUqFYLGIYBqurq2QyGdNnA4SjYRQ0lJqGquhgSGiqqc4LooShg6pgojl1HafDvEJDN8lM7MgBa/gBXaoLAczakDprmQhC/TsbogeNbZ0NvmEn2w7feOyGgX+7Yxu3Wf+529sRNkY56l4/3UzlRPs5oJAbBYYpoEwN0XL6wRr2X5IkZFm280msrL9AwMxILZVKlAomrj8cDuNyuejo6KCzs9OMTDU4GF0uFy0tLWSzWVKpFKqqkkgkuHTpks3n0dbWxsjIiEkF7vczMTFBd2+PnW7s9/vp6OggGAzS19fHm2++idzX18f58+eQJJNCe2Zmhmx2lWKxgCQJTE9P19WVLubmZ3j99VdwuTzcGLpKIV/E4/DV8c4Gm/v7+dJv/gYv/OxnvPrqq8iyDIbGrl27SGVzbO7bxM6dg/j9QVRV5/Chg1TLJV575SL/6LOfoaenB8Mw8Pl8VKtVvva1r/HQe47y4IMP4nA4yGQypNNpEs1xbty4wbe+9S2isTDtbXECQR/PP/c0ExNjiCJ4nC5aYnH6+vo4fOgQpUIRr9dPrarglGScsohaW4sNmagtF5VKjTfffJPkygof/vCHaW9ve9cd5PadhnVp59b3NQGwtq8lBGo1zeaHr1RM0tJ0Oo0gCKyurpLNZnE4HPXQkVkkwuFwoao6qqpTKpVsB6fVGRXFTIW06u6pqlmswjJx1gkrw4wS2LlGwppQawyv6awPArwT/HbjMNuYnHTLwN8w2DbmKVhhUP0ufAyNERb7Woy1cOrPIwCs1ijwxbomYan8VoTIGvyRSMQm9JRlmZmZGTsKlUwm6ezsRBRF2tvbuXr1KqVSCb/fj2EYZLNZIpEIlUqFTCaDy+Wiq6uLpqYmhoeHaWpqoikWZXR8DJfDyfbt29E0jZGRESbHx1EUhVAoxGo6RTgYsuH2lUqF5uZms76FqioUi3n6NvUgSQLVmovFxVkikQihUICFhQX8AS9NTWEWFxe4ceMGtapKqVRh06ZN7BrYz+nTpymVC7hcLv6v//jH/PinP2JwcJDVTJpoNF43K3bysY99FE3TcTrcCJLIzEwPT//oe3zuc5/j0MG9KKqZ1edyOfj61/4HIjoPvedBEi1RqjWd1ZUlnn36J3zyk59k147tXBkcYNPmLjwuAdFQWZidor01ztDQEKGOTvo397Fv3wF6OrpIrqZwyRK6oqMpKk6PA7Wm4/DI6IYptatVhaGhIc6fPw+GQSqVelcCYKO62jg7GobR4Dxb8w/Y65iD0jIBNE03ORXqhSFyuZyNzZAkyZ4ZAoEAAPlSGcMQ7HJTiqKQzeZRVdVGmLlcLgRBqs9KpnlhutdERI01hyVrar5omINDEIS1wdxg2WwE3QC3xeBblbvuaArcIQR3S+qtYanYa+dr3O9Ozag/8I27/bx4/8ZBv/E4Xdep1WrrBICiKCZtdzDI9PQ02WyWri6zMs/y8rLtuG1paaFYLBIMBm3h7vf76e7utkPTkiTZJp5lSszMzCCKIp/97Gf5yU9+wssvv0xXVxetra0Ui0UWl5fZvXOnjS9ob29HEATm5uZMYeL1EGtpRr5w4RyZTAa/308+n2bHju3Mz0/bN+p0OikUczamPhaLmlxmRo35hWlaY12srKwQj8e5fNnkHPvExz9OcnWVWq1GJBLhwx9+EtnhYmVxiU193YxOzPGd73yPM2fO8IXPfhy9VkFXNGanpojH47zys+cp57N8+MMfBrXGuTNnef7559myZQtH7zvC/PQk3/ve9/D5fBw+souZ6UlqtRqGrlAuFslnc4yVRnCIEp/55GcQAJ/Hi6GDy+GgWq2BAbIoIQDFUomgz0s6neXs2bOoqsr+fftsPvZ3anfsgA0CYCPazrL/DcNAEgUUxVTZZdl08mUyGarVKh6Ph1wuRzAYXDcwrEQrqzPouk61WiWXy9k2ZGPFWUEQbG3AGuBWtRpDXEsuEuvXJgAYuok6lCRrAyCsC5WaQmG932TjQBcNYb0mcMvjqg/O2wiBOz/zNQFwNzYB3YpqNDo3WR9p+Lu0tXx/1cb9K4pi/8+i/bZUe9PUMwd0Pp+33+/s/BwOhwOHy0lzooWBwe2mD0s2IwSpVMo81ukgV8gzNTPN6OgomVyW1KWLbB3YxoMPPohhGJx++4wJ6KvWaG9vp1guMzAwwPDwMNlslnK5jM/jRRRF2trazIpXS8sLOF0OfD4PmUySPXv28NZbJymXi5RKBZNwUHTYan6tVmFpaQmfz0c4HOLixYsIksjSyjJf/M3fMNF9Y8MsLCyQTCY5cOAAkUiE9rZOCoUSU9Nz/Pmf/leSyRS/9eUvIagl7r/vCFeuXOG5555j8+bNDAwMMDU5jlKroCpVTr91kmhTmF958gkMw6BcLjM7M8Xo6Cj/4y/+Gy6Xi0AgQDgcZmJsjOZYlHKpQigYJOgPkM2adlapUMTv96GpKooi17uzybwS9Hmp1WqMj48Tj8d55JFHbP61d2rWgFo/e21U++9cYspy8plgIpOuLJvN2hpAPp/H4zFJJXVdt02DUqlENpvF4wuiqTq5bJ5cNm/TQ4VCIULBMPlcDgERr9csyS1gzk6VSsWMN3ud9ZlVqlftNTCMel4xAqJhVtOVMO1lk5/fBBOJhnjbgiC3CoENcXluFQR3jjisqf6NgKrG53y3djutwv78OaTAxtnfMAw79GeZAJY5UCwWbXJaC/2qKIqNw7AyUnVdtROGCoUCW7ZsYXh4mJaWFpsirFqt2jn/iUSCWq3Gzp07OXXqFMFgkEAgwEc+8is8/PDDzM7O8tRTT7F7927TZK6XEdu6davdtwzDoLW1lb6+PuRoNEKpVCIWa2J8YgRZlunu7ub0mVOUSkV8Pg9NTU22hJubW6jTDWkmuKfmwzA0Ojo6+PM//3N8Ph9btm5maGiIrq4uisUif/pf/jPR5hYO7D/E9773fRRFIxgIcfLEG3zmk7/KjRs3GB4eZs+ePfT19SEIArt37yYWi1Gr1fjKV75is6cGAgHGx8dZWFgAsPP8N/f28dOfPoPP50OpqTRFIkSb4ng8PorFJIYG/oCPWtX0ptfKFXxBLyvpDC3NcVRV58qVKzz22GPs2rULuT57Op0NvPeNYT1bfV8P/4U1B5pe54I3STqFujfeWAcGqlQMW2UslWp1MFOUkydP1r36EkNDQxiGYSO8HA4Hly5dMmGi5Rqtra2srq6ysLBQD+M2MTs7S1tbGwsLC6TTaQ4cOEClUrEBJoIg2H4E04GlYIimdiEYEjXDQNdUBAkMw4QjiQLoVoRDANA3hDEFW+U3DBP0ZAFeROoEmg2RFlEU71rnzybaaIwINGhUd9MA7sZhYNxFhDTW9Wv08K+d31T/HQ4Hq3Wtt6Ojg1qtxuLiIk6nk5aWFpOkph5at5h54/E44XCQ+fl5m6nn0qVLiKLIm2++yYc+9CE8Ho/t/7Jm7Z6eHptgZGJqks2bN1OtVgn6A7S3t/PhD38Yh8NhTyT+YJB4PI6iKPh8PiRJ4gc/+iETExPIgmAgijAzO83hw4eJx+OoqimVvF4fmqazvJykpaUFSZLwen0oikIwGERRFJLJJPfffz/hcJDr16+iKApLS0t43G5C4SBLS0t1KjCZHzz1FHt27ub06dOIGEyMjfK3f/u35PN5Hn74Yd73vvcxPj6Oruvs3r3b9py+8sorHDt2jFQqxQsvvMDMzIyZsSeYedYtLS1s3bqV1dU0Y6PjiKKMz+vjiSeeZGlphZaWOMnlVSqVCh2d7ThdDsqlCvlMjmAoSKVaY2Topg1Z3rp1K75IBKdTXpuV9PUdygYGCesHv9lR1jQAj8dBTTXj8NYMgSjZg6ZUKttCzIKHWinUTqeTa9eusWnTJlwuF4VCgWw2S6lUsgVBMOJkanoSh8NBIGjSRZfKRTxeN6qmoOkqwVCAleQykUiEQjGPruu43W68PgeGqiBKZpKwhWoTBANZEJEkF5qhIwhWHTyRelE0WxiaORENn4DFlC4K4HDKdQGjYegGQt32/WW1v2so75fVVldXMQwDj8djw3mtEl9NTU2cPn2agYEBnE4nhmEQCARscs/p6Wmi8T0MDG6nqtQolkv4An6C4RCb+jczMzdLc3Mz1XIJRIH5xQVSqRTlchmPx8PO3bu4ePEiXq+Xrq4uVN2kHuvu7qZarXImc4ZYU5RAIIAhCESjUQB++tOf8v73v99MAVA1BUmGq1cvs2XLZkZHR1laWsIhuxAFmUwmQ0tLC22tnTz66KN861vfsjORdE2hqamJgYEBWltbuHz5Irt37+bkqRMEAn6mJ6fqufsOJibG+MIXvkgs1szY2BjZbJZAIEgwGOSRRx6hq6uLyclJ0uk0PT09qKrK0tIS169fZ3p6mpWVFRskce7cOX7t137NtK1c5kxSLpeJRGO0Fqu0tXVw4fwlzp27wEc+/FEwzJmro6OdYqFEKpWis6uDqgjZbNYmXPzgBz9oYhlcLnK5HD6fz4YK26qrNSPVp3FBFtc5p8x91lRaUwvQ1wksoR6Ht9Bji4uLJJNJcrkcqqoyNTVFb2+vHQ+2TAETBKShKIoNkrIchVYSiSiKuFwuotFoHdTkorW11XYmmpgOsT4TgKqYhCOWQDIEw0xNFkx/Qa1W5y0U1tKKJWMthi7YFOVrEQ2pHkUwjIYwop02u16FvmMs8TbNMqUasyg3Ig1vOeZdn/327Z2cjIIgEIlE1uH+rbRep9NJT08PXq8Xr9dLJpOxozORSMRmzr5x4wbd3d2oqsrq6iqlUol4PM7q6ipzc3McPHiQlZUVGwjk9/txuVxomsb27dtNh9/iIvF4HLfbjShLqBWzoI2lGQb9pnlcKBR47fXXeeCBBwgGg6aj0TAUJElkdXWFixfPc/aszsLCkj3DNzXFCAQiyLIbUXQyNTVHa6tOpaIiSS4EQSYajXL58mUGBga5cOECgJny29zM0tISLpeLL33xiyRa2rhw4QJKrYJDltm/bw8f/OAHWFpaYmZmph53lzl37hwOh4MjR45QrVZ59tlnGRkZ4R//439MtVqlUqmYs18wSEdvO03hJk6cPMnc7BILS6u0tvfS2tpOcjXD0PAwXR2dZihMNVA0lc6uDlaTSf7wj/6AfMUcTHt27uLLX/4Sra2tOBwS2UyuXjb89rNMo+f/dn3EOqRaVdCMNeedJIloBpTLlbod7rDBVpYzyfLwK4pCNBq1GWP9fr+tDrrdbkRRpFar4PWa7Marq6aQbG6O0dzcXCeaqCFJAl6vm3R61Y4HG4aGqjrQDNN+FXRTOEmibA9kDbPSk5VrAEI9jLk2cA0rLCdyi92vQZ0/AhvmDGBoDdVU7oK0vPW5WpL45/fk367dygfAbb/fEpWor5t2vBm5qdVqGIZBsVi0ATyxWMyesf1+P5lMhnw+bxcH9Qd9vPrqq/T39xOLxbhx4wbRaNSm1T9+/Di9vb0EAgGi0SgDA12USjA+brL8bh0Y4Nq1a2QyGZqamkwnY7GAz+Olu7ubmZkZ5ubmeOyxx3jppZeIRqMcPDTA7EymnndQr5ATizextLRkA07MGLEDvy9EPlegs8PNSy++CobE0I0ROjo6SCaT9HRtsusJ7Nq1i69//WuUyoV1JcJisRg/+9kL6LrBPYeO8K//1b8kGAjzjW98g7feeguPx8OxY8colUp8/etf54EHHuDIkSM899xz/PSnP+UDH/gAkiTx7//9v8fj8XDwoMkLeOzYMRZWVzCQmZtfZmExSTjcREd7J489+rgJvYw34/PLlMsqDoeJxJqemeb8+bMcPnKIiiIwOTlJtVpFUbQ6GMh8ubpu9fNbi4DZgJYN2+3+Wf+UJAlDX8sOU1WVcrVGLpejWCyia5BMJm0W2NnZWYLBIHNzc7bTaXl5mS1bTGrzdDpNJpMhkUiYppVDrGeLZalUSjQ39xMKBVCUKoVCjmIxz+qqmYk2NDRENBrF7XZSrZYBHd1QbDvXaTjxyHVsuwa6quG0n4c5lRt1YIAVyajR6Ag17X5T86mX467PjE7JzK60IMmWtvKLNF3X7+pDeLetUZjcafBv3M+6BuseLf9KPm86YzVNI5MxqfWCQVPbdTgclMtleya/OTJEIpFgYWGB1dVVOzvw+vXrPProo5w6dYqOjg7S6bQ9mTqdTlPlV1WmZmZMxu1SCZ/PZxcTtaD9lhb49NNPE4vFuP/++1leqSDKMsVyGVnXNUqlIolEwo435nIFc5ZxeYiEY/h8IUBkcSGJ1xPEIXtwOX3oWopMNs8Pf/QjttTZShVFYXJykpaW5rrzaR97d++jVCoxP7+AKMJPfvITDF1gZWWFkfEJPvOZz3D23AUWFhbYum07s3ML/G//+/+Bx+MhFG5i0+YtqKpK36Z+kskkiqrjdHmoVBWi0Tgr6SwYIvfcc4R77rmXrs4emuN+CgUNh1tiOZmnmM/i83kpV/J0dLRxc8TL2bff5sDhB4hGoyiVKplMBlmWCYVCZiEU1SwR1himuqXTsN57bRgGhl6n3bBnC8P2Dmuatk5dnJmes8kizcHpRpZNzgNN0xgcHDQLTCoKIyMjADZ0e3FxEX/YS6GYI5vN0hSNEG+OAjrpTJpKtUQoHABBR5SgVC7Q4oijajXy+byJJhR12zSRHHJ9cMpouoauabhdEpbJb3vdLQ1cgGqdBddyzBmGWQPPGhiaYWAaARb82ECSrHRqcV068rtpjRoA3BqB+Hnb3TQAS0jdbj9BEAgEXOTzFWAN/+9wOGx2Hqtmn8vlIpvN2rX9Ojo6yOfzROJNjIyMEG9p4aMf/zh/9Vd/Rbla5Utf/jIXL16kXK1SU1Ukh4NAKIQgSSiahg6MT07S2trK7Owsq6urdHd3IwkCxWIRRVEIN0VIJBJ4PB7S6TSPHDyIwyGxuLgIQCAQQDYMDVkWyWTSeL0+dA2zAmm5CoaEzxdg29btzMzMsLS0wvj4OL29fVQqCm1tnbhc5mxy8tQpQkE/MzNTHHvoGGDw5JNP8Oj7HuW3f/srfOHXv8i1a9f49Kc/TSaT4y//8i/p7Gqn3xvk6tWrTE9PI8uyDYsUBIGJiQk8Hg8+n4+XXnoJl8vF7/zO7+BwOGhqauLKlSsIbg/JZJIdu/bS1NRELBaiVoZUuoYsy+gaPPvs84yPD3PPoYOcv3CGSCREd3cnBw8fxOP1sm3bNmRBJBDwo6qmje2s87Tbtv4dfADGhlnMnLUxoaaYg1VnfaJII3FIMBikWCzaM0YwGLQHZ6ku1a0ozNLSElu2bLHTnGVZplwuUy6XbfqnpaUlm8Mxk8mwbZtZWWlyctJGe6bTafL5vOlJ1kxSSYfLiSCYJpJWV9Glhjhb410aFq8YDXgC+7no6wSAFb3RNM0Uel6PHRf/edX3dTO07YS9W7LWXTAFP9cV1I9pEAaGAeVy2Qb+WJz9Fs//4uKizewjiiKhUAin00kuZwptE8XpIJ1Ok0ql6OnpYW5ujqWlJebm5jh69CjOOpmI1+u1Of0dDonu7m6iUTft7e22A9uK1hmGQSQSYXBwkPPnz/P444+TzeXs6IHfXycNtQoSzszM4XS60FSD1tZO25mRyWRobm4mkWjj6tUbtLQkSKVSZr09XSASCdPcHMPn83Fz6DodHR31wqAZotEo//pf/yvGxsb4m7/5G0qlEl/96lf52Mc+wRd//QsIgkDNEIlEInzta1/jzJkzvOc97+Ghhx6ipaWFyclJZFnmwoULZDIZhoaG+M53voPP5+NDH/oQoijyne9+l2wmz2c/+1mamxOUSgZBn0AyWaCzs4lyGRKJBK+88hJt7a00xWLEmsJ0dpmY62JJJxwKUswX6x55D4VCFVmS1ndSY30HFBsEwvoOYdgzIZizgig7bHXM8vRbwAxRkHG73bYKGI1GGR4eJhwOEw6HWV5exuv12pDQwcFBJiYmWFw0KZ5W08sUi8U6XDjF3NysSXUWDLKyskxPTzcOh8ylSxfp7OykWjUBKpqm4XQ6WE2lkF2m11qUJTRVQdHBIck4HQ0O0Lr6b9RzFQTdWHfPlhDQdR29QQDYZLLlMk6nE0ESbVXZFIS/OCHI33d7JxNAq0+YkUgEn89Xp+E2UaRLS0t2HQAr2y+RSNgDNB6PU6gUcTqd3Lx5k6mpKe6//36uXbvGCy+8YNf0S6fTDA4O4nQ6GB4eJpVKUSgU6O/vZ3Y2TUtLC1NTU5TLZWq1GrFYDEVRWF42Iz/pdNqE0CcSTI5P0NzcTK1WA0Aul2MsLy8hSxF8vjCL89O4HC7ymTyiINO0LUZyMc30zBzZTJ6apuALuqnoWQSpwoc/9nni8TjPPfcCuVKRcLiJk6cv8eADR/nhj1/BF2znE58+xOTkJNMLl8nlcuiSE0WSeO6553jr9AkeeugRNm/rY9PWXq5evQoSONwOkEQuXb2CIEgcO3aMSk3jrdOn8fuDHD7yIMFgkP/lN/8pS8sL9PZ243Y7kGTDRDYGNIZHrtPcHCMYlpidH+GNN0r803/6z+no6KI5HqNWM/B7DdSaWcEVoFbTcTrdZrxbWCMBERrgZ4ZhoFoqoqCbHH+IawLAJIYyzQNJREenrJo1B2oFjXKtzPzSPP2btzI+Po3T6cTp8VJVNXzBEF29PYTD4Toq0IwEVNUquVKGiZkxPAFzAE3PT7IwO8eBAwdwu91Uq1W2bOqnKRShWq1y+MAhBASWF5ZwSg6yqQxqVamrrgHGhkfxuNw4PAJCxfT+j49OkEgkcPr9KLqCYAi2xiJJEpLDfAiKasKOHZLLTD3WNQwBSuUyqayJZBRl0y5uCjfhcBQJeH1gGPhlkWJRxeOScRgNfpP6tG5/NkYMGgj8GtctTWvdvvr6AQu3j9SYx5vajlZHTAKUikU0TTN5+GsmS5UVEbIEmdsjUyhUEQUVr1Minzb9OH63wwSQqVVqpTx+d5zk4hxNTU0UnBKezjaqRTPHY2VlhZs3b2IYBh//0If44Q9/yCvPPsu2LVt4/fXX6Wtro5xO0xIOk15YYGVlhTOvv87o6Ch79+5l9OpVHn30UQDUQgElnycWjaIoCl5ZJqequCSRPTsGuXz+HIn3vY9cJkWlVKhXzHYiHzt2jJMn32BpcZZ8PktnZzt79uxhfnYOVYFnnnmGREu7fYDDIyPJGuVqjVisiZaWFq5fv87Y2BiappFMJjl69BjBUMBGHQ0NDZHL5ZiYmLCJD44fP45hGExPT/P6669z9OhRWlpaSCQSjI2N8d//+38nny/WiRMcPPvssywuLNHS0kJra6uNjfd0u9i3b4BaDUZGhpmZneSxR98H6Jw79zY//OH3aW9vZ9++fSwtrjA/P8+B/ftIJrOmuVDR1kn5d4ctX1s3ywII6Kx1RMNYIwA1PfUK5ZoZvahVVULBCF5PkoWlRXw+H6VSiYmJCbZu3WqniVrFIOfm5ujr67Mrw+RyOdra2hgaGqJUKtm+G1k2mZzy+XydD6BmYzpSqZTteIvH4ywvL9tcCLIss7q6iiiKTE9PI0kSmUyGcDhsV6mxOO0BajUTyyDWqdMqqjkD6rpOvlhgaWmJxZVlAPxBs6CFlcfuECVkyeQ1MFViMNS1Z3tLCrAg2ObInZ4/Dfs2Iv5uZ9M3OjCtbaK8Rshi3p+J6W/kiTDfoUluaz1HS6W3wqeJRIylpVW8Xi+pVIqWlhacTifXr18nGo1SqZgI2qtXr9LU1ITH4yEWi3HgwAF8Ph8zMzNEIqbgvnDhAsFgkGvXrhGNRllYWOD8+fO43W6i0Sgf/ehH8Xg8nDlzhm9+85scPXqUvr4+Ll68yJNPvp+REROs19HRYUfMSqUSf/qnf8rNmzcRRZFYLGZG3X77t7/Czp3b+S//5f/N8vI8RsjH8vISHo+HmqTS19eDYWiMT4yRyaYY3LUd2QFTs2O4XC6uXbtKpVIhGPQzVi3R1dmDx+OiXC5z7Ngx3G43Tz31Azo7O020U6mA2+2lWJw10W5eBxcvXqSvrw9RFHn9+AlaW8dIJBJksyPouk5fXzejo6O0tbXx+c9/np6eHpxOs2pPoVCgqcnDU099j+eef5Zt27bQ0dFGpVrC6/UyOjrKyMgI73nPQ3z4V7bidptptE6Xg1JJMfnphfU2+i3JPbfpeNaiGhrrLWRhwydUVYVK2az7lkwmzcFVqZJKpVicX2Lnzp3s37+f8fFxyuUygmACRqzYvdUx481RCoWCDR3N5/PsGtyBBUnN5XL2DKWqKuFwmNXVVZaXl+0ZLBQKsby8bINVRAQbhmqpjz6fD7fbafMMWA7MjQPMBBRJ1GoCtZpqh2hrtRqCINiEGCWhZApsBHxeL4pi8edLtzzntXdgftf12zvp7H1vF54zYU23vLu1zzUBIQkmgYrJmyDYA93MoFQoFovIsmyrzG632w7XulyuOp+mjM/nqUeSFHK5HO3t7fj9fg4dOkQ+n2d4eBhJkujp6WHv3r32sxkaGrL9N4lEom6aOU28fybDX/7lX9qw3c9+9rM2PqVYLHLffffx2muv8dxzz9WRpCU++MH309vbjaqaxKF+v5/e3l5effVVXn31VTtkCZhQ4GvXrpBobSabTRMI+pAdEm+8cZzmWAuZTAaMCifefIPFpWXCTWE6O9tZTS1RLhdJp1f5zne/baY0CjKgc/DgQWo11X6op0+/TTgcpqOji/vvf5CbN29w8eJFLl+5wvbtO6gpZserVCrE43F71vvc5z7P0tISp06d4pOf/CSZTIZarcbu3bvNmaeuAQQCbjQNXG4nzc0xjh07ysVL57l27YqZ/ODzMTExQS6XY8fO7fh9QTLZHIFAkFQqjdflXicAbuf13SgIGhdNNxCEhnpcUM+uM8+jqiq1qoquQ7FYZmRs3A7nlUomYGNoaMiuoxiLxVheXrTLQwuCwfDwsEn4qNUIhUIsLS0RCoXWzfoWmtBKAsrlTK7GiYkJBEHA7/fjdrspFov2zOp0OllZMmfrdDpta1Zm3nm+jlxzUy6rNgmJx+NBlkUURTOdSW4v1apiV7vxer3EhFjd9yHZgsbn8+Fze4iEw7jdAoriQJJAacBZrMv2sz9vL5RtgSDc6ocx19ccroZhpi+tCREDUTRNg8ZjBEGwnXnWM7Ky86z+bAmGSh1sk8/n66m9KVwus8KWIAgUCmYofHZ2FqnOSFWpVOzZ3ufzoWkaqVSKdDrNjRs3OHToEIcOHSKXy3HPPffwel3dt2DvFy5cIJ1O2xGkzs5Ojh07Rj6f55lnnmFlZYWf/vRZ+vr6iMXMcmDZbJbZWXOytd55S0sL4XCYoaEh5HwhiyAYlMtFnC4T158vZOnq7CQQ8JPJ5MnlMsTjMVpam5mbn2FsbJhiMU80FqatLcHk5CSKotDb28v+A3txOtyoKhw/fpxyucrOnTvRNI3p6WnArHz64ANHOX36NPmiCTNeTabp7Ojmq1/9Kn/2Z3/GlStX2LRpE5/61KcY3L6VTLbAyMgIxVKBYDCOJPlYWloim8vw8ssvc/bsGVZWlrh2/QqyLNtFEE6dOkVTUxPT05N885vf5Nd/7TcAyOdNSWqot6qYt00a2SAAGstA2RltDQKA+nnKVYV8voggSDhcbgRBIpPJkUnncTgcVJUaTsHJ/OIC4XCY2fk5mptjTE9Pk8/n2blzkKmpKTw+Lw6Xg2A4xMzcLL6AH6/fx/i4+eyt5JFYLAZANptnfHySZHKVgYEBQqEIwWCY5eUkTqebWk1FklSy2bxdCFXXQZZNzapardURkdW6Z1mtq7u1OjpSwOFwUamaoK9KpYKmm55+UzvTECQToWloa5qEWQDTFB4ALo97bZCbY9MOuwoCSHeq3Vc/RqVRQDdmCtXDsfYxa5qapbabQsXMZbDCs4Zh2Kq+0+m0AUwWjLtardqLlZFp0bNZA9/SFkqlEqqqEolEiMfj1Go1JiYmGBoasnM2arUaLS0tdtLcjRs3bOddW1ubDQe/evUqi4uLHDlyhCeffJJoNGpXFgoGg3zqU59ieXmZf/Nv/g39/f38n//nvyWdzhCJRPijP/ojVlZWzASxUIhdu3Zxzz338IMf/AD50Uffy7e//S2CIT/lcpGAz8nmzX2Aij/gpaenl1y2RE3VKJbylDNFEFS8Pg/5fJbV5VW6u3uZnZ0nm83w7/7dvyMSjtLU1Ex3Vw8+n4+FhQX27z9IOBxmZWWJ6elpPve5z7F3736ef/EnZohxZZkXX36J++67jw/9yofx+/0MDgywsrrKUjLJ22fO8eKLL9Ld3c0999yDy+ViZmaGt8+cZGJigqmpKXbt3lGPXKSYmZlieHgYMLP9wuEwxWLRLJ4Yi5HN5gkEAlS1jR1ozUbc6A9Y8/A3LmvHbFRSdcGgWlXI50xb2hfw09ZqMhsVCxW8Xi/JVTOV2krcKdVLnHV2dto5306n0y4UYdVsAAiFQpTyZbRCgdV0GpfHQ75YNIlEajXS6TRen4+Ori6Thz4QYDmZpLkOXy2UShgCVBVTsyiUirR3dpDJZXG73WiGztz01FrlGl2gUqsiyzKBQACfz0EyVbFNBV0xKJXLlMolM2/E7bPDUpZZomkapWLRDh+6PO51UQTzOd/++dtju2FfifXamfUeTSFhCgrTMYuZiyCY1OiiaIK7anWhZSH5ADvr0uFwEAgE1mX5FQoFFEWxtQWn7CCTzgAmoKujo4PR0VESzS2kkqumdozA0PUbtLe3Mz87h0OSmZ6eplqu4Pf7uXHtOgGfn/HRMRRFYffOXVy/fp1qucK+PXvZ1NtHU1MT4+PjvPLKKzz79DO8//3v52Mf+xi5XA5nPcrU2pLggfvu59SpU1w4d4G2tjaef/M5Trz+BpFQmGw2y6c+8Uk6OztpiTfzxS/8BnI2m+HUW2+iqjUiTSECQR8el4tcJkc+n0PXBAqFEsVShVhzlI7OdgpFH0vJOUQR/pff+h0UReGHP/wxhXyFWKyJew7fx8zMHO3t7XzsY58gEvGztJThu9/9LrIss3PnTq5du0a1WuXxxx9H13X6+/vx+4NUKhU6OzsplUqMTUzQ0tJikpMe3MelS5dYWVnh1VdfJRwOm44Wl8zgjgEcTolNm3rZt28Pzz33nO3siEQi9UqrzRw7dsyOQfv9XnMWEqU6yEVoIMe0ZqNbtQHd0gAMKzXUKimyFgUA0DCZNmpVM+STL5ZQdcPUBBwuJIeMPxDi4MGDvP766/j9fmq1Gtu3b8cwNJsj/vTp07ZtHo4E7dixy+WiqakJl+xmeXmZ+fl5BEEgl8vZaMJQKGTTn1erJtDJuh9VVVleXqZSMgerlXVmCcxsNmsXlrTyDyzHoZW9WKmY6nC1WjVDUKpi5ylYplQgEEAWJbxeL7qiIstmZqTpZ3BQU2/jxW9Yt85zR5SeuF6N37guiga6bgkBzcRvGGsagCaYM30+n6dQKNgcELVazQ5XWuq+FWe3rssilrVQnE6nk97eXjs3w0LWBoPBdeeKRqMkEgl6enoIBoNs3bqVoaEhmyy0VqvR39/P0NAQPT09NvvPwYMH2b59O2+//TZXr15lfn6er371q3X8iJdy2cHg4CBvv/02Fy9eJJvN8sd//Mc2MemuXbs4cOAA5XKZ5eVl+vv7kU1CBzNmGwz6KZWKpFaX6eroplZTcbmcBAIhcvk8Xr8PwzBYWJhDdMAHHn8Ml8vFq68et9lorEzBQCDH0NAQf/mXf0ksFuOjH/04n/jEJ/irv/or+vs38Z/+03+iUCgQjvr57Gc/i6rqZqikULCdVpbaVKlUaE0kGNwxgMfjYXFxkbm5OXx+D5/+9CdZWlqitdWMhU5PT5tcaN3dpFIpUqkMhw4dIp1OE4s226nMbrebQqGA0+G77Syz0fa/Uyc0GuxIS0PQ7P1Mii7Z6ULJZMnniuQKppe+WjGdSMVizk4fBdPO279/r90BrQ7Z1ta27pqsfAHLHnS73XR0dFCtVpmeniYSieB0Om0suKVJWKWnFEVhfn6epnCYUCiEIAi2czUej9vccj6fj0qlYtv3kUjEZrFNp9Ooumjz1CEKOF0umwPPUo/RTdW5Uixh6DrFfKEO9goiSOtV/DsN9DsJCMtZLzTY+GsaguXT0e2cDjOq0GD21QVSuVwmn88TDAbt33C73ayurpr9NBwmEAhQKpVs4VGpVFheXMLvN7Mw29rabHCXVSzHYgSWJImFhQVcLheqquL1eslms0xPT5umYF1ABwIB9uzZQ1NTk+3LGRwcBGB8fJxcLscXvvAFXnzxRX7605/yla98hd/7vd/D4/GQyWR45JGHyGazfPe730XXdXK5HF1dXUiSxO/+7u/a76Snp4exsTHkZ555hqtXr7J79y6KpSwrS/NEwsE66USBUDDK5OQ4be2dbN7cx6tvvILP56Kmlbhx4wY3rkwwMzNDIBDC4/Fw//0PcuzYMbq6+hgZHuXy5atMTU3xhS/8Gvfffz89PV288cYbddRejN6t3bz06iu89fYZmxTxwQcfxB8KUlXN2WQ1k+bytatcvHIZj8dDuVxm3759lMtlTp58k/7+fnp7e+pRiWv82q/9Gl6vn6effpqO9h56ezaxf/9+My3SsDpmtc4ReGfct2GArq+FfdYw8IJNra3pa7ajYaxlvmmahqqbyLpisYjL6WFhcRlN0/D5fNRqNU6dOoVuVOnv72d+YYG+vj50w2BkbJTt27dz/o038HhcHDhwgNHRUVxVJ5k6wcNKMmlGDkanEGUHouxgaSXJ6OgoDz30UN3JWKJ30+Y6E4ybVDqNoulUaiZXnI5AU6zZJlTJ5Aoo9chKZ3cvly5dsotUlEolmpoMVB0MQaK9rYmJyUUUxVShe3t7yRXyLC4tkS3k2b17N4WSiXC0PO0Brylso9GojUizshetZ2j5IzRVswdLsVgkGg1TLtfw+53kchWbXadWrdrOW0EQ6sQqeh0t56BUNBNxKqU8suwEwUCSJCYnJwkGg4hupzk5xGK2YzmXy5FKpejt7bXJV/x+PysrK3ZVnVAoZIdaC4WC7ROwsPflchlVVW0qLofDwfj4OLVazS4AArBlyxZ71t+9ezc+n88O37ndbpvDoVKpMDc3x+bNm6lUKhw6dIiOjg6+8Y1v8Ad/8AccO3aMRx55hLExEyRmRYt2797N2NgYv/Vbv2Vft8PhYGpqyswX+OM//mOWlxc5sH8X6cyKLf2sFNnJyUmi0Rg7duygb3MvF66cp1DI4PKaauhSMkdbWwezM/Ps33+AtrY2Tp06zTPPvMCunbv56Ec/atuy4+PjnDjxOvv376elxUxf3D6wg1//td/g5s2bPPPMM5w5fZalpSUOHjzIwMAA8/PzTE1N0d/fz2OPPcbIyAi6rpLJmNwA+fQKH/nIR+jo6MDpdDI1NQWIbB/Yga5BJBLF4XDU8+kryPIaNZNh1HPbG2ea21CDW5RZ1nd7wDcUmDBEAQzBZMsxzIGvKBrhcBhRFFlNZWxbU1VVM2/c48bQKkxOTrJ9+3ZmZ2cZHBxkYXEOVVVpbW1leXnRTlayuABHR0fZuXOn7WFeWFiwy0Y3Nzdz7do1FEWx00UzmYxNE+ZyudiyZYtdn7Gjo4O5uTnm5uZoaWmx/RCLi4sIgoDb7WZ0dNRGlzkcDpxOJ9MzK0SjUZLJlJ3sohk6yWQSt89LoVBAxzDLUtcU+9qcDgelgglnDYf9qCq25ijLZi6C5SCUJKGeB+GsC2OdatXsmybPoWA7FtciOWsEHpqm4XSZ0QaHw4GmqYiiZP+WbkoL+/cauRetcJkkSXYatt/vB7BZmnw+H2qlSnJ5GZfLRSqZNPM9FIXV1VUqpRLDQ0M2hkIEwsEgkiDgqV9/po7REDHp6gI+H5qiEA4GQdcZGRnh0oULNDU10dHWRigQQK3V8LrdJJqb+a//+Y/4T//pzzjx+uucPHHCJhZpbW1F13VWlpZ46D3voa+nh9aWFjOEnM/TFA4TiUSQx8bG6O/fxD33HGF5ZZ6VujpUzJdwu3z12GUf7e3tRCJRAv4Q+XwawzCJCQU1wOjIOKFQmPe85yG8Hj+5XIFAIMT4+Dizs7MkEm08+KAJcbx67RKvHX+VqakJk/TCZ3qBJUni6NGjXLt2jbfeeoubN2/afOhbtmzB4/EwNjbCW2+dtPOsDcPAH/DyN3/zN2zatAlJknG7vfztt79LJBxn+/ZdJhClaoZ2REFElpxIslk/sFqtgiCvUysb1dDbtVvCgHUoqyiICKJJta1jscTWKBYNHC4nXp+bnp4ek9CjWqGnjgkfuXmVQCDAjRs3iMfjdme0eAGDwaBNMmGVPhcEgVAoZNr0hmwDSBYWFti2bRuqqhKPx2lqarIpwiyCkUQiYXPLx+NxJiYmKBQKtpdekiS2b9/O/Pw8S0tLRKNRdu3aRSQSsassW8CZaB11ZuUlWGHJeKLFxMKrZrjM0gCKxSJlQUCpRxjKZbdtXwO2rWqdS9ctslQBRdFsx5s56AVqNQXD0BqcsZYWZ6r/lnBW6pGecrmM2+2mVCrYFHeNPhKrAIdF3mH5QSyfi5XNaUUMVFVlenKSmZkZurq6SKVSCIJAOBzG5/PR29tr4zNWVkyBafHxWyFGy6HrdDptspB8Pl/XVg3C4TAzMzM4HA6i0agtmAKBQL2qsMonPvEJ7r33Xp566iny+Tz79u3j4Ycf5j/8h/9AJBLhU5/6VD18K9sRC8uxK/u8AbxeP4lEgmAwjCCIOGQXsktCFBw4nRqxWAxZdtqgCK/XS7Q5QrVappCvoSg6hw7ey/jYJMlkil279vCeo8f4wQ9+wM2bN0mn0+zfv59CMU93dye6rvL444/S1dXFz155nUAgWAeRlGlvb+fLX/6y6fk2VDsf4IUXnsPtdrNnzx7eeOMNUqkk7e3tLC+s0t7ejihKGIbAZz79OY4ff4OpqRkGtw+wuJg2obb1kI6m6dRqlbUBL+i3HdiN9uTtBICtHYgi64BAgoEoCTbKrlwt45HMmK834EXRFco1k9rM4/GwdfuAmURSLrG8vMzW7QMk00mi8TiZXI7FpXm6+3qpqgoLy0sMj46YHHP5HJVaFRSVQCBEqVQhmUyxsLBUt9P9rKysIooyTqebcLiprkrHuXHjJmBSg7e1dTA2NkapVOH69aG6r8DNyMgYN27cQNMMDhw4QKlUwek0C7xOTk7T1dXF8nISQRDs9Nf2zg7i8ThgUrWl5+dM7cAfsGPmbpdZKtuC1eYzJvW12+02s0nrmqfTKZDNlkznpCihVKo2hZkhSuiKZvoUZKvgiYZhWAVZ5boQENc4+3QTeGPVk/T7/euYli3BaxLVBNA0zR6IlgBOp9M2W5YgCCwtLVEul+3UW4BczqzOa/2uhSJMJpN1Ri2vjdbUNM2mvVMUBa/XSzAYJJVKUalUSKVSzMzM4HK5bH4OK8xqmUqFQsEW+Nu2bWPHjh309PSgaRqTk5N8+ctfZnCwj+HhGZuyzNKcyuUyssfjrScXlOxqPqVSiYAvQL5UpCkSp621w0xMSa6QyWTJ54sEwgGTiTarksnkMAyB1tZOenv7OfnmKd46dZonn3zSJjEcGx+lUMixf/9eevu6OXBgH2NjY3zqM59mcHCQkydP8p3vfIfW9jYMAc5dOM/73/8o0ViMzs5OvvfUd5idn+Pgwf1UamX8wQAen5fNm7Zw4cIFYrE4v/M7/wyv18/nP//rhIJNLC5mcTlNLUbXoFZVUNR6/NllmgWVupd+Y3jPCiWJ4kYk2hrIRICGCjN1qKkIEhIutxPJIREIBese8xLlWpXkSorFxcU1L7Ngwnbb29u5fv06586do6XFZFiOxWIUCmZqtsPhYGRkFF3XCYVCzM/P097eTktHOwsLC1SqVbYPDrK8vMzi0hIer5dQKITX5yMWj7OSTJpZaPk88wsLdHd3gyAQCAXRMWiKRUmlUmSzWV565WVyuRwGpj8iV8gjyzL79u2jp6+XkZERsvkcgiQSCYXtVFdZlmltbeX6zSG6u7vJZDImR2PVVKF1RSUcCuF1e8jn86RSKRLxZlRVtdNorYiD1cklScDtdjI/b1KZeTweBEGwK0kLuoEh6bbZKstOJEFErs/sFv+/rmoYmk6tUkWp1vBE3VTLFRvDYA1aq4RXY+amNdAsB6A1qC1QVTAYtB2FDofDDtXO1HP1rcQ6VVVtVqCmpibC4bCJuK1rPoIg2NqGBfBaWFhgz549NoOQJUBmZ2fRNG0d3XcikTCjReEQ3/veU7S0tLB3714ymaqN5KzVarb/QlVVZJfLRa2qmFjz1g7cLi/pVBLBkMjniyRazJBcKpVhdHS0zlyjs7S0ZBJNRLby+c//Kvv370cUJLZu3cq+vQf5/d//ff7sz/6MAwcO0L9lM7VVk7nmW9/+BoGAj8985tM88aHH8QdaGJ+aYWFhgaGhIZaWltizZ7cNlIjH47x99rRZn6COyNI0jUceeYQjR47w5//5j9m7dy/lco1SscKOwV5EQWJ+fpGW5lYMA1vCAmYITpIw0CiXq3aZbMvMt0OBFthEEm0BYc/6DbBhSRJs8gtBMKPSptpqageyLKEoNbwBP3LNjOerWg1Vq1HNlymXS7az6cCBA9y8eZNIJGRTo7W3t5PJZNi0aRPlcplt27ah6zqpVIpoNGqbQhYQq1gs2qWgTKp30169du0a9913H9Vqlc7OTtvBZMGKk8kkoiiyY8cORFFkYWGBM2fO2ISTmzZtslXjnp4eFhYWzMGtmPa9JSAdDgf5fJ58Pm/jBcpFM9TY1pIgGAig1hSb+cjr9TI7O2sj1Cz/jCiCz+dgeTlDU1PYhrV2dnbaAsAcVIo9UC2cPrhtgWDi+h1m/F6t2ZTclUrFdL6Ja2aF5TizfB8WBmBpaQlVVW2ijVwuZ9+rUVVs88IVdxIJhe2warlYMu+/XEYSRKLRqF0IxDJB3U4XRVHC6/YgCSKVUhm300V6NUUxXyDR3EI4GDKFWn2/fDZnO/RGh0dob28nl8mytX8L+WyOOQOOv/oa+/fuIxQIkkqu0hyLI4qijVQsFYrIooRcq6moao1TJ0/T09tudii9Ca/bg88bYnV1lYmJKeItzczOzCMIEs3NzShahYqvRDzWzN49+3jP0WNcvHiZ733v+3g8HpMKvL2dN998k9Nn3iKdXuXAwT10drYTDAaYnpkknV5lbDLN5OQk3d3dHDt2jJmZGR577DE6Ojq4cOEC2WyWG0PXmJ+fp1ot4/G4+MpXvsKOHTsYHTWBPh/84BMcPHiYfK5cV+PytCZaKRTMohlWQonL5cLtNimvqlVQagqia3066sakIMtZaC2NsGGhDlkTJHFdaW9dN/0AuqFRKFTq1F5NGIZBLBYjkUgwOzdXtwVNDsB4PI4gCNxzzz288MJzdgUXCxptlYOyilBomsbw8DBO0Uu5XCaVSrGwsGAXgizWAUHpdNq+91AoRDabtT8rlQqVcplQyIzgpFIpTp06RSAQsJlsY7EYqqrS0tJiD5JgMEg0GjVj4eWKPWDS6TSZbNZOOJIdsjlh1Ew2WlVVTUqsbA5ZNqnkLPXbQtu53W48HpFyWWd8fJyzZ88yMDDAW2+9ZQJYWlrM7Mi6za4r+rr3ZM6khn1eE9En2vwHqfQqkijbCUq5WtXMi68LQos91/IPZDIZymWzX3m9XpxOp03fZhiGfV+BQMDGBlh1HCKRCD09PYyPj2MYhk00oygKqVQKt9ttmwWWkzWXy9nYlUaTwe/328LR7/fbQsQCkFk+JJfLxfHjx9F1nUceeWRd+NfiFEwmkzYpjWxmfeV5++23KZWzlMtVG+jhdHgJh8O0tbXRt6mfufl5pudN6KmOTizWTDQa5U/+5M/40z/9cwDuvfdeAoEAmzdvtoEn2awJN7558ybhcIBIU4jp6UmefvppBNmM9T/wwAN86UtfYmVlhcHB7TZQ5cUXX6RULuD3+5mdncXn8/HII4/YiLnPf/7zqKpmhjJ37SebKeDx+FBVE//tcjltnL5uaFQqKiYrjUmMWVYrtwz+2wmA29FDC4KAzvrsMHNf1c6Flx0SpaqGW5Js289yxljgjKeffppEIlEneIhy7Ngxrl27xp49ezh95hQOh4PFxUXcbjfJZJL+/n4AhoaG7I5omQrWjArQ0tJio9csYMrq6uo6glFnnc56fn6enTt32tl7w8PD3Lx50+auu3r1Ko8//jjxeJxkMkkgYGZ7Bv0BKhUTDZhcSZKtJ8LcvHmTYDhUrx8RtoFOxUIBEdNRFgqFqJUrNDU12axHZn6Hial/9tlnOX36NJlMhnPnztnvwbLbG9+VJEnrPlXVFAAWcMkKz6mqitvnsaMZ+dWk7SMqFAo2H59VziuXy+F0OgkGgzYs2IpAFItFktk8gN3f0+k07e3tOJ1OwuEwuVzODhd6PKbpk06nqdVq7Nu3j4mJCVvbzefzZLNZ22RoamqytblIJGLb7blcjtXVVU6cOIGiKKY5B/z1X/81XV1dnDhxgkcffZTNm/soFEw/isUobZXdsyI3crQ1QG58CckT4sq1q7Q1x8lncxQrBWIRmVJhlfHRi2TSc6wuTeMTJfwOH7JsFpSQHR76t2zj0Ucf5dLlC1y8eJEdO3awa9cu8lcvE4qE8QcDxGJRO9T16KOPsry8jN/vp6srxsTEBIaSppyrUMwsMzFs5mLHwz5cooEnEDAfznIaenSGrwwxNDTEI488Qu/mnXz729/m5s2bfPnLJn462uRhbt4MTylUsai7G3oMKhoYGgF5LbPNgoyag1kCUaCqVE21XgBBqPPj1UHrhgGKbtqugmig6XWUmAQup4goSDhlGbVqsLo4vRZSUqq0hJyMjk5zcnaaUqXMSy+9xN69uxEEg3sOHaKYzXD14gVERUevVAj5A6ykctR0mLk5wp6duwgKMmfPvk57ezttrSGmp24QDIRpbzXTTQWjQjTiY3joMtu3b0dXKnhdMmq1RKzeuWamxpEkieZYBFmGtrZmajW1ToySo6Ozk1AoZHLeud1UqjVm5+bZf+ggxWoVhBoINURJpyniI51aZH5ynI7mGENDQ8RizbRGmqgVCiwsmElMsZYW21auCBolQyXs9ePxeBEFgVRWYXp6mlRylXvvOUKpUKQt0WoTZXzgiQ8SqVeo8oRdqIZKpVpD18EjOnAgoxs6mi6hGwKVTJ6mSJx0ehWvx0dzSxwRDbVWRhI1VKWEJGo0x5sIBrzkcnn8bhejQzdpbm5mZWWF5dlZOjs7cbjduCWTKCfkdZNaniQQCOLy6ERdXqpKhkiTl3g8zsWLJm6lp7fTjOu7TBq31dVVO2KytFrHGygqsttFV18v5WoVfzhEtVbG5XeDJFBSzOzWq5eucvnyZRKJBE9+9EnQVbq6uhgaGsJ1WuLHP/4xhw4d4mOf/DC5YoZwJGyzbfmCLubnpxEdBtHmELIsID/wwH2sLC9SLpdwSyYU1ON14XRIlMoFDh44zPzcnFkTsFbDH/DZQIudO3eyZccBMpkMb50+iSRJ/NZv/Rbp9CqpVJJ/8k/+CS+//DIAW7duYXJykq6uLv7bf/tvrK6usmPHDnwBkSeeeIL29g6eeuopnnnmGdra2ujq7GFmZob5/w9d/xlkWXred4K/4931N296U950tUF3Ayg0gG4QBEUrEpKoESXFzEpDaWJipIkN7WyElruf9tvuxMZ+2dhVzCfFyEtDEZRIAgIhwjWIBtBA+6rq8lnp3c3rj3f74T3nZDbEqY6Orsquyrr33Nc8z//5mwOhbX799S/xqZdfZX9/n+F4RLPd4v/z//3/8aVf+FWGwyHPPfccti1ij0bjsEL9qzn9/w5V9BOR4JJUwXuZ8BI/1xwUKbDiG3yiGsjznDyVxChKOrMCC8OQ8XCE44iSdWdnp/J1lzKR9DsIhB10pyVO+KOjI/rHxxwdHfHiiy/y7s/eEdWOqpHlAsgplX6u61bAWRiGYjwn58gK1c1f0nfH4zFjxO1imU71PUq0em1tDUWSuXfvPo7jsL6+ztHREbeeuwGSMPYoFWxJEvP+O+9w8eJF9vaEVqC8vRcXF3FnQjm4urrK6uo6x8fHRd8sQkhKoGs8HpNqMpIiC1Vcdkpvbg5FEhjE3Nwcjx49wvM8PvzwQ2F5nSS88eVfoFar4dRrkMcFHTkWbL9MQir6ZdM0aTZrbD/brQA7pJy9vT10Ra7ciubm5jg4OKpGbrpuIAFJErGzs4NlWRiWSb3ZoH98QhAKko84GNXqM8jzHNOwq1agbBv29vbEhTY3LyYhpsBtXNetdCq1msGjR08rK7ckSWh3mhWteDQa8b3vfY/NzU3eeOMNPvOZV9nfP8QyNB48eIDjODx69Ig8z/kH/+AfCG3HbFaRgkrMZzKZVK3GYDBA3d3ZZjIZ02036XXn8GdTZlNR2mmmyZ27H/LKK6+QxBk/+9m7DMfHrK2t8+KLz/M3/9bfxqx32dzc5OHD+9RqDhcurLG2tsyf/Mmf8L3vfZcXXnieO3fu8I1vfINGo8Hzzz/PZz/7We7cuYOmaaiqzJMnT/nJT97mO9/5DoEfQS4XWekef/fv/m7FxFJVQUsOw5heb4Ff/uVfZjjyuHr1Ki+//HJVSgZBUNFV/0t66Cd/nmafHPeV4+Q8y8iKAM3ya+n5g6NQoSnISPmZM40siUMnibPK9UWS5knTjDhOGA5HFYKbZSlBrlZjnF6vJ3q04+OKqmuYQpCiaVoFQo1GI/b2dgoRjkIch4ShTxyHRJHoyYMs4OhYKOKiKGQ8Foj84uKFSlSUkzI4ndDtdhmPx/T7A0xboNLvvfceDx8+pFarceXKFZIkYePiBfI8p396jOd5+IELecxGYwM/DHB9T9CSbUG3tmsOSZbi+h6duS4LC0siuCTwQZbwAh/fjVldXRXW4Ug0Gg6H+8d87WtfEw7VaUar1eL5F18QI0ZF5ujoiKkr2sKjk71CfyAAXkOP8AogTdfNKube94W+wQ9EDmQmi0PHajgVQascDYJwTBoMRBXZarWqUI2MnNOBGC17flBNK0qNfcn5d12/0DzUefToCQAHBwfcvXuX+fl5DMNiZ2enCgft94958uQJGxsbYmoUekgjsTbv3r3L8bEww/nqV79aSMJPaLeb7G5vA/DBBx/w4Ycf8vrrr1eeBYPBgKdPn1YAZplB4bouw+FQUIFv3brJ/v4ueztbHB8foqsylmWiG1qhmpL5xje+zvLyCkkSMRj2+b3f+z3+8m/9Fj/4wQ/w4i1M0+Tv/N3/mlqtxt7+Drdu3eLXf+NX+da3voVlWbz55pscHh4yHA45PT1lcXGRv/E3/gabm5s83X7Id7//A46OjkhziWs3n6t6V1nTQVFpdrp0u10cu847733A8fExCwsLvPTSS7zxxmfpdDoiQaW4BUsktySs/O9tfnEAFD09ZU9/pvorXX6y/MxaKjt/WPzc2LD8/lVkdJIzm3ocHtypZrCT8QxV0bly+YJA6WOBMsuyzAcffESn00IpXmN5E4RhiFeIVSQpZzg8JfJFSYiSkoQBaRSSRiH+zCUOBPjlz6ZYllNEoQcoTg3SlNHpKScnJwyHQzpzK6yurpMkz7DttFJavv/hB4zHY9bW1tjYWOPf//t/X/kUnJyc8OKLL7L55DGXLl+odPKz2UwAVo6wvxZORHmF3nc6cxUGUYqGSqdbGUGmSjNodzu057qsr69XFtovvfQShm0VKkYXu17DdhzUoVqMz0xsuwa5TOAFhbovYWvzWdHfT9jafsZ4MMS2TSQ5F5XjK69UGRYiwUrG8wQYqFsmdr2GoovZ+2g0qaqdVkuo65xaDVUzGE9mZJk4rIIoJgxn5BI829oiimOQZPqDUwajIcurKzTbLRqNBkcnJ+zv71Kv1zFNExBchEazhm3bvPXWW8iyxOc//3mef/55Tk5OGI2EJ+dgMKjyIv7jf/yP/Pqv/3qFe5QuUB9++CEAtVoNSRJO3IPBgH6/z97eHurTzYcs9NocH+7izqbYrTamoRFFATVLOOo4Tp0sS0ESN869+3cxbQGk3L//Maqq8uUvf5nLlzc4ONhhPB7S63VZXl7mX/zLf8be3h5hIErEP/uzP+MXf/ErjMcTHjx4wOL6PH4Y0Wx3WFtb49ZzL3DlyhV2d3f5xje+yWA45vr16/zRH3+dhw8fceXKFf67//6/59mzZ7zxpS9hqHYhqnErhlZ5kv+8zPTnf0iSRIr0iX/Ob+r03GYXG7+oDvL/UiV4VkWIRB1JUpBllUuXrnDv3j0URUOWM8ZjAQROJjPu3v2Yz/3Cl8jzHMswOTw8FOYPhZNur9djGIpR4XQ0JolDbNsUt46uYNkGp5M+aaZRWn+HkUuSaAWqLhc3lKgScmJOByeV8s2yLA4ODqqF1Gq1ePDgEZ1Oi0atDlnKjWtX2d3d5cMP3mN3Z4ujoyNR6W2s8vjRfZZXl3j85Iko602T8XiMpkfUGnXSPMNyBLnldDjg+ORUkJQKRxsAVRcgpGma2KbJUb9Pu9FkZW0VGQl5MsH1PN794H3SPGN1dZUbdWGesrOzw87uDllGYWlvEHghg9NhMbNXGPRPiSIhZkrjCM+b4QdCoVdKd2VZ5vbt20wmk8pxJwh8NjY2OD4+xjRNRtMJmmownnqYdg3dtFG8gHrNKSLZRcKUZYn2yvM8kjjj+PiY5eXlyoyl2xVRXVEUEMdGpT0oqztZlplfmKNWq/HkyRMcx648H0WFsMbcXIe9vT2yLOPKhQ3+yT/5J/z1v/ZX+cY3voHvznCnE+Z7Pb7z4Qfcv3e3Eh+ZplmxEsVoEtT/9PU/4ZVXXqFRt7F1FdPQiMOImTvB1FU63RbkIqO81mhwciqCKe4//JgwjFm/dJE8z/npz37McNRnbq6HH0wJAo+bN6+zvPw/cP/+Q37w5g/Z2Njg8PCIr371qzx79oxf+qVfQrEFs3BxcRHXdXnw4BFHJ33COGFldY2XX3mV5eVl/qf/802ePn3GT37yE65dv8m16zer/rXciCWtEs7knD+/Qf/LSkAmz0FC4gwNyCtjyrLUrzZ7SQw6y6Y6k6xmOXmaCUZaLiOj0B+cMvN8/DASJhuWAIjW1tZw/aAaEd24dp0vfOELeN6Mg7097t35CEnOC8rvEF+T0VQLyLBtsVmEiiwgy8RkQSt8/cVBLZhpQeAVI64Zcdzk9PSEMAyp1+usra1xfBxUc3Xf9wsbb7E5LcvCsg3e/MH3gJwoCpHkjHazzsHeFoYmQlXG4zFLS0vcunWLer1Olp1Fy2dZVolZZlOvUhOWxJsoiggiMTqzLIuTyZSn/VMePXrE3bt3met02djY4HQ4EGX5cEi9Xued999ja2uLLPEqARCZRBjG+J743nJB5jIMA2HemFGv11lcmqfXEzP5d+/dx3VdNjc3C/XciAsX1un3j2k220RRyNzcHK7rsrzU4d69e0XaT4imGZimge8PK1FUnhfR4G5Q2bwL7/69KiQkDMNKANRud5HynDSOCX0fVYZLGxcYDoc8uPcxX/jC54mDkHajiSTn3P3oIyRJYmFhAatW47333qsESk+fPkWWxV7d3t7mgw8+4ODgoNI+lKSj4XBYaDFaqJ///Oeo1Wx2dzZFBHQKqibm2kdHwon0U596hTCICeKEK9cuc/O565z0BwSBzzf+0x+xtLTEeDzlrR/9Oasr67TbbW7f/hzXrt7Asizee+8D/q//t/8LpmHjOLWK9tjpzCFbCr7vc3R0gizLXLp4ueI7X7p4GU0zqNeFXPX551/k4sXL6LpZzHxV0oKIYVkWk4noZ0sRx89Tev+in+fV5v6kLEiSzstUC+/7c04/5w+Vqj3IUuL4jCee5zkrKytilDaZEWQhzUaLJE7J0pzPfPqzPNvfrfT38/PzyLJczdiDICBP02rMpsqSyItXIEsiJpMRkpyT5Qk5kvh6JlJ6JUmIbFBBlWSC0KtuODEqyzk6OiCOnYrO22g0WFtbYzabMB6eMtfp0D86ZnBygmVoTMenJGHI0eEu41GfRqPB482ngqKrqTT294pSU6E/HNAfDjAshzCO6fZ6tDo5sqoSpQmSqhD4HrUCpIyiiH5hn12Sl7Is4+TkhOvXr2PaVsWVn0wmPHr0SJi7tOqidUtT0lRoGdrtNookV9yCuU6HMAwIAo+l5QW67RZB6LP59Al+QZy6f+8OpmkKklX/GM91qdkmhqFhmgZpmuD5M4GvBBGNRqvwUowZDsakSU6r2cSx6wWrUbgK2bZNluXV1KvMvJifn6fRaHB4eMzFixfJ8xTXnVZZAsfHx6ytrWLbNgsLC+zt73BycsKVK1eq5KjZbMajB/f5whe+wIMHDzg9PeXv//2/z5tvvoksyzx69Khqg88bmp73eVTHoz5RaGHpGu12i92dHXzXQyo03JcuXWI4PKUzt8jGwhLbO7tEcUycpbz1kx8jKRl3735EtyvUfXt7ezx383m++tW/Qr/fJ89z/vN//lOef/55Xnj+JSaTKXNzc9TrzQL8GLG0tIR/csLR0XElVkmRqLfaxS0skyYi+bQzN8fTzS0uX77E1PWxFKUAbmB7e5tGo1H1jSXF8i8q26tNXCyULM/JM+Eic37On+fC7loYfZcb/1zEdS4VrjRCHhwlccVAy7KMhw8eVUadL7/8Mrpp8f3vf59HT55y+/Ztbt26JeivkSDDnJ6eUiuCPfr9PrZpEichuq5iGWYVu2YYBeW0mIlXacV5Sp5JpHmK74q/V1dVYY5DRppEOHYDQ1eZTac0W112d3eF09Jrt/GmMyJf9MT37t3hJz/+EYsLPZYWRfioaelsbz6tzEKG3rB6Dw8ePKh6/eFQELyev/UiQRAUDkJOVSqXmIE6GlU0V991mZ/rVbTgUr34ZPOpmGKMx7z66U+ztSumKRsbG7jjQTHrV8nzSAjCCu5HGIYoksTx8RFxHLK6tszq8hLjyYiHD4Wt3eOtPQHyzbU5OtzHcRx+8OY+L7/yCt1um9lswnR8ilMXhCwRiTcogjeHnA7HnI6GooWp17Dr4oJL8pzSecANfJI8Y3ltlSRJ2N/fFxqANKHRqKGqMpubWxXhamdnh4ODfdbW1oS3gD9D13XW1tYKTcIpk8kI13UZDERl9MMf/pDXX38dy7J45513uHfvnmjHNA3TNCvik6gUtYr+rHqeh+vOqNdrWKaJpsgcTUa0qhwzj+XlFaIkYvPZMxRN4/79+1y7+RwvvvAp7nz8HpIk8dxzzxXqJmGi8Oabb/LnP3gLx3EYjUZ89NFHXL1ynSwTDC9V1SvXmnJE9i/+xb/g937v95AkQaX8/ve/zxc+/3rFW7Ysh9FowuLiItPprJrfl4vRtm0mkwmNhnDO6fV6In8vy6pNXwKE5Z9N84LIo8jIkvCIy/OcNMvIixm/IstkWUJcmHaUixMpw5v6lXgkSSJswwBFrUQh5bz3+PiYbm+eYDDEcRy63S6+73OwLazB8yxjMhkzm01YnBexUscnh0RBUAGLWZ5Qq9nCsir0CaMQq1Zq5qcFucWsbj7dULEtu+Cma9WzEYo4T9B47YilpSWWV5Z48vAR0+mYi5c2eOenbzOdjGnUbRbmesgKXLlyiSSJePG5m/zhH34NTVVpaBah5xcApcTIdnjp+ZeYTCYM+6ecFnbmpq6TRjEKEkkUizFXo0kOPHnyhMX5BXzf591336VVb1TU79AP+NSLL9Fst0SkVXEwl+vK1sVi9ryAJIrJ88KNOIyJw5A0FezDuW6bW8/dwDB1nn34jPv372FZBku9OZIkZq7ZwrEsTEuI3h4//BjfmzI/v8iVK5f48MM7ZEnEhfVVTk5OePjwIYZhcOHiMpubz6jV6nQ6XfI859mzLRzHqaLu19bWWF9fr4xSVlZW2Nvb4+bNm1xeF7TqOBQsPd9zMQ2dJI4xdJ0kDs+pA1NMXeNgb8gf/sHXyPOcT730Av/23/wrJDI+eP9d3n/vncJwxiNLY2RJZTYdV+s/DLyqGpBlGTVPhNmjoet0Oi3icIW0mOkGflSUhC6TWUC7M0ez1eXOx/d5tLkt+NhyTrvdZTSaEAQhFy9cpV6vVyDTs2fbLC+vVlLSl168xdf+8I/51re+xf/4P/4f8U4CVlZWmI0nIm0nzWg3BAX5zgcfoqDwN/+rr7J/NCRPY+IgpFmrV/TIYf+ExcVFtre3q9DMMoXn/fffr2yua7VaVWqWnm6KopCk+c9VB5m4z4uZe5JEldJLKuKAJDLyTNBF6zUb8hRZylFUqVBbnam26g2B5qa5YAb2ej3WNja4e/djDo/7rKyu8OTJE0bDIfPzIjOuWXfY3dnCMHTG4yGuO0WVwNBVkkS8dk0Rvvqlw0vJeCvbjyzLIJcr+bBA6tWqRy1LwJP+MZqmsLI0z2QyQdMV9nd3KuXd0f4B9YZDGkeoskSWirn74b4wMQ21vBLUyLJcsdRK5l23263K+ShKiri1rNJ0RF5CFIScHB0xGY2ZjsbkceHTn+WV7HlnZ4ft7W1000A3DKJIfC7uZFgArqVHv1KEkQpMpNVqcuniBpcuXSDLEv7gD/6AZ8+esrK0wKVLl/jVX/l13n33XWRN5vT0FKSMT3/xNWQFfvLTd+h2Wmw+eUiahBiahuvOaDVqbG094+aNWyiyxoWNS8K4pj8UDMGZz87OTlXR2bZdHVilXHh+vsdkMq6ivtrtNlEsNAr7+/sAHB7u47rTwqV5SJqm7O3t8cEHH1SGJ48ePaqi4UoKc3kBSJJUiY/K9X7+2ed5jlr+5iiKkBE683a7LU4ISWV3d49GqyPGcDWRKe4GIZ4fYhgm47GIDmvUWzQbQil39+49Dg+O+fKXv8JnP/s5rl+/SeBH7O3tMTfX46WXXiKKInZ2ttg9PuSf/tN/yuuvv84//sf/GFVV+cEPvk+WwUcffcT29jaf+cxnKvKIZQt3mtJGaWNjmcFAKMs6nU6RuipIHn/yJ3/CdDrlxo0bvPrqq2xsbFT9T3mrnikBxIOTJZk8TwsMICOJYmRJqAJLVEDKE9K42GiS8JMr7a8ns2IebDnIsnCGlZBZWFhAllVanQ6O47C1tcWVK1cwLF0QPYZDTk/7yDJsbGwwHPTZ2npWLWzys6itnJRMVkjTuPD2B0VW0eTivWU5pIKs5RUCF10zyJWMNDrztJNllTB0SSKJ4eiUnZ0t6vU6B/t7NJtNTg4PcGyTZqOGZhh02m3qdYfxYEizXsfQNGZRROD7pEJZRhxFTEbjIhGozaULFytijBt5RGFYvY8gCBj6LtPxmJ3J5OwAyDL6xycc7R8ILKfQ82dZhqaoKLKMIstoqsoLL7xUkZ3iWGjdhfeg0PFnSYqiCo+L45MDdp5tsrw4z2uv3cayLN5/52e4rqD+drotbty4ztQd8fTpU567fon7D+7TqtfY2j1gdWWDmmOxsrzE8HTEtauXebT5DNM8s/daW1uj2+2yt7dXUXRd12V/fx/Xdel0OqiqUkiedTzfJctTTMvAL25n3/eZm+twfHzM5uYmr7/+BY6OjpAkid3dXe7e+4iNjQ1M0+SjDz6kjGE7L1MHKn1DqZE4b5xS/lq1ikip8uRWCxRRUw1URce2HRTNwPNDMjw2Ll2mt7TKbOaSSwp72zuMRiNO+0I00ZtbZG31IopscPXq9Sr48Mrla2iaxsHBPs1mi1dffVWk27gzbly/hqYqfPc736bTEeEXDx8+pNNqYxgG3/iTP+arX/0qqizTrDc4OjpifX2Z4XDK++/fZXt7m5s3b3LzxgV2doWqbXFxkTfeeIPvfve7lV77zGji7BTUTeuc2q/s7TPRU0sZspIj5zlkKXmakiUxcWEgEYQeoSvSkJqdtvCHPzklyVLqzTZpmlOvOyiKhiTLZJJEv3/M0VGOHwZMZmO6hpDhxlFUhIGM2NraYn9//5z4KEeScrIsJc0K000lq8ZO5Y1fMjQVRUOSBCeeXCKOEtIkK1oXvXBIMoUAaCbwnp2dZ5ycnBAGPuPxkG6riWFqwlik1RaknzRDV3SiMCQOY5IowWzMQZaTJSloOb7rcbgvvO8UReGP/+MfVdLWyWRWqTLLhe6mEWQ509FYvIc0RUoysjhBKyoWVVbodrvouo6sKnihEFg5jsNgMKgAX88LmI7GeJ4HFKNBVWY0GmBZBnOdNlevXuX6jcvYts3W1ibuYIRhGVy9epX19VU2tzd5/Pgh4+mE2XTIF774Bls7u5wcHPBXf+uryFLGh++/x8b6JdzpjO3dnUpwNRwOWV5do9FqU282MG2Rbu15MyRZxnYcLl+9TBAEHBwdCrDXFK3o6ekp4/GYMAwZDPrFiP0+WZZwUMSCARyfHFbvLwgCSFOkPEfKMvK/4BCQS5p7JiLsgOrPyJIk5MCyLDMejhgMRjimRZ5JyJqMrhtiMSka9YZBjsyTx5u4vs/1m7f4K3/lr/H2j96uEEmRPCLzxS9+AcuyqNVqdDs97t+/z/vvv8/GxgYbGxvIssydO3f48Y9/xONnj/nNv/xVrl25yh/8wR8wHo7EzPPR44o1uL21i6HpjIsHbZsG/eMhmiZy2Pb29lBVlcMj8QC73a4wqFhZ4Xd/93er6qGUzZZIqCRJpGl8VgOUG52UrHiopqkJHXkU4npTIl+gySWNM4oyBqcj4jgkSSKOjo+ZuS6meUQYC2/8+cUlyGVUQ2jE5xcWuHLlCg8fPmR3d5fBYIChq9TrwprdNoXOIooi4sjD9300RUJTyiQdQfeVCqfa2cwrxmpZFS+eF6MxYRyRVWSZMrlW1000TadZF5hIEHo4NYskCej1uoJSjMR3/uzbPP/Cc8x355BW19EUFQmFlQWhQ59KKqqiEmUBeZLiuh6729sVNTgtMgSFMk8o7CoUOo5RVBnbNtEkGTJRvYR+wPLiEtFKwOHhIVmScLC3J0pdz8P1vUpqPCtAUUVRUFA+Ud3laUYcCfDYNk0WFnpsXFgjiiIePPiYOI6Z7zT51Kc+hW2bPH78gP6gz0Kvg6krvPfhB/R6c3z607dpN5t8fO9D1teuoKsyMjn7u9vkmXCBWl9fr3IIfN+nXm9WYbClR6Dv+2iawGK2trbEa60LD4HJaEyWphwWJiqmbtButghDn/3dPYbDYRUDLyOx/UyEgRpFCnHpqVCu4/KSKyv885T4siVQVRU1DCIsU6ibZrMZeVL2B4LPvriwytbuHkEY0ZtfRlFUPvuZz2HV6jx5soll1thYv8Ta2hqtZkcw8OKM5UurmAUx5LOf/SyDwYCPP/6YO3fuVNHEWZbR63R5/PA+y4vzdNvC8urpo8dsPX3KrRs3uHrpMou9eWQyhoMh4/GUixcv8sd//MdcuXKFy1evc/v2bRzH4Y/+6I+qGOydnR2++MUv8iu/8iuVRPa8p105HaBg+clFEkUmAalElmfkeUoSZcRhyGQyYjg8ZTad4nkiSms2m9FsdEjSANebkpMyGg04HQ7IUgjimCtXrxPHYvF36jVc360y345Pjwk9MWee73UZjQRTcmVpoXKnFZZVBroqoSoSWR59gvsgSYIfX9pyKbL4V/R8GlkWVDN5y3IqRZzniYMlV6hixmu1Gl4UcXFjjX6/L7gcz13n0salQg2nsfNsh3t37olAEUVF73RRVRVTNzANU1QCWU4SxaRSIvpzScIyTRRZq1iDZUkfyTmKLKMXwGmapnizGTLCxGOhNy8W/2Ra+CJKtJutquVqdVuoklyg3YLsYhgGqiwqIMs2gIw49FBVueDAH2OZBi++8DyK72PpCpuPH3J4sMsXvvgaRyeHKHLGV778Om+++V0uXbzI2uoib7/9PlKqsNCbE2BalDKZCPC10WjQ6XQ4OjzB9aYF0BYzHA5ZWOhVsXD9fr+ycOt0Omgo1Yy+vFhKtWOtZqOqQhcxcwV3P4oiFEVhOBziui4Lc3PVXjozpz07AMqy//wlVx4AaZqixlFEu9XCMExm4zEBQgknI2bajx49IogTLly8ws3nXiTJcuYWFpFllfFkgobBZDJjOBzzi7/4l4q/OEbXDXTdYH5+gTQVDihvvPEGOzs7RFFEp9NhcXGRa9cvkSQJ3//+D/j93/99PvOZz7Cw2OOFF14gjmMePXpY+Zn5vs/jxw9J07jiODfbgsfueR7vvfcee3t7FdFka2uruokcxzmj6KbpmSOKKhc2UzKSLG6gJE1Ik6iYCQ/xvBnDQZ/T074w9YzDylTCNBxkJHzfJQg8gkBkxYdBTErO8ckhp8MBeS6haJqI/sqOcQOf119/nScPn1Redaurqxwc7IlcuOEptm1CLlxxdFVClgQomWWFzVUqSvs8A3KpuvXzPEdRtKo0lmUVTTOq9ifwy/euMvJOKx++PEvIc0EyiYKQJIq5euUKs/GMe3fucu/OXQLXw3c9NjY2qNfrbJ0O0AwDu9h4aRxj6QYKAnQKgqi6oSVJLOykAAIlSSJVwA0CbNMiT1Icy0afU6jZDrqqYVkWi/MLBa4iKhi7Jj5L1/fRDLVok86AQHG6iBwA13WZjoaF7bZLlkfMddtcvXqF1dVVOqrMw4cPsAyNG9evUnds9vYiXn35RYaTKfNzPf7oD7/Gi596lde/+GU+vveY45N7rK9dZDSa8PHmPuvr63zwwYfoulb16q43ZWlpqWAJikNiY2OjMhctvQqSPOfg4IDxeMjR0RGDwYDj42NOT0/xvJkAyGczwsivNnUpiS41COX7LmX8JQel3ORlO1SCxOXhm+c5aql1ns1mzMYTsixH11UM3QBZoVFvsbm1S6vV4pVXXuHdD+4U9EibpeVVFtpLLC4s43leJWwoDRQliUqYU+bXLSwsVEYXwo1I5KP/6i//JaIg5OjoiCtXrvD3f/fv8Y1vfJPdnR3G4zG3b99GVTSODg7xXY8L62vYtlX54F+6dIlf+7Vf4+tf/zqGYfCVr3yFS5cuVcYRJQJaotBlXt1g0K/YU6osbMCTJCGJQ9I05uBgD88VIONoNCSOgupBpmmMHwhFXuiJmzmXFIyChadoQkGHpHBwfMRHH33Ec8+/wIsvvsjdj++LOOlarTrgxuMRwnHnIkemzubmYzRVJk58pFxH18TNKUkSiiwByifIHaUWPs+lagphmjaSJFU9eRJnlSdBrVZj+cJCdeucHB0XpaQIMi3dhba2ttjb2WWuLWTGgrduc3R0QsIZuaq01CKXq1l+HJ9FbIn2M60yEBRFQTV0oiDEUnUCz8fWDTRFMBozWakA39IEwwt8goIzMZvNkLQz9L+cgCRJQp5mIGVi8/hTOgVGo6hidHbt2lUGgwEffvA+n/vc5zg8PuD3f//f8Jt/9bfYWF9lcWGBvb09LNvhS7/wOl//xp/RqM+xsrrBaX9cUIgFRtFsNrl//z5XrlxGVVXm5ubYfDYrfB8NHj16RByLSu/Z1mblgOQ4DtOTAXfu3Kmqk/X19UIpOCWONU5OBEEuzdLKCKX0fUjThGlxeZRuTWWORjXlKtqCcm2Um7/8uvT//l//77k7cbEtiz/71rfpH52gqwaWZpFEKUmScjqY8Jnbr/Hyq69y7/5Drly7yquf/iyXr11F1cW46O23f8xrX3yNR48e8vH9uyIZ9XOfQVV1fC8kyTJURUfTLEzD5tmzLS5duoS/d0gYxswvLPDwyWPCOOL6zRsMx5Nqo96//7DKSfuzP/0W169e4+bNW2KBqWIDNOt1XNflyaOnkGZsrF0Q0VmeKIFVTSeTIE7E94yK+XAS+fzs7Z/wyku3WFtaYH/rMQvdJvc+eA9DgcGgTxgETGceMy8gyjJySUWSVXJZojW3RpJk1clr2zZPnz6l2WhV1tHC0DGtbLDEjSgAtqdHW8LeqyUmL8cnR0RRxGg0KEw0tSJoUirajglx0c50Oh0c0yKJs4rokaYpWnHwOI4IstA1s2BXFmV/fl6wJBZUmWNXq9XQNI0XX3yxmrSU760MISnxE1FNxRWgWk4Xyo1e6jLKwM1y0ZUHrgAplcqZNwj9qsQVJb58brT1ye9flrq6ouNHMfVag1ySmYxnVVLP4cEenZbD0dE2jilx68ZFXn35BotzLbzpgDByWdu4jef63P34Cd/7/lv89m//LZ5ubfP8i7cYz0YkaYCmw9HxHnc++BBNUfmN3/gqH390n3v37uOqTZ5//nlG4ym1WoPD4yOyFOqFP+CTh4+4fu0qly9fxtY0fG+G7wothjebMTGEeCcOYtzRjDTOkJHxpjNOTwYAzGYToiRGNTSRtxh6hIkw7pHkiFJmnaZChSpyT4rSP5OKz0KM+1VFIsuSKt9Q3d3aJcsyvMKFRNd1ZIqwhiQgzxNkGeoNBxBS0OZJi8dPHnL33kcs9NZ5/Y0v0q7N8cHP7vDDH/6A73732ximxtHeMWtra9y+/RqSpOAFCe7IQ29bdBpzHO70WW/Nkec54/GUKMxRNYvQS3HMOkEUiY0yt8Sdj+7TbbX58pd+SbgUywqBH6LqAiwL/QBNUVnszUEmoUgwGgwL950CTZcVyEVkl0KOJiuEcYShKXiey2hwyulpnzzyhGAmjZhNhaOL74dEUUyC0AfkpGTI1YMsST/DodDCN1sNGo0Go+GY2WwmorOKTVDiEIahEXo+g5M+3Vabk/4xQRDw4MHHLC8usbG2jufPGI+HTKcegeejqDJGrVbx9suS7rynfhQlRV+qUOrOJ5MJo9G42mBK4f0gZwmWYdAtWJel972pCRdcXdeRshxVkgW3PklJ87NeMoqCs6pEUVCVogxXRLsRB0KhmRQOROL/Caq1JBUU7DQViLQk/pwkSZBmJGkiOBlZRpaJsjY7x+bMsqyK9oqTiCwVtOij4wNqtsXFS+vsbD1hcX6eF29d4bnrFzDUhP7xMbalcvP6c4SpRqtrkWWPqslOo1ETYJ7rEiYuV69d4HB/m1//9V/j7R+/zbe/9af81m/9NdI44dHxmIPDXSzLYvPZQwzD5MbNW8xmM8E/+dRzdLtdWm0bx7JxfJ3pRKbRtJDlBQYEdJotJpMZj+49ZDycYOoG/kxIdgWRLCDJUuIsQVJk4jQW2oE8w3aUTzBXZVkuMhBFVZTnnwT/Uqi+Jssy6oP7wgBClTWyWAgo0ihGqcmVymljfZ048Hn/vXeIfJ/jo3329naEkWOrz1vffYur1y6jqjJ1xeF3fvN3CJKApfYy/9s//32iacbCwiIXNi4hhzLjozGtVoemIfPg/iPSNGU0HotRzMUFDo8nnPYF4DEYDJBlmXd+/A7tdpvP/g+3qVk6cZTRmnM49o+Rs5Q8TTB0g26rhVo49wgfAeGFJqGQ5BlxkhAVN5rnTkjjEF1TcMcjjkNXmKMMFbzZlMCbkcRiAcdx6S0gU0ZS5+R4M1GpKBJ0Wg0ODw9R5QzShNBzkfIE3xV2Xa7rMjztI8sC+Dk6qDFLQ/b3dlmY79FutpjrtDnc3yMIPYLQIA4jfNfDnc2IkxBLFo61QncQgW4TBsKgQpZlTF1o8RVJ+BR02x2CIEICdFWAn9WkIBfYguM4VVZAWUp2u92qnPz5m/082lx+vbJIK3rL8nAqS/8SByjxhrICCIK46lfL33O+TC2j3NLszOf/fAUwHc/otNtEcYwXhbTrDrqGuGUnfRxb4bXPvczLL9yEzGd0eihwhcUepmFzdDShUW+SIfIbgiDg8ePHPNl8zEn/kOs3LvHsaYJlaiwtzvPa7U/zox/+hJ/99Ed85tOvEn14lzsf32N97QK2kXFw/AykkOduvcDVqxerg1pRMyQ1RjFTjERG02q0Gk0YCWZo6EcoiqCelwelZRn4vqgQkCXiLBFENbmIMo9i8lwt2KsUUwgoHa2lc05Y1edSjJQlSUJRJdTJaIqUy8TBSMgvcwijWNxzWYJETqPRoNWs4/khtZpNvdliWNhAx+MZjmMzOT4lCATSeTro8/Krn+J4a5fcjfmDf/lvmEymfOmNr3D79mtcv3aDYDTl5OQEd+aztLREp9slCAJ+9KP3efDoIbquc/v2bZ48ekzNtrh18wYykIYBJ6MRYRDQarXIpEBQdeMAL/BI4wyt2GBaLhHNpoQF+q9qGqYqISkqoKHJOQdHI2xdJXQnRG5K6M7IJHGTBIFXiExSkiQjRSJHEopAWUbOZbI0rDaCaSj4rtCUp0lAUIB1QRDgexPcmVuVypIkcaqq+IWnoO/NuH7tCkdHRyzMz/HRRx/hzaZV1LZhaqgRAqQMQ/IkRTME7XcymVSocikkKsNKS5ZgSbtWFa0KAc2yDLXYTFEQ4s1cAlkcJnWnJrgQZaJusfGyYrRU3jaqqlQbPs8yknMTCqAi7SgFSHWGUxQMzOLvyHNh4V3+njRNkcgEPVuSKGQa5zQcEjk57WYLGQldUcHSUJUUU8sxmibNusq1l1/myuVVksTDm5yiKBILc/O0my3cyZRao8V0Nit8AMfMfI+d3S0uXr7Iyy+/hFPTIY+4ef0q3mzE6soSr77yEv/qn/8rgumUKy8/j6aFfPzxA1wvoN1sMRrto6rXGY+PkFURgTaZiRATilbGsSwkTeAVhwcjBieCC5KlKePJkDAU9t1BcISqash5RhwmBVntLPlIHMblr3NR7WZShYko0lnLlKYpGRmKcpafoDZrdSxVJ8kjHMsm8SNSVYxyRK+Xc/fOR7zw/C2uX7/G3Y8/RlclLq2v8O7777HurPO3/upf5/d///dZW1/h//QPfpdvfPM/AfC1r32NKE3wPdFH/uDbX+fZo7v81m/9FRqNJqZpsrTSIwiE0OPR48fM9To8f+sKh4eHjMcHbD7+CNu2+Ju/8zsYqoacR6h6giblmGqEWpB8kjAhimI0RUJRgDQpCDMKSpogKRIaCrKUQQ6ZBKqUYUo5hpIRJRmx76PJElkcIQOaquJFEXGSECYpaSYLy69chsJ9VlHA9yOhr1Zk+qdHIrhT6qJqMBieEvhRMcLKyPPCjVUVN204dYUdtgQnhwc8+Phjjo8PmQwHNBwbq65hGRpZphAVm7Ds3y3LIvZDpEz0wrZhU3ecCuzL85w4igEZtRgHZUmMW0hx8zwnKwxHSsdZ0XPOqpHcX3Trlrd1CfxVB0C56cu5fCHUOv/7y8qgwhVk/dz3z6oqoawUSiprydc4U1+K17O+tCb8DHQFU5U4OtpF0yVeffVTvPTic5i6wmw65ORgyKX1dbqtJoE7Iw5idN1CMi2GoymKJhOlCaZpoGoay8vLLCy2mU5OubixRrNeYzYd444HLM93+Wu/9Zt8/U/+E5Hm88Ybb6ArCd/7wZ9jW01kReboaBMvGJIWj88LA/zZFEmSqDccbNvmaKDQ6VwkKXITlILeHUY+k8mMKBDrSjPOAL6MHDWTyTJxGWRZYWafy+S50LIIXPYv9sIoSW+yUrQAtmaSpzm6pAi1maqSmyZREKBIOZoiFZxyl4P9XQ4Pdgk3YzRD5+mTJ4TOIR+8v8ali20ePHiH7/yZxPXLG6xurHP7szd56623uP/wAb4netMkHvP44c8qbXRi2uzv77O8vEy92aDRmqPRzBiOfDodmd/9e7/NH/7B77P97D1azSatmsPS/ALf/s/f5Xvf/w7/3T8U9OGwKLXmOl1MTWM8nuDNREkbRCGGbqHiiP49z0nJSYOAOPAI/Rk1y2TixuiaSpD4JHFEoyESi7JcQk4lchnS87chOWHgkcQRSewzmw7RVJkw8BgOTqqRW8mTlyWJKIkgV1AViTRJkMiYTccMByZ7u9vigw5Dmo0aigyWYSLlEBYYgmEYGIZOnoobM40zmnUBONq2TZakpPEZ0YPqds6FUWaakiYJ5DmqoqBaFmmSiFl8yY8obhndNPEL1lm5+eTi5peKakBVZaGUlCDNCg5JmomwDiUr7JQorm9x02dpShon4v0rCpJS3FBZcvbaitcuF0EsUjHXPw8CZlnGaDgkTSJURWPmTtA1idu3X+G126+QE7O/t41jm3RaDovzHUzdIHA9VEUcPKfTKUmWIWuiLfECn2argarKPH74CNtRSLMeM3eClCdYpoE3dbl54wqa8hu89cH3eesH3+Fzr30BTZX42fvvk0oShwdb+MEMzw9RdY0oTSrHoSCpY/mitbG0Hrqm4lgmk2J06jgO04nLcV+soSQrCD1ZUtjTZeQS6LpJlpZVUclmlcXzOlf6n780KFqD8oca+hGBJ7LCDM1E10wsXaJfJMmUFt+2qfNk8wkyOZPxKZ7n0ag7WGbEmz/4Y/7RP/pHRPEJ3//zP+aXzF9iNN2m0erw3PPrbFzsEkUxp4MR3/zmN/n6N/514ZXf5a/9N/8tR0ePODh+QG/xRVbX6iwtdWi2wLZV3v3Zm9hOSODvsz/d5uPTPvO9HuPRIa/dvsbu1hPh4OJ6JFFMNJuhKSrjwbDqX+M4pt5q0i2ScFVdQ1UVDEXi+GCH/uEB3SuXIc+QKbgAScLa6irHRZBCKQgil8kKklSaZ2SxWxCJMtI4pNdtMjgdMR0NmUwmdDod8jRGkgQo5hW3QFJQsFF1vOmMwyRGlmU6nQ6dZgNvOqniocoDpCzdSzVXnuciv6Fwk0nTnDiMq40SFaSu89MBRRHEHHFJ5NU8uczuAz4h2Dnf45dU6pJdJjgWWnXDlwuunApIklQFl5wnoJTfSwBWZ382T7KqrC0Zj+c3/c9v/izLODk8ol53yJScVqPGredf4XOvvYyu5zx48IQ8C1hdXhcHpizjeQEgoxk2k9GIuMgQPOn38YOAd955B9u2sW0by17GNAR9u3P5ImESUbNMTg+Pefb4Ga+88gqdJYt//W//LWQ5L73yKlN3xslwyGF/yOB0hGabyIpGJgmBmaTITGYQRL4g9JwKj/7p1GU0GBTVcl48g5LJmZCWNzp5JXNXNJUw8ivad5YJ3xNhr6Z8onWrWq9MHCBl2q0a+wG+69Ks13Esi9Bx0Aqv+PPBCLYtysssSWg3m4XJQkgUHZDkMj977y2uPHeBzmKDIHEJJi4fP75Ht9ul0Wjw8OFjdvf22N57TKPZottdYnNzk3/zb/9XVlcFa/DB/fc5He7y8ssvc2FtjadPdhkODlhe7nB6uosqQaNhY5kZrZbOc9dvMJzU6PV6eK7LyckJ3mRY9LPCEbfZbBJIKSopaTRjEgpUPy7Ycwe7O5wcH3PjyiVKP3/xL3S6PaIoIc0l0sIkOM1T4iQjjMVC1VSxWMMwxHVnLC+vCLsuyyBNnWLBpgUimxPHwi1W11XyPCXPkmJc6bG4uMjhwQG6YbC3t8fFixc5PjgklyV6vV6F6IdhSJwmqLqGY9Yr550oCqtJTrmhbds+O+1VkZNQUlSj6CzY0ywOJFmWqwALz/Oqg094EBjVYeF5XoU/nGdXlnyE8zjBefXZebBPRLZJlfJQksXhUx4YkFeHEmSfuNXKFqJpCnswJIPP3r7NF1+/jeuesr29zVy3zdLCXAG4HtFwGuTIjCdTbLtFis50NsYPA8IwZm5hnvsPH6LrBrZtsrwyz9pqj729A65eulCpXOv1BjW7webmFjdeuMBv/5W/zh/+xz+iN7/MSy+8xJ//+CeMTjdZXF1jNJ0QJsUztm2kXKgFY0PwMOLQZ39fGICkSU4S50ynLtOpW2g3RPWQJimyLJGkCUEQIkmiBYySBElKAbmiIksZyLI4vDVVLcBABVmGnPNRdjlq4PmVCcPJyYkogzyvyjqTJBHsYRgGv/Irv8L29rbI4usIX3Z3NkXWTRTTBlljbeMSIPP48WNWN64ynU752Xt3mXku9XaPz7/xi5Up5LXnnufZzgm72wc0WsKiqum0OT0+5Wj/CG825flbzxH5HpZZQ0oTFFTiIKNd73J40Gd14wr1mkOrViOLIu7fvcetW7cIPJGKo0gStmnSbrcEccd36c33ePrsGf/8n/0zfvnXfqOSUq6srLG/u4Os6qi5hOuHREkGxbiw3epweNInTjKmrkjUydKoItKUz6o0xGzUW5XfgeM4TCZnHgb9fl94AoRJlS1fGqj0T05oNptVGKukKhUnIiuSiOZawoAlmkVVb10CaH7hrFNu/tKptrSOKok4tm3jeQGO41Ted2XVVP7ekqRUzv7Lm7/8+0TlkVby3/OhHeWfK6uK0rT1TOQkkRbx4FmWoWrKJ5ycZFlsdhHZJYJczuMMeZ6jmQY7+zu8cevz/Oqv/ir3H3zEbDag22kyN9cmDCOxicKENFdI84wgyZEVgzyJCOIISdEYTSccHZ2g60ZRPWWcDofISkqa5IRRiu+61O06S50WP3v7HVaWVhkOXJYW1/k7/4e/z//2779GrTbHFz/3C5yeuhwc9xm7HmmW0eq00RVTsEX9gDzWkBKJE2+fyPVRc4kwivD9gDA887Oc+S4U4GiWiecqeBPiEM+VokVCRpbFFEAiJ8sESEj1rIvWIYvJ8qTAbAQIXOSzp0RhUoEvsqqjmzZOvUmc5jzb3EZVdCzT4erla3S7XZrNNshXefz4MW//7CGqusmFCxdY27jIaKYxdgN2d48YjCJMs45pL6AbBs3OWZjjdPIA3TBod5q06z3y2OZwz+Vw/4CT/hHuOCcOfZQ8p9VoMt/rgqUxjYTzaxg94MKFC0XirMrS0gK7O1usrawid1rEcSjUdomPYZnkQOh7TMdDAm9GrSnm9UmacXR8wu7hITJiNGbaDnPzC7z0qZcxDIPtvX0O+yLUoVl3UDWZmR8TBGFl6JimKbZVw7FFeS043hFJIpxwDMNClmVGoxH7+4c0Wm181yMtADDhw2eTFJOHIBZ6/yQV0xjbqpHLUtGvRjTNBiL5JiTLclRVqTbreepneXOWgFpJDtF0A0mW0Q0DRVUJC2OPNMtIs4xpIScujVRKYU/ZVuSklcKv7DPLW7w8FM9nM5aHQvl7fS86qxZCqTpMZFlGL2i+mqFj22Z1SSVJQqPRwDAMjk9OcOo1Do+O+O6bP+D9d3/CF774WdqdeWpOjdlsShTL1Ns9mq0uo+GMiRtxMBiKIM28zfbWLv3TAZKs0ml1xAGjaUiShqyaKBL4QQK5hJmA68doukMu6ximheXUiNIhv/DlX+bPf/xTbj4nMd9bY3P7CFuvI6kKNbMGmYyMRs3UUFSJ0A2Z+mMmkymu65MjKijbskhTDy+MzqoeCsv6chqSy0BKHKXFZ30m8VYUGVUtJgNJVH3+SGcTKNF2yaiO46BpBnHsVaWaaoiopByZKE6JY5/3PvyIw8MTUW7PXA72j5lOpyytXyFKakxmAf2TEx4/GTM/f0T/VJgjhGGIFwZYlsXevviwM8Tf4/s+UiChqhnTYcbgJMGyhDWy54d4ns6H722TJRGaorLQSyFuYK/X6bTXWVzQebZ7XwBjmih7L1xc53vf+S7z83Moioznh4RxgBLLSApMPRfPn2I7Bq+/8XnCKMGs1dEtGy+MQNZIsgwvSjgeDBi7PsenQnK6t7dXqLuss3w3xyTNJXJJET23G6JoFkmOsNdKYDCaiBGcqhHGQr1mOTVySa4MGyVJKhKME7IcDMNCNXRkScX1PVAU/CgmCCKiAgMIgoCeLUrkct7sFFOANIsr66dyM6rqmU9eeUvP3LMoOMMwGA6H4kDMUpAldvf3PlEBlOX3GSddqsr783RTUdLL1X8pR39AkqakxaHgOI2qcqHob6WCrGSa4jPVDYOMnPF0gut7zM3NcfXaNebm5vilX/xL/Ot//S959PA+sqbgzUZ8+ztv8eb3f4jnz+gW3hYiG7FFGCVMJjPq9SYLS0uM/QH90zHj8RRJ0hiOJwxOR8iqxqWLa/hBjKbKbO8fokkyY9NDzjVGY58kHzKvqGxub5LmGevr17g28HnnvTssLC7jmE1c38dQNLIYXN8jiYSzc57KBCOPXBJ5ClEYo2iChFeSnsrNmpELoP/npi3kMqZpVBVTnovPJ8nPhd1kICuVXxxFiYAkIfgoZVkly7KABRQZw7SRFY3JbIakKDRqokfdOzhiPHIZD0eVyujOx8ei1251iCKT6cTHnfUJggjNMJBlnTxViEJRhsWxuC0N00TKZRqFnj10Izx3giSJkYwYB5lM/RhQIUsYDQ7Z2Rzy8dw2q6urLPR6qHbAg0ePKE0zF+fnkFWFx48fY5o6zWZThGrUHUG4SCKiJKbRbvC5L3yOWewgKSccn4558OAhBwcHtNttlpYXMK06QRjz9k/fwfd9ZJnipheuQLqmkCOjqCaabpMGAWGUEMUpUZwxcwNyFHIUJFkDSWHmiqDJWq1Bjkrh3VFx2DWjiJLOMjJZkH38KARJIk09RpMxgOCZOzXGhRotCEOiKCSMo6oSUVW5Eoto+lkPL6oBscgMWxxmumpi2TaZBIuLiywsL2HYFo83nyKRCwtpVUGVVNRiLCUOHhdFkc+YgMVhUdqm+b6PomvY526ecjyVZRnTiVfMp0GSxXg2l4UqM8kzDMuEYnqSSxJz8/PcvHmT69evYxgGKxurrGys8+nPvkq72cJzp/y//uf/J9OpsFEXmIVI0s0luHDhAp965RViSeFwMMQ0JC5dvMLlSzcAk48+/Jg//bNv86OfvMN7H3xAFE4xDYUkDtAVFV3VCb0QKVMxDJNcFodLhsyv/Nqv8qlXXmUwmPH02U8Jw1AwK+OM1BciqDAM0HKJmm1S003iyEeXFCQtJ82Fi7MXxCRJJi6MLCFLS3BUCMDOJ1bpmlaV+2makqWftKpXziH+eZ4LHgdp0S7kqGXP73qe2PyWUFvZtRpRkpFLCrphMRhOSeOQwE+JgwgySUQg+z5BEAjX4CBC1UxRWig6SZgwrcwZZOI0IYpETLjQnicE4USgu7JgQUVpQpwmVa9Yr9fRC+ZYEkWc+Kdsbe9y5+4DLMtCd07xXY+vfOUrXL96mbW1Na5cucKDBx/TajWEKaapiwTWhTmMmkl/OBAtSJ6hWw4ppzx5ts0Hd+4xm81Yz3N6CwukkkKt1eb0pE9e9FdZljIejSof/ZPRDFlWUBRhuSVLGhIqSRySZwqzaUAQRJycnBaRUEolXkmSrHqNYRwhq6nocyWFmecSBBGG5aBkOUgyqibRVBQMw6qiwbOpW1hxiyyBnDMkXVXlivqrqqK81HSlOiAEicSowiR0Xa9kwZPplKPjY567daswEDGq0r28mQCC0PvEAjvvNgPCrbn8c2fgY1RVCbpmVW2KpqmVgi3PheeB8JkU2QalgnF5eRnbtkVCUv+Iyzeu8dpnb3N8eMLxwSEoNpatFYzInMlshh8pTGZjjNqY5dMJM39fCJP8EXGUMpuGZLnO1A1J4pxGswOkREmMpKqEXiBu2FxiFubYugGZRhT6PP/Kp+n3B6xuXOLylRv8o//pOv/L//K/FK0MpHGCIoNGRh75KElCw7So9+aZzIacjsYMB2Oh+MsVZFk8wzhLCmA6Ly6ITx4ACsKhuAJN8+IgPqcOjAK/Yg6W7Mo0i6u/Qy2FGHESkqcKmm7iOA7tbhfXD0jH4Icx+3sHhH6EpujC4LGYNeuOeNBJnBHHKUgqJyc6WQpJklFr1AtjCoU4S/G8Ga4Lo7EAmZxM9IWypiIrSjEuySlNup9sPqtyCXRNE2QgJAYTceI16sJiKkpiwjjl2fYWUg57hwdCJNRuYtUcVEMnThOCOCLJxO1o2xbP+i5TP+J4MGbihSArJJlMEOd4fkij2UKSZNzplOPDfdJUoM+GquDPpmS5iqxoxAnkqDRaDSRJYjIV4x3TNFldu1jcuhl+EDEcjoiTnCRJRVLM8jKdegffCwniiCgJyFKwnDoZEMVCV19rNmjN9ajVRP8bxBFraxvMz88JPnwcV2i62FBK1R+Wt0JJAClBOUWvfWLUVqLrg8EA1dC5/tzN6gD4eTJPngsfxPNfLw+BcrGViTeqKiK5Z7PZJ8aasqRV/nWaplaahkwwXSqBlWFoeJ5X2a+leU6cpcwvLDBzXTZ3donDFD/OWVm/yqP7j4hDEdEtuTk5Ooqes3804Pjb3+V0dCLUmFJMnOSoio2mO0iyiWnVicKY/aN9unMtUklB1mwkVUXWbKzcQlV0TKPGreu3aLTnmF9apdFqM3Y9wewsUnyXFubJiJDSHJIYigO5puv0mnXmei3ih6LyDPwIw6lhGRaZF+IGHnkuiXFzuXnTFLIMVRIOU1kqXKDFAVywMFGQ5MJGLU2RFYWSG1AxAjOQZcQBoJsGluOIUReiFJEUlSyDdquLoqiYTg0ICLwQ09SR5IQ4jDidbGEamshlMwQxIQgzDMPEMQ0m4x2SNMWyBYFF00SJaugampaAHxKlGVEobv2MHBQZWVGRFBmnaZIkIWmcEOcyUq4VM2RQ1BzXDyqpaJqmuIHPYm+ez372s9TrdSQJlBTG0xEH/UMmkwkZKc12C900GE0CvCDC9UPSXELTTGLE+1d1kxRJWIZLEGcpdcfBNMRBNB6PydCRZRU/jDFNk/ULl0jTnP5A+O9fvXKNGzduVGj21tYOd+7cKebyGknkYho25BJBHJGmImDSrtdptJrcf/BISGpNA8uu0Wq1ceoirVcJAmGSaVqYpo6eGYUhhiC5nG3Ocm6eVGV6HAsp83SWVjmKpbNyCfDV63Vs264clcp5fdmuZFn2idbifN9agoVlGKVlCQ2DZVmCc2IYItFpFlQtqKadcQwEf/4cniCdHSzhOV/Brf1d+sMB6ysXuLJ+hUF/jCybjMY+nWaH4dAnTBTkVMY0G6RKTJKF1OoNnEaNRp7g+QGm0SSKJPwwxrIVGu06qmWQ5ymKCrZdQ0LB0kX/HkcZtVqDm7du4YcBCwtL2I0m9WaD/d09llZW6Ha79I+PkPMEyAncGWQxrXqHuVadumWiNGo0Gw0s3cD1QlEdpRJxLJ6BVJi7lAS2ksyTF7yANBHkKnEAFAdvMc7OSdEUWXD+VaWKvyuJQ4AwBdV1XfjoJyl+EFXhgSenQxYWlrEti4X5JbI44/RkQKvRwtA00jjBajqVAYZl1cmR8L24IJ2omLbwClBUGc1Qizl4hmGKuXFDFUIHWZaRVRVVNwp2mGgLshQROGmayMgFRxzhcKMbJFGOqenceO4mMmLhDYdDnFpNeLQtL9EfnHJ4uM/Uc9EMHc1Q2dnZ4e7HH/P4UCxg3TS5ePkyui7eV3844MnmM44O9vFmE8HcSwXiPR4NqVk2siKRBOJ2juOUTqfG9es3AXBnIijTcRzm5+cBmXq9zhe+8DrPnj1jMpmJvi0WWXsPnzzGtmtcvnKFS5cuoRRtweraBn4UoulmwWos+OCqGLfZxUGSZRSOxKVQSIx7ygpA/MgKj4Az63CnXqfRaDCdTokmYwzLRDcNnHqNufmeuH0QB6CkFIQcFOGglEn05ucrPfrZlEEAlIrnsbS8XLULQlXpixSiICAIQ7Ks5AXIZOREsahMJElCl4TtV5IkKKpEu3hdSSKk3IPRUASNxClpnvP46Sa2UWMwmKDpFrJqoOYy3XqdMPZxgwm5HGFYGrpmCz6ApREEEaYBjlNHVjM0TSeJhSFOq9UAKcFxbMGY1UwUNCZjF8sWvn+vfubTPHmyiaIo7O7uVnyBKPCIowDHMlFJkSSwTYuVpUVWV5bRZIWZJNKKOp0OUz9gOJ0RJgJ7kzUT8jNWX9lmydLZRp5OpxW2IstqxdKUBVBFmiZkmVIdpAIgloX2QpZQc0MlS1TiLGfmukiSwmwypu3Y5IGL5A5w6iqv3pjH1jXyeIEo9KnZFmkcIesLRFFU4QGO4+C5bpWyYts2SSgML0u8oFGrVy/alkE1dPw0xqxbTD2XWs0hjiKhUQhCWo0WvhsgazqKYeIlMVrNRtUM0kDMn0/2nwr/94V5Ll6+BGlKZmQ8PthkNBnjJQEHA+HB35nrMvKm1Jt1+g92eO65Gzzevsf66gI5CZ12m8lkzKPtt8RGyVMSNwfVwE9kNHuJIBOCm6PJjMuXL/DidWFNNhqNiOOYX/vt/5bxeCzQ7CL2CqA/maDUlzAUob/f7x+y5w/pXHyJOVnGqteY4jDrj+l0OvQW6wRFVFccBLQ7LUxD+MrV63WGrsssE/ROWbdAUYmRkfQz9+O4dH9RVWRNx0chzVISSSMcjhmPZgg7bYcgkLCsBjdurGI5ddI05vBoH82uEQQehqngBh7f+tY3cb0pbWuOlZUV5ufn6fV6OI7D4dE+p6en1Ot1Tk7erUJDm80mV69eptfrnd1EQYChyRiquASSXCcoWpE8SojdEFlRRPup6cRBiheGWHqdut3GDh3q1KhJJpHiQzKi2Q5ojFzSXPjhR5kMkoJtKJA7SLGKmpnUjUWQJRqtTPDtidGMCM2IsSwN01QwzZTZzKduzhEGGc16B3cW02nXBKZj1kk1k0vXb5JlGd12gyz2saUMd9Qnm4xo2HO4szHR5IT1ixdYWqijKiGSDI0koKd5zH/qMv/26Yc0NZVxHCGpDl4wQ9IMFEUc2mSQpxlSlpMmKVEaoaAjSzKKpKCUF6ksCXcrKSeOhQI28RI0TUFRNXRFZFX4YYTqui6aatBut5FlmdlMgDrNZpNG3WHYP616Q9W2ME2DSJfRFJUwTSpyR4kul72dWfgLlJTQkjhSq9Wq+GLHcQhGAyRNZTqdYtRMRqNR4Yc/JrccYj9AlVWxAMwcBYkoTQhnGWEyRsuUymTDdOxP5AHqpsnJqXj9uq5XpiJeILzyO50OX/riOqom0221uHz5MrKUMHNH9PvCiWU4HBP5IeQ6tqGRSBlpFCFLIjLqq1/9KqZp8sorrzAYDFheXmY4HFZinTRNGY1G9Pt9QIzrSlfXkmSzurpaudxqqgBlFUWh3++jKaJsztKYWaEHsG2bKEpwj06ICyfj8kA98xowKmnveYS+nMvPZjM8z8OxTLTKLFRHQngFqJowgU1zkBUNCZk0zQnjFGSFuYVF5uVFLi9cLPwCFQxdpVF3yNIeo8GQna0tRiNh8trttFhaWmJhfr7gRgjCUaPZrJyakiQpDGnVKhJ9NvPOSEPF6NgLROJRkiR0u10ODsV4NssTZFnkD2RZjmXVCjGSgoQCqJBryJKKquooskZKhCTJokqSJCRJRdPOTEoWFhZwHI9Op0MYJjQbbUwjJMtEW1Ae7LIiItniOEZKqdoiRVE4OjkhDoVR6MLyCu1uD10XE5I0CFlYWuHodMRnPn2bN99+l3qjxf7JEM2qFdoKEX9eYjVxGkMRV9dsNKvKyvcjZFm4P5mWXhinOqItSOMiPj6phFW6rqMGfoTiCO8107QJw7gipBi6ShYnuLMReycnnNoWjqEShT6aqhD5AX4SVE4y5X/d6azq+fI8R86p7Ils2yYpyvS5uTmUKKbWanLQP2bVX+Pp5iae53JyfEyn3mR8OsCxHMIgxrQdMAzcKMJLI45PTvl7//XfI89zvDDCtms0Wm3yXGJ3Z5/T0ZC5+R6WbtEfDJBV4VH37Nl2EVVVJ8pN5uY6rK2usru9w/0HHxEnPoosoaoyg5MBeQ6W2SQzcqQ8RzNN5ntLrK5coLe2TKfTYWdf+CPcvX+X1dVVtna3aDQaZFlWVQKHh4e0220mU5Fh6IUehq7Rabc4PT2l2ahXgFq7ucRkMkEuKLBxHNNsdSAXFN+6bRfc8JIAcsaTLw+C0tGnRPhLa64oipAlBU3VabQ76JpZUHlV0lT01mGSE6YBpmliOU10S0WNI1RNwjRNrl29TrPZZN6qV8QmdzJFlYR7cafZJAlDsiSqbNm96YT9ne3KDqvb7TKZTKqFrSgKiq6QIZ+ztlLO8QTOZuFQqA7VvMA2JOpOE11Xsa0asqRDrqLIRlEaq4hkBxVZUou248xEQzMEMSYnxao5WJYBinByNrIcVJAzCUWXUNMCfVciGnWnOoAlhGuTnIk4uQyJuYUFjg/30E2bCxcvM7+0jKyZ5LKErOX4mUS33uZ46LKydhHzzn1mUeHjaJrkcU4UCyq5XpDNxPsXFOpxkfVo2yam2ULTCt/H0KscpBRVLvZi6TVAdUGopT97+aM8uZJEGGPato07GxEEAZamkutnPG9N0zDrVnV7CZ96izzNsCyrWsyafEbvFC45wwr5bc91sR0HNBHquJYk9Ho9bMuiYTmsLS1jaAZRmGBYNqmqMg0CTmdjhtMZ+0eHFQBYb4qRGsVtkabCs7/d7YrASceuKhXHcbAsi+W1mwShR54mnBwfEgYBzWYNpLwK07TMGpmeCRKQpjM31+HylWtcvHiZUSbRH/Qr3/Y8zzn96JS5uTm2drYq666dvR2azSZbO1vcunWL09PTqg8X/XSKN5sWAhlxI6ZpiqSq5Ih8RFnVydMYRdUxLRvfF5lzuqogl1bbiZBFh0mKEsWVuzCyTCbJBaCro1s2rSwD+eygjpOcOE5JUwWkDElSQFIwTAtFFRMiTZcxDI3F5RU6nQ52gUlEYcBp/4Rnm0+Frr5Iv52b6xCHAYO+sMHKEaDjpUuXqDlWpTcoJwWqqhIV48JyJClVvAa1YjqWB0Ich2R5TJolFR3ZthuYZq2oOiUhjEFo5AULJiMnIcvAcMRhoBtqsa71am2ATFiEzyZJhCTLSEqCrMYE4RjDhFrNQcpFMnFOXh0AURgTRGLsPfVCLl7Y4OL153BadUaeX2U0ZJKJG6TU63MEkzHXb77An//kHUy7xmg4IZeFk5YsyzimTZok+GFAnmY4he4jjmOmU5/pdCLavCLtJssSdF2t2L2lIC0751OhzmYzskxIC8swxtJAM00iIj+obu5er0uv3SJLYyzTgDQhRqDbJevMsiyyJK1SetI0xdT06jBoNBoMB4NqnjvXaCDJMiu6Sq5Cb34eWZHQlpZRJZk0jFBllSTO0GybGAkrickGCrKiUKs3aTZFerDneTzb2sF1XfwoRFHV4nU06PYEAJblOY5dJ/Aj7t75mAuXLB48uM/Txw+Fo5HtMB2P8Ty30GgLMYwXhGS5wVyvycalS8wtzBOlYqGWEdmLi4v89Kc/5cKFCzx+9HGxGG32dp8Jlt3gmEajwd077xeGmTG9Tpfx0MNy6oWngKi+Dg8PKx5EqZwbDocExaZOJZX+aEqn1UZCQ0ITi13TMQ35Ey1ApcGPxAFxNvaT8M65+wBIuXCFVlUVTZHwfBdZSkkLZFlGyHRVWSEOI8aDAbqu0202qJlXcAyVgwOJTqNeaAuEqWe7XiOM/MqgZKHbYaHboWbZhT4hqcaDyGevPwxDMnySOKvo1ooiV1MLWclRFAnXnXJ0dESz0SKOMgxdtEnyubDXM5FRwZSTEjTTENRZTYCqsqSiGxaqZiDJscAOHAfdUAtCmYlmyIynfUxHolaoHclSVEkuBE4JmSQjyQqmadOZk1hZv8DahUvouk5/KNpSzTBwByOmXoph1TBTieee+xRPdk7w45j+5BmWaZLmRdScZUJa+v1nWKZFXa0TJ+d1Fmkx6ouFjDwICIO8OATEQVCOV9M0RZ1OXUoLadM0C1KLUsRJKchkZKlN6LoEQcB0OkWRc0xDFdrwgs5azj01TcOdzqqHbllWVZYmSVLdDCUxRFVVkjTF0HUm/hTbccSis2xx0OgGMjKyBLphCAcZy6CWRii6xmgyISluTNd1UTTRzljF/DklJwwjFFllOpkxmoyZTmdkWcbR0THN+hpJ4NNrdXDDGUkUkyVplUojpiNivbTbbW7cuMHNW88hSzr9/oB+v8+b3/0Ov/mbv8nXv/515ufnef+dn1W+9QsLCzx79oy5uTnSNGV5eZkPPviA+fl5IbZKE/p9EbUdJxndbpdOq0Fs2xW28WTzmSBE6QZEMa7nFzkNC3jTGUEQVrNzSRIleq1WK4hLWcXaFPx7igUkNrSf6SjnFHpyATincUgapUShj2moZGmCSo4qS0hpgpylxL7HUqctlIFpgpRnZGlMEosxXRhkhatPjmXqWKZW9fuB5zHo92l1e4Wwxy/605Q8K41BxKYT6cxneoNScJSmCVkurLSqSystlJeZQhgElcchCJcnoSoUgKiqKWiaQpWbmEkFl15HlgzyzEOSVGy7jqLImJaIG5PkDEnOsGwdrWBBxpGgRddqNXxXjI4V3UA3TIajMW+//xGPt/cKDYeQkCuayrxukOYSfhyiaAZBlpHmMl6QYDt1NMNCVgtthG4UwTUOUi56+DBIMU2zoJqXXI6wULwKr8o4jgrBVWHeKp3lCKhAIWX1UFUBINm2LTZmHNNqtbBNA9IIXRLlExQJrIFHrdXEsgxU1REJL5rG2NBpNGrUajaNRgOpAMRKc0xNU+j1utTrNWr1OrmEMGQwVSRZRtNVkQGXg5QIvzNZlsnyXJg3GAaKoZMrEpphEcYp/VMRlNBbmMewbGazGTt7BwBsPtum1+sxdWccHBxUNtO1WoO5Tpv93R2GgwE7e1vkecr8whwzf8beo0esrm2Q5jGWWWdhYYFao850OiEKU1zX594H73Hr2hX2nj2lZmjMhqc0bZPZbEZ3fp79rU1qhs6je3e4ffs2b33/uywsLPD0wcc8//zzfPDuLqOCWbi0ukqzIQw/LUOU9A8ePOCDj+5w/fr1gmA0Y2FhAV3XWVlZoWbZlULvvEV42XeXSsVSx1/+KH+uSUVeXJ4jpSk5YhOncVS0G2BpOlmSk0syupRAlqEZheCIDClPxaWaJTScGs3r12g2mwJUdqdn2ZOyyFuclQIjWeTmla+5xCfCOK0ERY4j1oeiKEhyfva6Na3gL8RkeYSmKQVw3UZTDYSCTmAASCLkRcolkARD0jALyrKtoyoC/0CKkVDRdBtVNZBkV6xrp0maiooyKwJkcgkMSwcpQ1VUvDhEzsX+cadTRqMJnh9iO3VU02H72RPe/+iu6P0LJSOKTC0WmIsbBqCoBHFCd2GeiedjWDZTVwDWyCIsNcsy8VlJEjISqmIRhj6TSVb195Zl0WjW6Dptms1G5QkRhn4VCx6EYgql2rZDEAT0+8Iff25uTjzYOBaZfyc+jiVy5OZadVo1hzQJicOA8dBn6gvLpvn5eRqNhgDXLOF37zjCkDMvZtVRJPzmGzUx97RtG9cVs/kw9DEdsXFsxyIOQmRdR5Fl8jQX6yvLCJMYJRUfRJym3Pv4Ec1mU9yAuYKkGCiaODWzXNwUkRdw8VIbWTHY2T4Q2XZRTtyUCHyf4UDYL7caLcaTAQcHB5imyaVLV4iTBFVSK0LM/v4u9z9+CCi02l0efPQR//Af/kP+3b/7d+ImS1NGwyGdTofU9wkmExTH4dUXXuDR3bus9HqMh0OubmwwGwyqza/IcPXSJa5fuYIXikyC3d1dvvNn30LVxcH69ttvM3M9/s7f+TvVfPy8aef5bIAsy4QluK4X/eBZ2XeesFP6FGRZQkqGKugXqFIGWkaWJhhyQianpFmEmggwydT0AgiOsCyj8g9w3SmGYdBoipam1+sRhn4leVZVtfAwFBdBeo6FWHkxFPwFSZIIAg9Z1Soj0iAMiNNcGHZYYioVxzGePyPPRJVZ+hq02+3KGq1iQspycfNr6LqKaTqoqi7wgTxGQkPXLFRVR1UsGo02rWaXIHTRNAlFhVRRMHSLeq0txnKqMNINkhSlwGb6g1M8N2B7Z49Op4OsmqAaaIaOouq4vkeWZvhRRpIrzC9vMBqPUS1Z/F5EVZcWMnAph7gkX50zX5m4o4pUpaqClRvFAeNxWlTl4yp/ot0Wzs/n14AaxzFzc3NEYcJs6rG6amLbNseHR+L2kFJGYUDDMYsHWZRnhsHFixt4kXAOPj4+rh56twiQyPMcwzD46U9+wvLyshBk5DmtVqtaMLZlgSwhyWoFzskSKIZBKWIyDEMw8jThj5dqKpmXI+kqw/GEvIiGUlWVwA85ODxiOp2KFJ8kodub4/j4pAApxUY+HQ65vryKrolxpaHpnAQBUZjQW5gXfGlNRY1SLEspiC6ihFxZXUJVdO7ff8jVjQ3ef/tt3OFQGDxEEeOTE1bn5znY38cxTbzRCGt1lePdXW7evMk0SVhot/npT39Kc2mR09NTvvzlL3NhYw1VkbANwc//2U9/guu6/OLt27z5ve+Spim//ht/mSxNcGdTwZYrzB/Lk71sAc63WJ1ORwSYNpuV9r98Xok/wLZtlMKxRinKf/KMRt1iMvWJvZS6Y5PJElHgU3MsbFMtDh+ROVjyDFZWVtB0tQJhS8S5nGSkaUy97tBo1IrxlLD1Lsd8JWA1nU6xLRHpHsYhc3M90jRlPB5TazZwHIuDw73q/eq6jiIbbGys0Wo3ePbsGUmSMDc3x2QyQVV1kjRC1zWRxOu7pKmC5tSZTSbomkm93sTQbXTVoOY0aF1u02g0mExH9HrzZHlMs+WwufmYZr3LZDQjyxKOD06LyU1P4CHdLjWnwf7eIXa9xhfe+BKarnPU76OZgsL9ox/9iM2tZ1xcXS+0OD5JJqHqarVvwjhCKbCiyk0pF+YzAKqsYJk6WSaMZbJcqizcDEPHmwnl6cPTUxYWexVYbllWlVGhdjsit2w0GtFut8lSmE6nTKfTglWUoRVjG2E9pZMmgQBqVA2lUK+VJaZlWZXWG+Do6KiSnpZ9cckakySJOBVoLLJEnonySpGFC2yOKHtkZJIcckkizDMSKSdME+IkAVnhuC8+gMXFRVTdIAhDBsNxhVlkuYSxauG6Hq4fEqc5zWYby3LQNB3TsNnYaDI33+Po6ABVVzk5OWI0EmQbSVFRyInDEDefosgyNaeBrkmohoEmScy1WpWrTug4+NMp7niMres0HYe9rS167TZbT54wPz/P0d4emiQxHp5Ss03a7TZxGDAKA6Ik5eTkhNPjYxa6bYaDPlnss7KyRrtuQxJW1FBFk0jTiDQOyFOBVEdBWpXdeZ4Th0JxNyUlDj1kUvI0J4wDGrqBksdkcSSEJrIol3NSIj9mZb7JaHDKNHZptxrYNYMkiUiijJppoHY7+L7P1HOryUWSnFl9TyaTQnwiF2NICTfwK2zCclq4rlst8lqtQS4LGfl4MiRNBOuxVqsJfkKhMCyzGCaTaSEucplOjotD4pR6w6Lb7XFyckKchBimjaIKk9sgCDg+FilIkwePsW2bbqfH/HxKr6cJtacsdA7T2bgKJ1EUDXKVOALPjdG1nDxJq9FcVHg3VGtRVbHrDS5dvkyn1+Pps02hCPU9btycECQpzz/3MpqmcXR0QBhHNDtNMQWr2QwGA+4/fMDBwQGj0UjgNJJMlEdomibIda5fvL4MRVExDL0aA0dRRLvdrngBJycnzGYzURkVeJxq2zbHx8cMBgNarRaqqjKbekwmE3RNJU1jVEUrgJYzN1ZhDilmvrZtIkl5deInaUQWipLNtHRWV5fpdtvUanYxs4YoCgR7raAsIkvk8pl7iVL0OFLBE5dzSGUJOZcFJVUR/9U0kyQVH+rM9Yli4X1nmjZJkmHYDtt7+wRxUkQ1OQXSbuP7IX4QkaTQrbfIconj44+I0whVVajbdVxXjGwyNcMzJsiBh5SnZHHM8PQQbaZCmmEbJpZp0azV6TRFKkzNsjk9PcUwREjqwlyPzemMZq3OdDql4dQ4CmY0Gg1MXWUyGhSuPzLbzzaZDPtcuXyR/uE+Sp5y/fJFuk3xZ00VxCxYhSRGMnSajl3dpufdd+M4xq6LG5cspdtsVM5AeRwShRlJGiHlMagKuiahaYogRU2GLC7OsTAvrLW82ZTxeIw7nYlE6eCI8XhIFEXV+Hg6nRKEwgZLLLRJ5XtQ2qelqfh1FAqgtdlsYllC5Wg6tarlElVCjud5hVApQjPFJVOv14njFNO0abfbOHadet3BdjTiQ4/jkx0xOVBkLFuvSt84zkjTnCCI6LY7hTX3HrPpGMcyubC+QqslANjZzMM0ZCxTKBp1VcMybAzVplnrVhVqUhxgYeCRFthZrVbjJz97hxdefJHnXniBR08e83TzKYcnx2gFWeudd9+l0+lwfHzM5WuXWVlZQdc1ge/UbAaDPpPREG8mJgqapokQHE0vKPl6xfUogdDy52EYoqgSuqFWo9ayKiyBVDWKEkR8tJCZGoZRqcoE8HLm3lKOUERlIE66uAykKL552WuW/OVer0e31a7IKhXHoLCsyjJhYnj+AJBlSYRLZoAsDgAFCRQFKc+QVaEVyFWZJINWZ47pdMrpcIxmHLK+vs7c/CKmLQCzd955h/FoSqPeYjgYVZZkjUYDf5pwdNLnhZdeZH1jg939Pfb3d0XYZzim0aijSKJvdGwL2xKVUBwnjIYn7D44KYgYdvUcSg8CVVVZu3QBVVWZX1kS/78u+BJqYpCGIWosQ56xv7eLH4T0esLqa9A/RldlNCmjf7iHrus0LJVgOmAyHCMV7dQ4HlU3vWVZ5JlRfXa6pmGZNk+ePCGJa2ciGzmvJLl5QarRFRkkFREhpWKYGnmeMDc/x8rKEv3jY374wx8yHo+5sL5BrVZjPB4TKbZozySZMBH+BULSnRGnEZZlYjl11DgWt6qiYNWcwk8yQk4i4iRiOByytyeCUVNy1tcvIEkSGxsbKIU9+KAYOdr1mlDJpSnNRpfNp1tMxjukWUw3aqNqOa22VdmsRVEMUkIcpaiqjqaa1Jw6piFoy/MLc9idJpKUM5sesbMtMxhYmKbJfE8E4abJDGQdRTJpODWmoymOWas2VBk7X7Y+jUYDVVV55ZVXaDQaBIHPd7/7XX741ltIqsbf+tt/m8+88irf+Nofk+QZB8cHvPKZV1AUhe9973s0mjWiSIzgw8BDU1UsTUVVNFCF9XccxKSxIFvJqKTZ2ShVURShWxmGVT6nYRjULBspy9EKWrgahmHl3CoAJIGmpkmEIktoSk6exZimVpXveQZZKvjGeZpXKHNJzywXlSyL6CzHtCqhipiTphU7Tbi0itussjBNRQSUlAn7oyzLyAr31qxQtqVZRpJljGdTNEMIiIIo4uDoCElR6Ha7OPU6nufTaDRxXQ/P83ny5GlFlZUkGT9M0QyHxeV1ut02N549w7IsTk4OGI5O0XXRg0W+h5SlNOs2rWaDfr/PbNznaCjaj1oozCnTNC1GcHkFgpqmWen35+bmyCSZzuI8mqaxmCYVWSeOQqaTMZPxiNl0QrfTRiXD0hQadYck8DjY2RImmJFAcVNVq9qpKJye0aCL9zibzXjvvfcqgFCWZbrdboW3GIqgIzfqDnme4vlTnJpBmyZ5njGHxL0Hj/nww/d58mSTbrfLLM7xJx5hlGG3TBzDJC4Sk616jeX1DUHJJq0yB7IsrSYBsiyLA/v0BFsxGAwGIuizAP4GwwHj8ZDRaMJoNOLqtWs0m+1qDdm2TRliKqEiSRq1mkGtbiIrOUnq0R/skWUJi4vLRKGCrpu4s4AslQrMRORVdLs1yEOi0MOyNRxHolbPieIBxztDwKXZ6JBlDrbVRNc6tJpN9nYOmE3cqpWJ45jMMFAk0RYuryximQ63b98mLjgC/eNjBqd9unM95nuCBbm0ssz8XI80jenOtcnzjEcPPq4EXJZloSkqlqqSJSlB5JMmwrR2Eo2RtbNouJLzUXItSml1yco9PyZuNTuFiY6s0mp1qpIgiiJ6va5Ios0z8jQUbihyXhFS0iKGOilsiMrNXv0oy3ZZJggCHNOqFqWiKKSxqBqEy45QA0rSuQoARIuBOAAURSEFYTElifGJpIrFnEsKo8kMgJojRh7bW7tMJy6XLl3i+Pi4MKUwmM085ubmuXr1KvPz8wW3PKdWbyDLKkdHJzzb2WUwHFGvN1lZWeHZ1lPSRMxR4yhAzjNMQ8E0FBQ5I9OK2bBpoJKTxzEhImI88sQCyXWNB882hYvrg/uV+Wa73SaLIq5cuUIURWKu67k4jsONq1dYX1vh5OSEK5cvUnMspFyU84qUEocuCjkJUuH8Kp3d8IpCFsf4ccy7P/0pu7u7FcBWLpZyI8mqg6qqdLttFEXCD2YsLS9wuZCRnkymvP32T7h772NRnbS6bB+f0uv1+NKXf4UwDipNQ/k9TUtnNpvR7/eLalKMmoUDsTic2+226FNH04oVGQQBR4fHfOf73xN+B4HH9vaETrdblPvChg1FplVgLkmSoal64bKcc3p6RJoHNFsmlm1w2j9ElhU0XUXVJFBUyMXMP4pi5noa0+kY3VDodup0OjqLixaK4qBrAXk+otnsIks5uppimzKW3uaJLqL0StbgdDqtmJ2qqtJsNmm1WpV0uVarMT/XEQC5aZDGEe50Qp6n1BoOTs1iNptiaMK8xdDPvBHqjqDp+14oLswsR5M1MklG08Rmd5zS/TkrDnfRwkwmEwEolh6OeU6r2WF5Wah01UolJqtVaV6WEEksTnDyVEh0JYksL0dJKZKsICuSCHwoRSlyySYT/5qmUfCTUwyjkIzmKYoqDgDHbgjZLwgVk1QytqXiexVcd3HKgJRXxBZJkZmfn8fzPEFrLAA5PxKJt4eHh9TrdZrNpnDAdV1WVlaqW/nw8JDHjw5ZWOwxmc7IshTTsDEMi8lsShj6KJIsiEWGjm0ZIoFG02g4Dr1OBy87JUMh9MVsW9GFp6Eui4eOIqM4JpE/QyLFjQMkS2eWhFikZEWo6NbWFnkSc79A8us1mzsf2ayuLKErMl4Ws+972JYAXUN3KliV/rQSpERRJIAn2yYMxHRmODjm0sW1ioDj+75YrFnOeOSRaxlxHAqptK6Q5zFzy4s47S6mqZOrGteff5EXPn2b524+j6JofO973xc4QFTIfwtPhm6nhW3YnAxOeOedd7lz50P29vbECE86y7RfWlri05/+NC+//DIi/FLEq+m6zlyvy4ULF3jttdeIoog33/xzJEni5OSEo6Mj9vYOBP25YDlqqsXy8ir1hkkUT3H9UxzHZP/A52hri0a9Jbz0Yw/fz4RLtOVQrzdQFYvp5DEbF9b49d/4S1y7foHjkz0kOWF+ocONm6tsPt1iZaXN3m6f7e0DZhOfbmeZKPDRazp+JCrosnopfRBajaYINclTklR8FkIG7VKr29imwYX1Nd7+0c9ICswJSUiRHdsUa1RT0WyrWH8WmqKT5xKBL5iBtmHhp+MC14jPtDcF3yLLymonwDAMLl26RJ5JnJ6eVs9cLX8iQBrjE6or33OJQxddk3EMuwAXctJSB6DrRNknI4jyPD/btPKZCWXpNFNafZmmeaYAkwTCL5XfSxL2W3IxBZAkmUSSyCSJmIxEobIN660sMJ2KnMEgELLkRqOFP3M5PDwmLoQUly5dwpu5XL1ylf/wH/4DvV5P3LqWiR/GHB4e0+k0eeGlTxEGM3760x/z+OE9wYSzNCxDgC3T0QhdFbRj35tRazVRVVXYgUuil85zkTzshqL3yhWZWkvYfNdaTeI0RdY1giTGLGiv0+kUKRPPXVNlNFVmb3ebZ48fFJl+4nmurSwVt2PA8vIyar1FlgjwJwoCZNMkTzXc6ZjD/V0uXVjnK1/5StFuedXNnGUZw+GQvmcwGg1QNaERR05ZXF7mwsXLmKZOvVWnVmswm80YT2b0+6ds7uzy4P4jHjx+xkvPX61yCV966SUuXFwnSmL8MCCIYq5ev0YYhlUa8mAwYDyZcHxyQhCGqGnKD3/4Q3784x8ThiGLi4v4YcTnP/95lpaW+J3f+R0+vn+f0WhEmdfQ6/VoNpskScJ4PGYwGDEYhqSZR61m81/9jd/GtGRcdyachI8HHOwPuPPhI46PpsUEISIMI+yaztHRHk+fPqTZ1pnOTrFshZkrsbe3Q6c7h2kp7O1v86Mfvo+htbl+9VMcH41ZX7vMzs6OyNMMQ2zLqoDX8rZVVZXJbCpk4mFAzbJptVoVJ2Zndws/cPFdF1V9qQLix4NTOs2GSJMKQlRZQ9dNLMPEd0PiJMc0pYpuX9qulS2J8ELMmZubYzQasbS0xFe/+lWSOOOP/uiPmEwm1Go11HhwxNKFDfaf7NG5fImDvWeQxySZ8B4L45QsCsl0AzWTUYIUO5YxVQ05hDCPi9L8bEIgOvocCaEEjItwzvO9ycx1UVQVXZLIpZxMhkyBXJVIpZwSEDBkYQFmySqZLOFNPVq1HqrVxPEj5P4BL6yvM7VV3nrrLWpzc8RJyHK7he+FDPeeIM36hMNDbr34CqE3YXV5kcPjPqZt0XRsgiDgrT//Ib/8q3+J46M+/dNj9g/6NOaWSdKIXm+Og6N9rO4ynpxT02uk6IzRaKcmeS5hW12SPCNNMpAllFxjubcicvZOJsiAkasoaY4hqTRVEzWSGeUOo9DC6lxgc3OTdnsFxdQYhj6JM0+c5wSJhJILAs724+1ixAby5i6rnTOHHU1WinGtVZiXTNnYuIRhpBzsPSEMQ67fuMbqSquw1trASzN0WWI2HjLXrtHrtFleW6c732WvP+X+/UdsHY/58Qf3iCUVp97kxRdfw1y/xbB/SuPWl1judjl49oQf/vQxNy5fI/d19u4fsdK6QuDHqMhkiUai6NRqcxi6z8GuT+SZpO6U8cCnVlslVxNmSQu71uD/8T//OzqtGl9+/TVe++yr/PTtt+hYKq1Lc0RZyt7BiDSXaXYVnm4fsbG+ShAohL7LT358F3KxKWzTEnoQVUKKHxNMxqi6T83O8N0TYr+OU7P4s2/e5dt/+iEXLq5zcnJMt9tmeWWR6fQui4un6HqDz3/uF5FlIVW+fHWZzadbHB3kLPQ6GKbKyelRMV2JhTtT5uHOfMauyIrws5Awi8iljIND4ba83usJ1Wi9zvWNS8xmM7II5nureG7MwsICnueRpDmTU2FJP3WHrK6ucuXKBRbW1xmPx3z43vv4wYQ4FEGmjUaDw8N9NE3jtV/9RU6Hp5yOD9ne3WIcHaO3TFI1QBVob06tZpOnmaBTNupMZlNURSJLQ+SMqueGHEkVDi6yJKGinpk78MksspJ/Xv7/8t/zxpJ5YW+Un7M9lmVhWJTlOX7oo8kaeR4hF5JWEOosEcBxSr9/gqZpbFxYI0tS9LSIodZkbty4Qb3VYntvn7fffpv5xUUsu8bGxgZhHDEZBsVs2eXRo0ccHOyjG6qITDdUdvdOxVRCEbNoTVdQCzswIZyKxLNRFZIsI4wj/DDADVwRCNFqkWcZeZKSJWlhewZJLJKYMducnp7gui6WZVY6dCHfVZm503PP98zrX3xN5ujw5Gz0lws1nGNapGmM67o8//zzNJtNNjc3+dNvfpO79+7wxS9+EU3TePfdd2nOL9GsCyJQGMW0Wh067S5bWzv85MOPefujh+z0p+Raje7SCuvrFxiNJiiKRLfb5eTwACUJsB2dmaowGJfMQJuZN8F2GuiKjhuGlXJPkoWvgySJyyKOY3JJmMfolkmzWYcswTE13v/gXXodB0nKqdUdZr5HkqaYpkEmyRX4rOoajqKQxjHPnj1j69lTsc4yIagCmcl4hlwkHZXZA6WLsWmaKIoYScZxRK/XY35+npWVJTY2Nmg0GkXbIW5dy7KY7y0ydj0WevPVTT8eC59/TVYqnGs4HFZtWsljAGg0Gty8eRPf9zk+Pq7s02zbPrN3T1N6vV7Vz5f6kk5HgHhl8Ey32yUILfrHJ9RqNS5evEitJiLO6vU6k9mEb37zm0zdCb2FeaauMJNV3cmYqNUgiUORM1bYSU3HExFJrYo5tyTl5JIwasyljEwSwQTlBj9/+5cjw/NWRue//vOc9PMHgJQJX0Kp+EdTVWRkESwaRWi2XZlDqrLC6vIiH374Ibdv32YymbC6vMK9e/e4du0Km5ubrK4uU2+22Ds84tnT+/QHAy5dvsrSyhqyqjAd+ei6ShglTCdj0izGNIVR5t7eHnmes7+/X5loSlJesRjDMCLOUuQkF0KY4lAzDAO19OWTZWHxXbjyyLKMqeuYupBdH4wj9vZ2cT1BoY2TkCgKcBzr3OEpKiLBBBMRT+WhYBTEqzROSOKcPItERBQiWMTzfQxTUEH7g1OSLOEXvvxlbMfh4cP7PPz2m6wuLrC6OEfDMbh04SK1RpOtH7/DvXv3mUw84jhBN2Qs0xHWYVGEbZjMz8+RZgEnJ3tcWV2iVteJYxdLk0GKkeWMKAmQpJSZO6beaKCrEnmaEvhT3NmAhgJhHJCmMU6rjaobOHUbTVMgiYjckKPjA5LYQzObwobbVJBUiYOTEyau4AeQy9TrDo5jU6s1iEIB0Hm+SxCcoqkGds0RkyE3wPdCFE0nlyDNMlHFquLiUTQVy7GxHYfJeFgdyMLlisKlWCsqDJN+v89kMimMcfTqED89PkGS5ML2PMc0bUEWiyI0Xafd6eD1Jp+IZysnJa7rVpO5TqeD5wljlGazycHBAbPZjC984QuMZzOePHmC53msb6yKdVC03H5hINOd7yJJEgcHB0gKrBoGyAI/U1VgY2WFfr/PlQtrNJt1TEPDqVkiSCJLyDLhTBpnCXmWoOYpUZ4j5xkZn/R5LyuAn+dfl78+n1QDoMmfPCQEinkWIiErwu4IIsIwRrVNwiBAkWV6vR7rGytMZyOuXrvE++++R71h02rXWVlewPNmxftQMU2dVqtFkCQ8evSIwWhCo9Fifn6RJIlIRxH9/jGnp6eVY0rddnAadfzARZYlgiBgNBE9p5gvR0ipRZ7LSMhkksAmwkhETiVJwvz8PEkSEQY+cRShSDJSbgsNv6yREzMrelXT1PH9aXHD27jerHqW5a0v2ivlLONB0agSoaWMHFk8wVwGWSWXFVzXRTcN1jbW0XUNx3FoturUGnV8f5vxZEan2WA8GhHFOWmucHwywA9iGs0OzaU2x8MpluXwbHOL5eVlQXDSVJy2IDs19RQ58dF0kPIY1xuysn6Rbm+RMAVle5frN29gWwaH+9s8efyANA2x6wJDkVTRvqCYgqOva7jjIcury8RpSJrFzNwRbhig2ia2Y5BTOOWoGq7rF0pVGI1GDIdj8kKj4nslAg5JnBFEMWGckMQZsgpRmpDlIkF56rnMPK/aRK7vVTRrUbUKvUEcRvieJ0xlgoDpeIwsKegtA8e2abSaRGFCmMTCBct2KA1cSl2ErKk8//zzTCYTtre3OT4+Znd3lyAojFgKS/WPPvqITqfD/Pw8x8fH5HnOhQsXKuzu6dOnqJLMy6+8xGwyBc4CXkejEdeUa5yciEqx2W4wHA6pN5uMx2NUiYT11UUePPiYG9evMZ7N0FWZTqtJkqWEgUecir4lo0j1QZxoWZ4Cyidu9nKDl4fC+bSY8ut/4Q/p/8/Xf3XZmqT3ndgvzGu3T5/H1ynXXdXV3Wig4dgghCHIwdJoNEOtGVEc3egD6JPwO2jphhcjN+SFRlozGmIAYgAS6O5qV12+6pg856Tf/vVvROgi3r0zT6HJvVZW2sqzM3bEE4/5m5uDLyw+43BQVRYjmy2CLO6AFpPJhAcP7jEYJLz33jsIau4/OKSqM7793tsY0/Ctb79LVpQ4ZwikYjjso8uWq9mCk5MTouiC9XrZkUpiosjDQD3s0qd6L09eEPdS+oOUum7op316B0e89ea79Ho9fvWTT8g6KPUyW3f6/qrTAki8GqsLwBpPte383Ou2htLhaNGBQGmNo6U1XQrYT1kspx1Vlm0gFcJ3eDfrXXaut85JnAywwmFa7xNvnCOKU1Z5RlFVhHGMxJGXGTt6wtHxMfsHMwb9HsPxHlfnL0EG1E2LEwF7+8d8+fICmoC69Y6zvV4PjGW9XHHqLJM6RdqGk+dPEPUa03zfy1C5hv39Cb/3h7/L6eU1i/WCb7/3NoNeSlMt+fTXGVm+ID4+6rKYNUEcIXSM0IpQa6pS0bqWojb0Ek1RFVzPpiSmz87RAfce3mF3b4/Vek0vjbm+uMTZFiU1/f7AZyzLDCn9GmbrAvDN1F46wIkcKyUNFoEDa8lLz5hrnaU2PouIkniLoQh1SC9Jt/v62ZOn7Ozs0Et6XrS1KKnyAq1DZEeB7/f76DBiufKiKEIrwsSrb2XGMJ1Oub6+5urqaksO24x1y7Lk7t2721JiMpnQ73ups/Pzc3aOj7lz5w5V7p/3er0m3hkzHA4JAsXR0RHHx8fs7+/z9OR5p6Kkt9MBnUYKhWE0SBj2Yi6vrkBKZKh9yh1onPHzfyt8g8sKh5Ge6+0PLoDDYTolGQ8SkopOnJBuLOgP9msxwDqc7N47h1Ouw6KDdgItlefnBxHOZjRV7VPQDumktWW1umY4jCmrjOOjO91YMEeXETKIsc6yWi+ZzWbE6ZDDw0OshVWW8fLkmQfHHOzz8OFD7j+461lWq5UvKe7dIwxDpos5Z6dXW6TjeGdCmqb84Y/+wGcGK//7Ly4vubi44Gp6zfpqTd0xsGRXvwdh4N+0H6FW5XoroNo2LbiGJNZEoQRnwN7gK5yzyA6sZZ31whxBeNNfkX4TO4xXk5U+OIRxQtSRoBwWlPQNS2FYrXNC7e3QqrqlalrKytAbDBjkhuGy4euzKwa7RywWC44Pjvnk449wxtA2FUJmvPP4Efn0gtn1Fev1gju7E5I0IsuXxDpEKclsdo1papToIYVHItZViTEOHUZUtb+Rw0BSdhbnTniTjDzPUCJglXt+iuxqY2stFxdXXF5eY3d8Y7MqvHS9V4husc3mAMa0pupwEiFOOoxxOOlo6gatFMIa1kVOVZU3zER7Y7Ti96vYdvmrvEA6gVKa/d099vb2yMuCqm4Z7Uyo6pp6WhP3/ai7qipaZ4lV7G3jgZPPn/H1119vM8o07TEaTZjP5xhjuL6+5OjoiCTpkaae5v7110+77FrSSMmDBw9YTGe8evWKp0+f0lSHXm+zE2PZPd3l29/+Nv/u7/6Wy8tL3nz7LYpu4qK//73vECj4/gffQUmIowAVahC+ySe1P/itaz36DoO01nfqncV1RJ/bJcBtUNDt1PVmRnnzMNZrlBsHRlo8H8jRmZmSphF5WZAkvS3DzYNKMp4+fcq9wZif/ezHTCYDfvnLDznc22V6dUlvMOQv//Iv+Ud/+mdYFE1TkWcrDILBUNPr9dFhSKgnXFxccPbyBYvpNZO9Xfb3Dxl0XgOrVeahoLVhb89LYH/00Ufkua/DPvn1x+zv++Dx8OF93v32O6xWK05PT7m+vubFixfb51zVFU0tqGtN00mveegt2/GoN/NwtG3NRtN/O1mR0gfU7hYzxtC0PvhK4fs0XuzBIDotQaE1Sa9Hsk5I+z3CKKA/HHQ9gpbRaMLu3h6D/ogL8Yq6cZ5DkQyYzZ4zGE8YrBsm413fOOr3uTw/Z9hPMTUkYYq0DiUlu5MJbeMnSL1ej9lsTtn6GbS13ihG4m3RBr0+URDhREAvHeKcomkhFpq6sgjn5dbTpMeyzLwIapbTn3iPxfU6Z5GtGf/WDqenp4xHOwRScXV2uiXuKBRC4OHmrcFT27zMV57nrLOcwc6ItvXlprN2C1E2rqNPd7B2r5Cku2TVT7g2+3m9WHo6cFnSNN6II01TqrpiMBiho5DW+kssTftEUcTO7i7WWuKH8OTJk21A22TQSZJw//593n//ff78z/+cP/3TP+VHP/oR/+Jf/AuMMfzxH/8xRVHw6aefcnBwwHq9pjVefzHPcz799FOs9fLps+WMD773gb9grfPq3B0mRH/rnces85I3Hj/garbwAB9ryKqCoixJesk2Chrb+CW0jb/FTQvudbHG2w3A2/DDb04ENo/AYyUwgk5/3nsCCZ8pd8CVRadlb0A4tPQvwvXlOcY2GNtQNyVawnwx5dvvvY0UIf+v81OPEJMB/b7vrC7znOlsyXiyy+7uPnmR0R/0SHsJV5fXXH3q9f0ePXpMEvc4PDzEGEeenxLpiNFwgrOCIAhRskYIy8uXJzx79oQoitg72Of+/fvcvXuXd999G4Dr62tOTk548eIFs+vpDYxVOJI0JIo1xtZI6XnmSskOOBV06L4b/r5fQ7DWIQElNK5TiJUKhLMoJVFKEGi2MO9ltvaz6l7S5WvQ6/cxrUWpgKYxrLKcsqgQSjMcjsnynIvlNUkyIokiqqpmdn3NeNhHuZYyz5hdljx78oyegjfuHSGRFOuSXjygaFqyrCKOeoRhjDWSqnYII2lqx2Ke0UuHTMb7JHGfIIiJ4z4mr8ApwkCT5zVax/R7CfPlmqZ21G2OCvukyZjlcsmrV6c+oCjpa/y8QlhHFIcEkcLgEMKj5aRWGAtRktLrD2gwCOGx8caA6CS1ZDeGrqoK4bwAiZYKa28uNSkld46P/cXYtlxfez5DFMeMdyZMdvZorcEKsLXHziRhhBOCuKNIny+feeJdJ8ST5zknJyfbUmA69WXgX/3VX/HFF1/4+n0w4MMPP/QN+g5b8fLlS+7eO+b999+nqXw/ZHd3wu6ubwB+9NFHTCYT7j24S1GVpP0+5+fn6P/n/+O/5T/9s/81P/vpj3n7vQ9IyorGOS8/pBQWSy8doGRDlpfsj/tkiyXJqM+6zOnHPZbLJTs7O1xeXnp02mzGwcEBWea14OfzObu7u163f29vW8vMZjOGg12ul3NGu2Oul3N29nz6MxkNWU5nDHYPwPqUMdIBaZKyLD0d1AcFy9nLl+yMRpyfn3N0dMAvfvELxqMd9vZ3yfIVewd3CLQmTRN6/SHXizV1XfLZZ5/Q68dbcYnR2DvVLqYLPpx+iJIBjx8/5vD4Du99+zt8+OGHnJy8QDqPp24biwgqVOCBQFmRY8/OefLV17Rty+HhIY8ePeLBgwf8/u/+HuGP/ojZYs7JyQlPnz71VOmm8qIX0m+spq0IQkVranq91NNpTYsQkiDwE4GmqbdKsMtpgVKyqxslWnUioralqpptd3qjCtzr9ciyjN1dv/5hFFCWOUlyZztiVMqrCQ+HQ1YNZHXN8+dPSdN+JwlWc319QRxoSmdpi4Y20DRlQ7muGb2105lbxtRVQ1ZmTMZ7fPnlEx786AfUtUURIYzGNhAEMePRHljBcpGhOy38pi5830aEzKaXrJY5Q6nJ2wYVZbQ2g/c8C3U5mzNIPFEnDkOK5ZoQybIs/Vr1BvSiBB16bYkgipkIwXQ1Z3fU2bktp+zsjrm68M3gh/fuEgyGvHjxgjiMODg4IJCK6+trjo+Pfb0dDZhMJhRFwWjHZ4dhFHVBtcHiiKIEoxxREDKfz3nzzbdZTBcEUcTx8bGXffvqK5Ik2YK1Dg8PtwFgtVqhtd6Cocqy3LIj50XGP/tn/4xQaQbDHhLBo0ePeP/993n+/KmnVa8XXFxdEEURX375JVIr4s4BSmvtbwsp2VJEaydxyiOJkCCE7EZL7rW6aIN2uq0w85vGgrc/vv21zUM4nxrKrcWRufmm69RgpaIw9TZFi6JuXq40jx8/RgjBn/zJn2Cali8++5x//E/+jMlwRD/tdXNWbwu2u3fIaNjHuo6Uslz4/oOxSKU7qSlf57UWnj074epq6gPH9bT7ewWudQRKsegktzZrssXid9DbDz/8kI8//pjBwEuKPXr8Bm+//TY//OEPEULw2edfcnFxwZMnTzxHvSpplcS1fhwrnCFQniItcd1aOdq6ImtqdncPfY3aVJim9iWaFATa26sZY5jNZjRltUUsXlxccHx0wN7uLuBrz9Vq0ZUpvmmadhoFBD2WteHicsb0+hzaBtdUDCOFkvDg4WPefvQY2grXtqyXGQpFEvd4fnLKX//132KF5uxiyrmekS8yrs5eYmrX2XhJhHO0dUPZZihl0VFLrAMGvSHTy3OS0JHGA9JoCSjaumS9KEgG3iOxn6ZopSiLgkhJ9sdjzuKE1XTOoHM+ivopCEFT1RghKeuKdV74AJgXvHx+Qn8QM+qlCOd4dPd+p15ds7+7h1LKj9WKmvF4vGV+lqVn7E0Xc3bUDvPFgoODI66urkjTlIOjO/7QZjllUVCsCsq8IFCae0fHvPzyKc6BUpqiKDHGMhyO6PW8Ddyq03wMQ9cxTP0bgNYBFfZGaWvUJ01SVqsVP/7xj/nyy895/PgxrWu5uLjwOgwYjLMMnCPLMrQOgy3Ip2kqqrahrEHHyssRqQAwiG7Uta31u8bI7QnAJgDclni6/fgmTuC2Quv2c2te6yfcoAcl1rXdoejIRl2jJ44T6rrhW++8y2zmBRxGwyHHx8eeiNFLOj3+gixfsVgV7O4d8PiNR1xfT1ksFsznXrt/0B8xGCQURUWWZd3ilsxmC4qy6mSYK9brDuJsW6RWHePN/y1RFKGFpK1q4iBEOlgulywWC548813j3f09er0e7337Ozx8+JA/+qM/YrFY8PXXX/PFF19s08Cjo6Nt47GufVOn10u2/9756YutBmAUB2jpdeqM8aVRP0mIggA59HX3bD7Ftoam9v4CgYZeGhJHAWkcUVUFTeNBVnEUsHh1RuUUWjkiBWVRIEzNqDss7z5+i8ePHqJtw2p+tRV/2d8/5PxixnQ6pXV6qxr07NkzIiW5e/eu13hoC+JQMuzHWBXhVEzbOJqqxAaC0WiAqT1Bqm0armZTnr865Xw2YzAa8qf/4HepixIGLVp6DYm2qilWS1bzBb0oROMIkKyLksq2XsTGgTMt5bIiSSJ+97d/h7Ja8+zZE6bTa9aPPZCmLiuaqsIZg+nISGma8urVK9q2JelFOCmYzma0xjGbLbj34CFCCALt6cgblawPvv0By+mSUW/gAUq9/pZAdXR0xOnp6VZivyiKbePRC37q7ZnaXLyb3tJy6bEEznkzVNNUW+eonZ0dnHQ8f/Gck1cvEQqKqmS+XPoMQEp/48rOUEAKTduWqO6mE0JtVXmFM4AAK7DGq6F8E9xzu8b/Tbf97XHh7Z7BRs7YBwF/07nOFdVhtr9bKbGtx5wz4DTWSISTvHjxiiCIOD6+S1U2gNgKVezt7LJa50zna4oiAyyTyYjJ2JckFxcXLBYLz5BqPYx0PNqhaRrKphO1RHirZ6Ww1tfxOo4JgwiBrw+VCujFCW3YUmS578J3WnhlU5MVXrr85MUrdBTy2adfeBLM3h6PHz/mnXfe4Yc//CFZljFfTPmLv/gLr+bTqTQ1bUFgBNZ584zJeNCtpaEqaypsh0LDs/uKwh+mjiterDP2JjvsjMYop6jLgnR/hzBSBBrybIVtawLlqOociUMJw3jUZ9SPmF06qnzB8e6Y46M9+r2Ufhwx7A2IZENTrrm+uthmLWB9Q1N4x6EgCPADDstssSSKLHEM1uYUdY4M+oBGSU0SS9bzjGx5zXgYoaVg2E/Z2xkzW8yJAo1wvuE5GQ853N2jXq9xTQ2tYX9nhyrPWc29OlTZGsrWIKMAEYRoJXClI0Lyf/rn/0d+8Yuf8vTLL0iCkNnFFQ/vfpdXmXdQ2oB1lsvldl6/XufcfaTJyoKr6Yyr6Yys8CPh01fnXAVTz7kYj9nbO+D+vXv8gz/8Qz/hqA2nz19yeuqFa4+Pj5nNZl3J5yXPNwHg+PgY8FbpRVFsexBeYPdGr+Ps7AysQwnXOTKF/O7v/i7LbIlQgvOrS5ywxGlC3o0XtcFhnEdCWSEJohCKBhVENFWDEhohnN8I1qDQXVDwYBPnDLbzMfeH2ODn1P7rm4//Q29ssgcHbAKD6+yhrQUcmG66gNgKIm6oy3GY8O7b3yKJB/zd337ID37wA5z1i/Ps2TMePHrsyUJXXi7q6OgIGYYEgebi4oLx4ICdnT3G4x3Oz895+vQps+s5vX6fnZ2dLZ3ZOQcip6xKhoMRrnzXRAAA3tJJREFUSB+IClFiOqfVzWzYG5kKbGu20M9Vs9paXukgoOkQl9fXHiZaVQ2vXr3ir//6r5lMJrzx+CH37t3jn//zf8ZyueTZs2d89dWXHVDJ0JoaR0tTZdugq2RHwlIO1X0tTSIU/jnt7eywmE1pa0O2XtPv9YgCCa5lennBcjlntZwRBp7FWWZrAg1t3VIXSz9ezebs9GOG/ZByNaP3UDIaxgzSiGIpkFagA0HaC1iurti784DAaYqqRUtFb9KnWq1ZZ3OGvYS2WdLvSw72EwqjiZMxRdnQVhVFPkVRMeqHHO6NmM96TJcLrClpmxzTxNRlBbbFGUuT57RlgRKQ6MATsxrLerFAlyEyCKiahvWshEARp32CwrK4uuTjX37Ey+cnhE7SH00IpWIxnVGsMyaTCVp6hZ2NwtL51SUvXrzi5dVyW/LleU5rLZ998QWXF9fMZrPOnanxVnpVxXg8JklS/vLf/LmX3dOKy8tLjo+Pt+PGDVnu4OBg+//Udc1isdjusw0hDHUj/b5YLEjjhN3JqNOHdD5Ynb4A4OLiAhVIJrteBen+/ftohKDprIwa0xKGEVJWBEFEVRuc9XBW2UFRpZMI5w+/uHWb37aM/maq/83b/+9lDdvb//X034teys4f7cZjsCzLrR67tYI333wHYxoWiyVhGHF5eUW/P2A5XxHpaAsiatuWKA7opwnrvOD88oJV6lMur5iScHx8lzC83h4672WYbv+Goig8j95JlPT2zGVZely/k4jNTad057eg0dp01uuQZyXG5TTWZzW7w7EnDM0XvhPci2nqmpcvntM0Fd///vc5vnPEo0cP+P73voNz3u3o6dOnnJ6ecv7i0o+rmk4avPW3g9ICLSRV7p2eHz64x+/98HcZ9r3Q5my64MG9+/z2DwzCGa4vL4lCnzloreilIUmsMbMSgSLSEhkrjt94wPfee5tEw8e//Dn5ekaRL7AVLBeX7O70GY9Sdnb7GFuTZQuCpE9Z5VRWIGzCfHpFYB2Hj+9j7ZK93ZiDgwHXyxKhW+qmYlUsqHNLW+Uc7++gdAuuJlvPWC+v6CWK4TCmyFYIZ1ktZlw8f0okJGnopwZX5xckcUzT1qA1cT/EaUlRldRNDbalKWrKLONf/l/+r6TDmDSMMMZwsLfP7PKapq452N3zTeuF9znUUbh1AF4U/iLq9/us12vCMGS5XNM0vjEZxylaKgi7SUNjWJRzpheXXtvQ+iZmGMTkWYk1YFrHYDxgOBizu7PPeOQlw5QMiCPRUfQlUmiMqbbszjD0aNeHDx/4sWBbc319zdnZGUd3jhiPx4RxwM7eLuOdHb71rW+hdeTdcjY3qo69Sq+S/qa3Fiy20+froKjWU3c3Biu3wRLfbAz+x+r/2z/3m75+W+HktvBoXdfEwz57e3sIFK9ennXIpwisQMsApTa68YbhYMRwOCQvrjq/tDVNx2+YTucsFivSNGVnZ4e93QOGgzFnZ2ecX14Qdvx+YQ1JErFcQlV5h5sw9FjyqqoIpCIKbtRtsY6mrLheXqKj0NuSxRGtMdRtQ6QVcZIwv+icdXY9zqEoM/I8J45DJpMJf/GX/zNJErG7u8vx8SF37h5x584dPvju+/zJf/IPef75y62c1stXJ8xmM0zd+IxNCf723/97Pvv0Yx49esRbj9/EWYsUAtO2PHjwiN5wTJatuZqM2JsMONjboSpzkiTivfe/zbPTv6AoCgaDITsH+/RjRRIqAtcSBoK8WHB6dkIgDIqa4eCArJwjhOXNt+7z+ZMXqKqgrC3CQlOuME3FaNgnTiRxZNjbSxmMNKdXc4Rt6Pf67AyPmQz6HO7tsDPq0VYln/y6Iltfs1heocKEusoIlGTQ79NLY4rZHKlg2E/ZGQ8pl0u/t5TA2ZaqKLFSkEQhidIEUUjYixikCRcXFwwHCW8+eoOr2TVpFHtIuHRbGTuJ53m8ePFiKz1OGNCUBfPV0l9YJthqGY7HY2bXc/b39+n3erRV412n1l4ENYoianzWNp36cqHX6233/XQ65f3332c8HvPy5UtvHhsEvHr1aquxOIhDz+xUGiEdV1dXRIHi+fPnKCV48uQJZ5dnIP1IOIg00+mUvYMDrq6u0BvYYWMNoq7pRa8Tebwclw8CduOBdmvmvzm8t2/t27X9b3r8JlLQ5iG/8XObzvqGuWU6iHGaptw5OmI83uFv/ubf84d/+PsE2oMgDg4OmE6nHQDlBojUNBWi8crEURIiteJ0kW39DOLYH/YoinjjjTd4/NabfPzxx76h1kl9baSrNgo+NRZcjpS+0YV1NLWhcS15XnJ8fJdVnlEWNcYJrwuvIC9KVuucUdrriBsVWksEviFb1zXLpeH+/fsURcZiMWOxvObTzz4mikIODw85Ojridz74IUfHB7z19mO08Gngyckznjx5wuXFBbPZNa9eveDHf/t3TCYTBsM+v/M7v8POjleFOTg+IgoCdkZ96gfePTnLVuwd3uW3f+sHHN97g48//4oojjnY32Vx+YpyNWMw6PGjP/x9FmaAFIZIOR7dP+LunQPW6xVpL+Qf/el/wuBnv6KoDUJFhCpEGMsgjbi3v894NOT84ldMdo/4wz/4bd777vfp9XYRKqHKS0IpqVYLhGn5+MkXvHj5jKoq2d0Zc+fBQ5y6UQiOdMB4MsJmXtC2yPLOp9LQGENe1SxWS1op0WlKmHgdP91KiiJjkPoR2t7uLkpLXpyckPRi0jRhMeu099OEtm358MMP2ehhusB31dvKy2yXhdfku768Io1iAhWyXCx4+eIFpm4J9Y1zNsZ2GAWxNUvZXFrWWi4vL3nw4AHOuS4I+5HjpgwcDAa0uoP0JinWtJyenmJbPxW4e/eY6XRKXXvNxfF4jA4VF19dcu/BAy4uLtAtK4zIKJs5q6pA91NqV3Ny+oLBaIzFUhsD1DhboFRIXcwYHtzh+nyOsncpVy374wTRrpAmYHmdMR7u01QQ6h7CrYmClLq8RqnIz4FVhHOKwtUQauq2QQtNtS7p6xRpJDhFUbfoNMVqSdtU7O+O+fzja+68+xaHb79FaytCZQikoZ9ohLTUTUZ/EGFtQxCCFDXFaoq2BtWURMZwsLvDJy9P0OEeF1cLsqLm8Zsxu8MebVPhnBe0PNwf+Lo+lLw4eQVFTRDGaJWwOJvSJppB5DXX1ssVd+/e5Xo29TVYGnE6vyZKYuKR1wk0zuK6bMYYQ60sdtM0lQLbGFoEUZQSpSnLLEPJFB0lN8FMas4uKl68+ooPf/wRu7u7PHjwgHv37rG/v8+9N9/m7e98lyAI+OyzzyiKgo8++shnaEHA//LTX7Kzs4P6+a/ZlXc5vvcmx/feZXTwNvt7I9ZhjygsCdWUvcOaP9l/E1cOqeqQe3t30L0KG15RuynvNaNteQiSol6AVEgbIGrHH//ge1T1GkflQVmtYL1qMI2lzmqeL77H02lJWc3IsznL1dcs5yuyZUVVQNM4nj/5mijWpP0HjNKCs88+4f6jd7m8vGaNpW5WRG4B5Fy3Ftu7ixsa8uknfHsv5qAnmBU1v75SnLUhpZDQFAxFy8vIokJLtKx4Zy24/9FLDuuafzc74SdhRnzngDvLFT8sFYv5Crcz5mxtsa1FlZpHe5Z/9Lu/z09/+lO+evKE977zAcZKdoYJB8d3mM+WhFpjDRR5Tl0WKOFNPbVUxD3J9fU1ZQlxOujGjSVCGVarc376s6/5gz/4B0Q9iZUNebsmHsQ+IIwGVPkSIwTDXkSaTrbNyu9974OtOO/B7h5vvfUWVVUxm82o5wXV1dJn/EnszRnBg0mc8XW3CEOCTr+vqiqGo4RqnaEDr0XmKbsSGQgMLTKQtK4l7sXoSJOmMYuFAGz3+y11220C5+XDjWm2nOc4jpnP54zHY+bzubcUE4LBYMDLly9JkqTDRl9vFYi/+uor7t7/jtedCzTXc99QK6qStrFkhafs1q1FSo1QEq0CpAiIooTheIfTk2IrS/XkyROWyzGT8ZC2rTl58Yy69ICYjWmqzwAKej3vfLS2NQrvkbhBc1WVx6I7QQdW8n2CuvYAnjiOSaKIUGtqugzHgcDrDmwebdsieH2acnvKohBMdnZpmpZPP/2MTz75lCRJ2N/f5+7du52nfcW3vvUtfu/3fh8hBB9//DE/+clPPEy3LDGDhov5GT/7+EOC3oCdoyF3Hw04vp8w6ivSIEGZlLboUWSS2jYQ5phgTu1mqOUQOtixcwLTgmkVpnFYAzqA5eqaLJ/jTEPbWJpaEug+vXRMONjFUmBNTmtX2LaiaQy21lijmM+yTqIu4ez8lLatCZXXy8vzNTv7B8xfPaE2hvlyjQ4nrPOCs8srBnFKlq8wacp4Z8KRGjK7WjGbz2hkSdwPqGyDdgLZNFSuoWpqqroiK3KyJuPs6VMu7UtOPvyUump9AMhX9NM+93cOQCju3LlDkvT44HtrlI55/uIlF+eXNC9OSZKEMIhJhgnj0YiqKGnrcssnUMor/UipGYxGbJy6Vtl6S+755JNPeO+998jzktYaLs6vODw89IY5SUCe5/R6PXZ2djo6uscJXF1ddcjB3payfHV9yXK12Jr36iAIWCxWNJVBhRGL6YIsN6gQCuHLgzLLEeMebdvNIMHr6QuHVBYhDcbVVE1OY0rqtqCsM9b5AidanGgRykv6BYHaegwI4RWHVlnBaAKrrGAPyXKdMxhNKCo/jahbS5T0iGMf+e7ef0hjHL/+5DPS4X1kJxttnaOqa6IwIS8LlNIgu2acDmkbR0VD3drOc03Tthl7ezukvZiyLPwBxxKGXjsd6ScKWVZsnXeEEFuRy1oZWqVQgRdGUcITch0G1zV4hBBoKdCxHwdqrTHOdjwALwxye4yqOu+4tmleK8duBwCfCUiuLqedzZW3USuLmufPXvDi5BVSSh4+fMjpq3P6/T4PHjxgPNrhn/zjP8MYw4sXLzg/+RWrYsG6bDFNQCUH6P4Bw/Edxuk+1bogMApbS6gVwnjVZ2EUoRwQ9O5tS7W29VZirW1prIeOf/TrT1mtuwBg225aETPoTxjWhnT9HOu8nJe1OdbV+P6oBhtx784DBsNdqrrl7HTBKss6VqNveuVFxXJVEIQxg9GY0f5jWv6avG4ZxhGz+TnDyNGPE6K0R5wYoiInkqAjhSy8MIhQAWiFUxIrhWe7WoiihL5IKC+X3p9gtYTAs/y0VJRlSVU1lHVDWdY8ffYVeVFvdQOk1N3hW2PamjROvPuVg6r29OnWWpDe/HMwGBDGEVleMl9OaRrD519+yRtvvk2/P+SzLz6nLMttCW06bMhGBnw+nyKEd+GWUnJ8fNiJnSiM9X/rwcEB+/v7OOfQb7/9rp+lS+9VPp97TH0chFvyw6YTnyQJjbGkgyEWSZL2sdIRphFWWNJBSm1qkn6CVBDFgfdsw1DVBWGkWWdLEJayyjsRxGCraJMkyfaG3AgkLJe+ueLFOHz9v1GIVUphhOPo3h1aZ3nw6CGNabn3xkOCKObR47fQQeRT9jChNpbGtNR1w2JZgAi2ZiVKKV/DlTlZkdO2XhWoKhuM8T2OIAiI0sR/3hlYttJ4jcTWA6rauqEqSqp17o0ku55C2B3+rQpSa70qjpSIrrl5u7eymXj8pl6Jn8Z4HcWN29JmBPnNn3327NlWgWYDDHnzzTd56623ePDgAd9+L6W2juliwfPTl1zPZ1xd5jT5Fc+CCFdA6CICYlyrOr6Gr32ddMyrz7brt9mInjoLUli+/1uPaNoDHC1BILrn6jOwOEp42C/92FIbgtAShJ3HoU6RIqGuNVKPefHyCtOseXV2TV568xGFoLZghEAEMXFPkRUNz168Qid9lvmUuGq4mrcsDFy5mMW6RYcRoXRk2bJrdkucMhCGiCgCa5E6RMuKOO3x6PAB4W7Nk5MXGCUpO6v0LMvYPxiSpj3q1tE0juUyI056CBUwnc7R2k8Mjo+PKfOCbL1mNlsQab9ei9V6K+hZliVlXWGNz/6KwmefeVny5Zdf8ju/8zusVivPaenOxZuP7vHq1QtOTp6xv7/P4eFhp2DUZz6fb3sLURxuoemHh4eMRgOvMJSmfara0EtHlCWYJkdLiZaKcOMTPxzS1g37k11UYJns7BForwyEhP6wjw41u/u7KKU4ODpgMB5isCS9HioI6A0G6E4WfHd3l16v191iytNBm5a0P6BqWqIkpTEWHUbEaY97Dx7ihGC+9H98Yyz94Ygf/M4POX54n6Sfcnh4SDzoMZlMGK5z7ty5gwhDz43v/g2HRsoAkF5UMekz2YuYzWacX58RSEW/n6K0YJZ7J+Ek8RF70B9hjaQsa8oyQwrFcDxmlXtVVim8mQnGYuqGtvLKLjoKPcahMTTtDa00iiKGvT7Lptze+BvhVLjBFAB+xIgXAJHu5nMAIUOsE1T1TfPVo/hi4jj2E4XkxrPh+ckpr04v+fBnv6LX6/H2+zGHx4eMdgZ8Z/8tdvb2ePzwTfaH+4jSshv3Ca1DC4sUBmsNrTU0znlX534P0YnCyA1bUVgQNUK15PkSh2c8Ku2Zn21bY6wvC9XlDGsNTZtRNWvK5Zp5kVGUDVWtOTvP2Tt4l+spTC9fEMiU48NDekkfrULipEecDqmMQ6qAq8WaaDThv/7P/yvs1Sv+7r//lwx6ECQp03VDKwxRnBIHkuxqSotAKA9qy60hcy2tcBjphVeccxzs7TGYaH7x8WdU/ZisKrh3cEw/TVmvcmbTFVezKVfXc7K85Oj4PjpMuby8pm0M89mCRReYoyBkmCRgPIS3NTev+XyxojX+58ra62h6MZeUTz75hPv374OT2waghyLnWxOaLMv45JNPuL6+5M033ySOY777vQ+23ox5nnuRnF7iKezzOfqjX3+KNTAY7VMWXie/N9jDVi2WhqqssbZlmc+ZDBLiWFMUDXGa+jQrxasFmZaiKlHKIwqDPGc2XzCe7GAcqCBENqbzAdAgQ4Qy7OzuEXTupiO8ZtqgI68k3dhjGEXeQ0Br4jTl66+/5s6dO5R1zYuzU37961/zW7/1W/z6k4956623+NWvPuK3f/BDvvzya95+5z2QAUGYgtA4NKWpyK8XDIcOqQOGowGtaZjNrqnrkvFkiHOCoqo7ufQVSuWYxhIEEUFQY1r/AiohcbitgrFtWtqm8Vx9pWjLCqcNMuoOtfPRvbIe8Si1QArvJy8dWy25TQYgO33U3yS6Yq1nvm3UYzZjUj/SbanrNWmadgjHkjAMOTq6gzGG8/NzyrLm8//+JXuHQ3YOe+wd9Hj33bcZJmP69ImN4sXpF6hmhnZTwrBAyJbWgrEKREjDbEv19So6Ba0pMG6NdRVBeIMKdVZgbIWxJcaWWFfTy/od1FuhtMPJ1l8sgDQR33rzEXfuH/DZ52t+Ui7Jq5Zef5flYu19JYW3iKsbQ6BCZBTx7gff4/f/6E8Iyyl/92/+FSqGwe4eg7BBr8+xAsIgxsQp67zFCKicI7eW3FmcAJRHIzor6KV9JrqHCgOSYZ9w7Rj2B97l+iChtXB1OePlqzOUCtjdP+Stya43qj09ZzabcXl5SZUX3udCeCORfL0i6msvd9e2lHXDcp1tA7kUmv643424PTfn3t27fP3kCW+88Qaj0YhIWz7//PMta3CnEwO5urri9OwVCMfdu3c7j8CAWecUFIYh+/v76OU69y+gnbOYF8TxmN2d0DcrSm8RDpa8WBAF8O63H/Hlkye833uHr5+f8HbyDqfnV+xbwbNnJzx69IjLy0taK/n862fEyciTT46POTk54eHDh7x4fsLx8THn55cc38m9pNRoRFEUfnY6mzEaeRnt8Xi8Tb93d3dprOMXH/0ag+AXv/gFP/onf8bl7JKsLbBS4JRkVeRUtmW2WlK1Da2ziEAjghApQ5rFiun1nKpuabRX/tnZGRN1zLjNjP/o6AhjDOtlxnK53ioax3HMeuXn9WHgtbmE9E0829bQNmgp6KeJT9VMQ9uAVjGxVtRY2rahKlpkmtK2XSNQCJKk83+rKtbrNVLfNAVvj1vBoyFHo9E2YGyAWKIrDYIgeA0u2jQbzroHP/3xH/8xP/3Vcxqz4PrygpMXX/HrX3zOz//61/yD3/oDfvDuW+ymBpt9iWm+JAguCaIakBiXIEgJmlcoERCI0HsgaIeKalRQI6RHggpCHCHOShwtiApkgaMkbSfdHye8zpQw1M4LZ7TOgrwmZE5brqjXGVlmudZzFouanf0932AtauarJXXeIPt3kUHM//AXf8lbe0NKAyfnFywaQxYMKZqGuqgJHUjnSHRMJR25qCmwZMKjKK30gK6yqsmzDFvnKK0hCIi6zIp0h+U64/T0jOvrGVlWIFD8+tefoFWEE3B0eIfvfOe7nosym/LVl19y+tIj88Y7uxjhBViatkYYR9uW3tMvDOj3+6xWK5bLNc65rTfCbDbblsLGeH3MJEm8ka3wor1xHLO7v09Z15R1TVYUWNfy/OUL4uv45tKY7BxQ1y1NbVkt12AT8nXB2ctz8swbTVhX07qGs1fnvPf+W7x4ecrb777Ni7NLju+8wavTKWlvh1enV3zr29+lqi+IkyF1A7WFq+sV48khJy8uePjoHa5ma3b2BZfTBcO9HaarBcmwz9ViRn8y4moxI+qnLIsMFYdcXFwwGo3YOz7EOkdWl+weHWA/ElRY1k3F5WxKfzIgbyqSYY+iKSlNwzLPGNbeoCOII6IwJc4qmK9BaS6uXnF29orxeNxFytF2djroj9DKIYaKNOlvHVWLzn9tOBxS5QvfvReya/Ypgo5VOBoMSKKIWccxaCpvSKICTRL5xkzR+pR6g+RKO4nvDdkq6rIG3G8GSxVFubUB01rdChLOe+LhtQuEaDHGG09UVY21jv39A/6rf/pfMFudcHr5EU+e/YSTp5+wnOXcOzjiv/jf/m8ozn5JNr8gWzY4pmi9prUCa1McKTsmBxdg2wrnFI4KIwogQ9DilYyHSDfECW/m4agxdo2xa5S7wFkwXhCClhIparQ0OBFT5A3Z9ARlEh7euc/FLORqWbLIrkjTHk2x5np6yXWimE2XPP7uI8Z7+/zkpx/x4B/8Ng/f/RYvP16xLGqCXshovMO6XBHHhkD1qBeWCkPtYG0Na9uirKXq4OhxnFAXJa9enFOaBte0xGmKsIK9nV1eLU64vlqQFxUIRRKnnJ1fglSMRzv8/Oc/55NPPqGXpoz6AyYT7z0hnO9rvbg89VwT4wO3FRJT1YiOVzIajbju5MCPj4/5+uuvefPNNzk7O6NQijiRWyfojWHqYOCxJet1toUQZ5mfpmz0BDaOx/rJyQuU0ggbEqc96rrhxZMTnPE1rWsNVVlhaZldTanLBmslqyzHOkEaT5heZfQ+2KEuBVlu2T94wJOnZyxXDVKl9Me7FI0l6g2pDKTDCXltUFFKYSoGuyOW5ZreZMD57JKgF3E2vUBKyTxfcrm4xgWCVZXx+eef4wLB3/7sxxSm4q/+3V+hY82Hv/ywQyH6RtiT58+xFl6dX/C/+6f/NVmZgYJ02CPOcsZ7Y+azZTeNkKyyJU+eNYyHo87bT1DlRYcElIx3RgjnrdON8YitMAyJhIfmaiHpdRE7DEOOj495/vw5w/GIf/Knf8qLFy/45UcfbU1XZGcIopIE5ywojWsNZZZzsLvH2dkZo+Fw6+AihCBQ2qvYdmhLgCiOPRkEr277WtPQeaWb1hjyovA1Y1WxWC45PDykaVuKAuJwwqMH3+InP/kLtIiJdUCoHE8++Qk98ZJq+TWufkqcvELpFlFDa66RqoeqHW2jsK0GERNGoHSLlQ3G1igZU+WWtnEEsocMJE4KlGi72ntOawRNJbw4iXYEcUsrWqwpCGVIGkOxWFAsS5RLuXt0zPrrz1ks5mgswtQoaXnzrceUVeGl2Zua8cEhZ5dT1k1LleeYVpNZQdsYSkqiQPLWwzdw45ST6Rm6aHmxmKHymqjfo56vGfT7LOYr1qucujFoLZns7TKymnydMeiPWOeZz4qMYzpfEEUJQuoONt73YKXS8/pPTp7R1CWj0Yijg0OGozEPH72Bcx7Ft0EYXl96uLc1juvra8bj8ZYhOJ1OtwrCvpmacnl5ue0leRXhkl6vx2q1RilNGHr5/73dA8qyJFsXOCvQhbEkWtNLU6QNMaWhbgymbjGNj0raCWpjiMMer15eoKTm8mqOUiFto+n39sgzCy7k8sIzr4oiY7kqePL0JfPljLIxLLOCZ6evOJteU1rDMs+YPb3eQog3ae7GnmybbmdrCtfS/BqvqrOc4SLN5WqOML6DKruU2BiDswLVzftVEFK0BUVTMF/PfHrUizhKDlCh4k7ijRdm08WWDTgeTrxddX/gKavGUhRlh0hUW2540zT0lNwGA601vSTdqu9Ya1nO/e89ODjgP//P/jPOLi746KOPmM1mvqFZ1Vs/OSc6KzTEttm3of22HToM8HiGzqex7AQvbk8CbtOy8zx/zYchCHxqGYah16AbNKjQIoOAQT9lXljKfEFTTYnkmlDNcWpOI5ZI03rdBgMaUK7Caokx0Djp2aJGEAQWISxOCepWUrUaW/epxQDVKowzGLHGacUwWCBciHQKaQXCOKRpENIgLJh6hasKslXB1cWCsL/LIrtEa8l8dsl/93/7l7z/6A5lNqcuatq+YLZcESUxP/vlLyhNgxXglKZ2hroRtE1DaUrI1wyCO9jUYKTCBo5SG6JQEcSJ98zUIW3TIJQk7CW0AvKiQBaWy7ZA7Ab0+94zQHRGtzoMsAZWeYaUNZh2a9cVRRFaCRaLORcX51xnOWkcb/X7vR/BLvfu3eO3fvsHPHnyhNFo5MVi6tYHr66MAyiqnDzPmS+WFFXJbL7sApXH27zx+C3/WjclWZZty8C2bTHOoVspsVKB0kjhxSFNY2hrg2ihNS1SgakbaB2fffwZRV3x2SefU1Q5n3z0Bat5wReff022rnn65MRv6FDTGsfPfvVLj3EepCyzJbN8ySpfkU495PHo7pC6rbcsqE0Q0EIjhaQ2Nf2Rtz96df6KrMyIezEqVKSDFDlIb2yRGre1yg6CkDBIWS8zpssr8mZN7QqyZsX+5IA07VM2OVGYEMfRtkZeLFZcz/z8NU1LRsOxB1x0KXkQhbcOlqCoS7SWGNNQ14LJZIRZNiwWM4xpSNMBv/zlz7m+vuaDDz6gbGp6/cSbeMQBxcI7CkvhR4IbTIBtfafdG6D6RqG7hQe48bq/WbcNZPq2DPtGzVYIsRV8aVuvFffJJ5/Q22noDwMGA4ESNYFqcTZDihlxskTX1xixxFKBL+kRbTeN0Jo6qKitpTHaK/IKCESF0C1Cgow0dRWxqhW2FggFOgoI0oQwcTi7QAiDEgHWaQQWL+JluiDTeQgsck5fnHJ4/wFFa+gPAqarC9zlGv1wh0kyYFU2rOfXCCfIq5J/8+d/jlwukK3pMiGHtY4g1AQigNxy8fKMpuxxSYGzliJv6beOpA6wAmhbFrMlrjX0BwPWUej7E60lX62ZFQW7uxVCesUeFYQc3bnLaLK7BasZo6mKjPl8TRIFDIcDdpId6qZkXjYsVhnrvKSsWxarjM+++IIo8PLtjx8/ZuetHdI44d69e1uHrZOTE/IiwwFBJ1WXZRkgePr0eTdWzHn58pSDg4POkHXE7s64E4DxZqbaBSGlNdi8ILIt1H5zCWNRTpJ0LjNRf0CkPUFiZ7zLsliw09ujLmqO9o9w0vHw4RudBp8jHfbYv3PAOl8gA4mONHfkMQbDgT1AKk+CiHpyi4ra3FKbjRsEHtHU6/W2TbFxb3fb4IpGKbm5MScxbQuh6zIAhVYgAsfF9JTWFQzGCYGWuMDQUlGZNbFOSaIEFQZbwlGWVayzjDwrcBZ2d/eJwhBnBWlq0GEApSBKYrLL+Rb9Z4zBSbGtybTWfPn1V/T7fX97K8npcz9aTFPv2jKbrnDGYpU3rsR5+nPbtrjGoUMf3DyPXt6Ig7R+zXSYgPSeBNZ5B6LNOkopO8KSwEnP9ygbb2aSrQo++/ILGvkJo9GAnUmfLJuhZYumxJpLqvIE17zAmhnSGhSdW7MD6wKECSmjkta2tLYG59eWsEQEXtC4ypbkRlEwQiiB0opWWVpZ04iMoQaQKBPibIiTBiksUtZIB1GsKPOcqsgp84KqzNk/OiBnTlBVqBb+/P/9r/knf/LHxP19Kgs7kwc01VessiUDa/1rJwWiFSA9QCeWDbYW6FZRtBYXKxwKpWJipwgiTeIUbV37rrkKiXo98tBhNoHZWOJ+vCWANdZQlV6+2wmfhf7e7/2eN19dLLi8PGcxn1GWOTYI0FpycOSlxaqqorWOarXamoD005gvvviC0WiE6dyK4jjmnXfe4b333mN/f5+f/eLn1HUNQF2/9CPEIvcuS0GKMY7z80tOTl4ipdxOCfr9vhcaKZuGpmrRtmKkeqQiJlQhjai8lZWpyPIVw90RVZazc7xDMkxJ+wkyUkSVZ9qtsiX9Ud+7vAiLigSoFDdvEIGgdTVBFNBYiIOAxtS+sxV66Solgi0MdguG6VLaVlpcIAh6GyVdS1YW3r6r9eMyYw1WOlSk/UECrDOkw4hF1nVNxwnOSvJqzjpzVE3GYNhZMLUOKRVhEDOfr5nPluTrnNUqQ2uPX1AIojDpAEPlFowUBAF5VVKbdns7G+etriaTibczU3Kr7LIJeEVZelEVY7Ad5Ro6a3QHBjBNi9NeHnvD8VdKoTsSiVIbCTa3LZ9uqzPdJA0OrRVBoLfvvcz4irqsOHt5iXKGWBqELinKM66nhpF+hWqnKNfd6GgQGghwTnoVZwlBKAGJ1Aa0l5Jzwou9qsgy1j0ivY/WipqKyrUYsfJtQiVwKsDKEO9nULMRhZPSI+aklJ2UW8mde7t89vw5Uq85iHZYliHLy1dY6xgc7rOsMlarJaPxkH7dkjSW1kJeGDAe9u6cl4GLdczcGIyQoEBEEaGIaWufJkdRRFtahFI4KTDOUDctTeNVhMuywm6wF3FMUVacvDrhxatXaK354ovP2NnZ4a23H/NHf/QjcIaXJ894+fIlRbbm+nRKEsXs7uwRRsHW5SnPPRQ4DFpvo15WnJ56xePz83PqzjwkHY7Y3d3l3Xff5Z13vsVo5Kdueb7m8vKS2Wzm17wzCnFWMZstuLi48qjUy+WStmjoq5TesE8cpUhrkbXA1KXHuaNQFqqiRqK87nrs34u2oK4CyiIjjCS1rWhdS7ZcoRPNcJLQ0NCgUIGfcxMIVKtpXYtzAtGhx7bMxI27qvBOKqsy898LFSJQtFVL3pQELkKGCmf8adF0KDTlqcvOOaSTNHWNFcJvNKFoqoqyqIh7Pk2KooQoTNjbi+n3hsTxnKpsmM9X9KTk+npGXXvPu73JjucArNcslwvS0KeKm/q8qiqKqtzeCu98+1s8ffqUy84vgE7JZUPUcI6ORmpxyuMJNmg6Ya2H1DYW2zYdz99DiTfchKws2NiGgetkwzc+DKKTBzMIKdCBBGGR3cdt23L/7j6u1Vy8moFQOFsRRJpA11h3TdWcEds5SrTgJAhPE3dYjDOEjY/j0oUIIrBgjFcdlkAYw7qAfL6iaC5ACWR0RdBbEyUtlQNpjfdLtBKsxbZeJr4BWldDx0QdjlIq19KaDB1WxKLkYJDyv/9P/xkf/+pnrLIlPSX48rNPmE0v2IlDhHTdbeyVfUMj0BpCFSCSCFaQZRmZVtTCEGpLLC3r+YzGGka9PkE3Ys3znDrZeDN66e+LcklZVwQ6QoURxnhdBil9pmho+fyLT/n8i094eP8uD+7dZTIa8K1vvcPOZMTjM2/f5a3PX1IVJXESEYbxjYCN6pCBWQ647cWjtWad16zzU16enm8Nc4bDIXt7O0x29/nd3/9DjDFMZ1dMp56ktlqtaFdLLAK9zgtsZdChB5GgJGGoCXqaIEoZ9Hz9jTQ0siWNYnJbIpzEVAZjKxbLa4qqwC0bX59rR7nMSKKY1kDtKgihbCpUHNA2LVJ7jrZSniwjlUQGXbMK4c2BhU9lm6oh6oQaalsTJAFBE4CGfGPZZC2tc9DipculRAmNUhqlvalp21YEQUwQKxorGUQp64W35cJJkqRHr9fDNrCcrCmKmjjuMZ/Nut6CYeog7cWeitk2UK+omxKH1y5sTI0xjdcOtA1ffvk5SimOjw8JY2+5VpQZUeyjPR31lw5JuLmZrDG0XSZhu9vdSQ8Y2jQCvynC6m9Mv4ab2l917jSb3sCmObkBGpkG0rCHdBWhDHCtD/JRKIjiFletQLZ+VGctzjVY2XlEypZeDdgezvURhFjh0IFCBAYroW2gvMg4f/qK1XyFUDDYWbJzd8loD5oItMQTzIT2JDMnfWB0vgeVJBGr1RllGVK4BV9+8Sve+u4O67bi7BdPWL/7COqKfLVm+fUXZKuayWgIdU7TVMimQYdeH6LWFi0MPQlaDknEiF7ryPsSawqs81gSKTVJFJJlGXvJgMYYsiLHJL3t2g/SHse7HlhVVy15VW7X2mPvG0b9Heig7EVR8OrVKy7OPBHOWsv46Nv0+30ODryDj8RDgl+8PGH9fM1ivUIL6bPJ0RhrW4rMY1Cur6/p7xx2isYeKzCfLxmNRrx65Z2B//2//zsOD73R6cHBAQ8fvOFt1tb+57V1DoOjNYami16JiOmnPfpBAq0h7kfMsxmDfp+qrmlpEY2PRP0wpS5LTFtTZA1RqhBSUDc5oZVYvOVVoDVl5SNXUxWkSQ+JpMrrbfNqA4ncZAAbfsBmw24aWOOxb8w554iicNv9btqKtqoxxoM5VCDJVmsGgyGBVORNSRpIkiTG4RmIsvG6+ev1mjwvicKUMIy5e/ceo9EOp6/OieN4Kwoxm80w1suFBYHm4sXKN/GUIuo4DBtWoAw8PDMMQ1bZmqzI2dvb4/j4mKZp+PLLL3l49IZP++yNOOqmh9AarylP505Mt/GMMZi8wOJIB/3t4b8NErr92AirbtZ4gzkIw5Dr8yn6YIjAU5zL4oqmNJjGe9D3VINygPEKbdYZ6A43AkITg0lxbYyxAUI0YDQCgwzACpiEI0x/j6HYQQbQG/cY9RX9ZMWUCotAKu9juCU/yQ7ybCxJGjNfTJlONTZ0nH3xlH/8X/43rFvFV19U/M1f/xXvvfMmFTG/eHHCwcH7BKOQ8+dfE6sILQrCKEIGKZUymDrvLpqOpyFD4lizLipM401vnPQyaq5pGQ6HuGyNzcstzqIsa0zse1NpmqK7PkMQxshA0zQty/WKq6srQq0JI01dlyxt7T0q4gQh4fMvv8Q0PhgMh0MePLjHowcP+dEbPyLUAfP5lJfPT7i4PGN6dc1yOce2LaPRyO+r0nW4EYfSG2pxyWxWoJSg1+txcXHFy5enOGe2zsa9Xo/RaIR4++7ElVoQjQdII7gXjXkz2aO4mjOv1jRDxSqoKNuMQLbs7vXp35uw6FnOmhV/ePk262LNar1m/84R6ajPMltSS0PRZET9iHQQg2ppbIkOHE56ncAw0gTRZOu8uwkESgXbhfYd7Zu+wAZSunm8xo67dQg2ogqbsuKb5iQ3DkVrmtLR1BJl+0RqTKR20a4PJuSLz5/5cd5yzvX8AkRD3A9o25L5aspQeRESECznK37nt36Hr796ShSGTMa7nLx84VN96UAKpBYI7ZuNQkrqJvCadnXOpJ8wSmIO93d5cXKGDGPOrpdMVwW5MaS9vjf2sA2mKRFY2q6ppXXYEXUkQRBtJwHeE0Azu76inyaMRwPWizlRqJlMJpzYX1NVY1TwEKqYpJ1yqD/j//zf3OPPfl8QuK9Y5Q01EqEPMbUishUDuSYwhTcgBRrhaISgFc477XXll2taAqG2691a4ynQyjsdLdUxbVWSCkXkDKbM0U6iVUzWKJwek9UD/u//3U/55HMvdCrtHnG4xz/9L/8PnFz+K+KkT2MDXp4vWZSSlpRVrdHRmMWqpKwBIbtRWkUgBQLLer0kHnnl340fwkbOXSEIgmgrdSecvGFpti2B8mVYJdqtVL0fXXvOxXK59MSddLAlY/X7g85i3G1Jb8KGN3vWWeq62WYRQZR4u7r797n3wPMAXr58yddff8319XX33NZb4ZvFYrEdC2+C/eYi3fSObo+MpZTo8d6YWgv0aIAtGqRR1G3lBRCrijJX1EGLsY5ASnQdELYRiRH0cVjbds0Pb1YQ9mKGwyElDbPTawY7A39bS4l0Dhk4RBcAglBtwSubFNU/Mf2a4tDmoG8/vmUvdhsbfxsE881x2GYRbjPthBC8bk7sRUilhEBJtAiRqiVJE8JojAodZbXES6n6Q6yDAFUprPUvqnEOYxuWq4q6areTDJREKBDK/yumk5kWMgBeV2CqysaPdKqmcw2OMZ1RZN1UhFoQyE5DUcubgIe3rGpFvV3DMNT0kxRGY5I4JNIBZddviXRAUEuKugFTE8uUNAo9y66uWWc10nhRlVAHvmaMNKFpEa1BaSicwwqJkxIjvQaCE93r4yRCat/Jw695Y6DtGpwOR08vsbYlVZpQeGqsMd6Rum4Vq3xBq2IGB33uocjLEct5wMWi4cMvnvD99+5xcXWNsXJL0z6+/4iBjfm7n37Ezt5dlPIBwK+Nf93iKCAIlPe4jPy6hx2CU0q93SfOeS8Bn5XejJkb0yJayTxboLWm3/eY/TCMWa/X21n7gwcPuLy83Cr6bub3Gx2MUN2UbRsiVxRFXbC0fPHFF/z85z/HOMvhwTHvvvsu3/3ud7f6GB9++DcY4yXejTFbTErbtl72vctc67reCppuMDZKKXSrW1ot0YFDGIVoBK5rKmkRop0kRhPLkH4g2dEThmKXRAdoSvr9iNr4bmkcx14PDV/zZFnGgTjwm1sIBMKTgYRXEBaom4bfrYPpJbf9m58MiNcOt+i65d+8+W93vzdvmxHJ7QByOygg8FSe7t9uXIUi8+rHEpS2DIYxUTRgMI5YriKKOmOdOVrbUq8z6rbxQqnC0bQVQLfYnkK9+Xe0VkihvC9f46iaCqlCZOe3uOniN01DXpXYqsGIgNZ5sxEhFc42PnAoSMKA0hmc9b7N1vnAKq1FCL+mgRRopeglKXGowRpfU0YxcRTx7sFbPD1ZM1+2GHKMqkG3SLxpZ7mA/hhKK1itVyS6j7EFdVMTh1BJhxMGKwVGSi/ZhgEkUliquiRQCi0VQkmcVH7qoyQIgc1XiAqc9oGhzKE10LiGdRUyqyQlFSYdE+wNyc/h2jperdYUv/6C3/pgn7K2nF9dUJqA3d0DP6VZttsDJZREqoC2abC2I5ol3oYcYTqwlduq/uIMYRCgpM8e664E8510ibVqe8lsSqyiKDoORkVRVNuya0OR3uznjanHJljFwY2DthACFegtrgVjiKLIa/0bw2K15C/+4i8AGI/HjMdjkA1vv/02v/f4MVJK73N5dsbV1RVSd+Y5QNxdEptsu6pr2qJEF7agaCxNrZBGMJZqeyNpoWmLGpwmVjE9ERAXCWquEUaipOfy56uyw037lOnk/CXzbMFivdim4k7eMNmE9GILHvEX/j2Si3M3Kbw/rLz22BzlTVqzeX/75t+83c4OftNDSo3QfgTnANdWVM0S27YEMse4JUIlpL0dorRP3FdkeYSOJEI56i4T8JoOaovqiyJwTtz4ymtFYEOCqGvmWQv4ppwSFmUb2jbAKnkT6LrbarUucUoz3pkQBZoyXyJM4xWE50uvJuQMrgO6+ODm169whkwHuLaF1uvoS7w3nRKSveEOs8hRS5+NCddg2prWOhCKxgFKs16XXM9K9iaaOFBI4zv8bWO3uZOxHnBjgM5tm9Gkh9zqSOIVqE1LXfuMZRJCY0ELkBa0Bh0qomAX1w6IwmPO1inRbIUSMevzFVWsMf2A61bw0cef886777EuBavrNW/cvYeMB6xePqfX6/mSQWvCMMKEGuksUvlnbK0lDhRpJ/teFQWrxaIT1Bj53td8jnWb18sSBAqtbzQkGtcZv5YVZV5sezRlXoJ1PH3yFet1Tt1BfAUOa3zPrXaORvvnEQYx/X4faSzr9QopFUmSsFgsuqwgYdDz9fsmmMxmM8JY8OMf/5i/+Zu/IYoi7ty5wxtvePcprTXX19ce6TqbMZ/PvXDOttRW6HSSUFUFtWjQQmKwGOu161pnSeMexBFJEDFRMYmLUIWHbSoluJJTmqamqApPebQtp9fn1K4hr3P/wnfyYRa2M3r/Erhtmn77sMpOh2DDYf6PPdrWfqN8uOmKG7MZRnU7cvPR7WDglIf3BhKExCCwbUnTtjRk1O2cogyIUq8Im/YCdNDHCe9r0Nvd9TdH2TC9mmGsRWpNqkJAdswtcG3r1ZedRSmBxUurI+xrAdDisMIHMqv8TRDHMbV1mKYlHfU5Pphg25IiW7OYr9DOj0yU88xEZx0Oh7MW41ry1Yq2qWhCjcQRRwGhUDRVyemXl5TXLZHYJUgSIlGiWkXTOrLMcXEFjWq5mnv+VBwbEhHS1rACosQ3+sDP/f0yb9ZcUi6z7dJvdAMlEOAxT7WAVvqOv3CavBU0bZ9G9FnUCaUKOV3B9VwxWwlWucPhBUOqxvLLX33K93/7R3zngz1Gr6492afye2GThoexP1xCCKLAa/ir7jnHGuo8Y5VlrJdLpDWkaZ9eEhOHAXmeoXWA1KoDr/l9uZ3CKAhChRBeUNZaux3zbiS9fCAPt/4BxhqMuRkbN01DNIkYT4ZYA6/OTr3py2RCGidUTUOer4kiDyATqaQoCn+w52t2dnaY7OxSFAWfff4Fv/ro1/R6PYbDIY8fP6bf7/Pojced/4SXET89PfV6AGk/IRMGE3YCFE4gnSDqxwSJoIljRBiR6pCe0wROYkrnpcIDyaL0On5CCF6evsIqx3gyRieKJ6+e3dQd+JpGSOv9yWyDRmNdta1hN2m5d7e9aVj8/RJAbTdUVTWv3Zi3YbHfVNP5TVlA3jQoFEp2irzCz85bUUErkGFJbRfkJTh66ChGhZIkDTA2IVaBpxGHPrVaL3PCSPv00fpOsnEbdWXbiX6IrqPvIcvCWt81v1ULtsbLihmnmEwmrMuKxWJGEike3jtE2oSni2uk8GIkdNwBi79JN4cx0SE4h6kbamuQwpGGAVJAts4oFtcUVYBMB7R4DwOlY6J4BxWn9Cdn6CggHrQM45Cwf4iThtq0zJdL6k3Q9lVep1cvth4JoU66pq1v7spunTc9gWW4Q21qhAloCri6zpjNW+arhovlnM+eP6MSQy5XIIJ96rUjjhRRk1GVhmlj+f/+D3/Ob/327/KHP/pf8eJ8xqc/+ZUfcWmJs4Y0DtnfnXQGmxpn2q1WY2Jrnj59yvTi3BNp9vYZj8c4IWiqkl6SILvLqOm4JtbfLltUZtu2Pvu5pZgthNvKv20uJefcFpCzKVWV9YsXRRH9vmecSuG2hLHnz58zGo3oD0dk2Yrr60ucc/QGQ4bDITt7u+R5znQ6RwjB7u7+liMymy3467/+d2itvfntaMTe3h4HBwd88MH3vCbg5vZ12hte1m1NKwxxLyBOBlyWOUY3tFiyRlLVDY2CWgbUOiBJEq95v1oShprBzpg7D+5S0fD8/IUHshiDkx6q2poOnNL6OrVu/n4Dz5jXCUHuG1RY3Otz783ibsA1/7ED//cfHhHXGoNWIAMf6YW0WGGZ7MZoJZGyonHCS3npiDBU9Id9qtyzDKUWhEmIzEviNAKjKEsPB1ZS4CwevltX3hSkI/TowN8iCo3SGqkVDtn50zfYDgwVRRFhGFJVBVcXZwjbsF7OEU4gnPWqPHTiosKvkXB4N18ncEGAEmDb2gOFHJiyhlqincK0hnW9otZrolTSuj55lbKz9z0qSmKtUSS0BKyqAtdIVJmS3N/zv8/4jEMadyMd7wRGhdS29UpKRUtV1ZR5RZn7zvnPVoY6K6FWVGvD/CJnvTTkBczXDpmMiAcJWdaS9gU7YY9BkiKDjMYZqgr+53/7JefTgje//dsIGXB5PaU2stOQzNiV+6Spv6Gd8WPQwWDAeDRA5ktOX54gjCUIQ/pxjJbCa/xVFb1e4vETjaGs/XNG+otys0eBbSDYXERJknT1v8fuV1W1nXRtHj4T8c24usiZXl4gA0+AG/RbrPPP01rLajFHBppAey5KVeScrVeoJNmOdKWUNMb43kGSMByPt5OAuq5ZZRmzxYLPvvjiZvcrpwhUgNIRFSVFVbJ0C5wNCOOU8WRILQXaQli2yMqBsohRSDRK6ZcShweG7O/vc3T/Lv2dIadXZ16vXGsvmKlBO4sOJN7Z3qKV9qnfrUaer/3dtluaJMlrAcKPAW8WcWPCcPvGvz3y+02ThNtBIk16tMYztpSEKFBbD8CmaegPeuA0xklMa7F4v3gVhqRhSKhsZ4UtsaalygtsK8jzgixbYaxDyxCpxLYWNsYgncNKSds2aAla+GaQkjdeb9aCUZblcknSH7C/v0tb5Tz56ktsk6MkKDVAOIfAeN0A6xCyu/6txbbGp6lKoyVUjcfYeyUjQ142uCBGaAVti8VR1oKzi5rPPrdEYc48X1LJCKstTWEJ64YBgtDEPL/MvLNyY6BusXWDrVsvIOsss9WapnVUTYcQbPxbU4Cp4arfp1xbpBGoJsLVMUkwIh1MiPsSnfaJen3s2SmiNUjRouoM8im6NSwqSPvw5Vcv+R//p7/grXe/Q7835GI6Z7VYYJyg2j/EtDV1XXN1fYFzjvFkSBTtkc9qnPG1fRKHbLT5jDEkUUTTieBa5zvpdV0jtc9OrXB+kiIVSRht95ZP/+vtxKCuoO1CtFQ+M9o0e4k01rXM5tesVitGoxG9odcNKIoK04GIyrLCFgUqDF4zCj06ONjW+JvR4obpWZalv+W7LGRzVm47e+vl9RI9SnFodJLSA2QjwQqu8mt0PCAYpJRlTVVlXF2/5OjBPVwPSlmSuAit/KgnjmOc8Bt2o1gyn88Jk5BQBRjriSQqDFCdDVUso22ZsLnRQb42z1fdeGYbJFp3q1/gaY8+AND1AvRrTcAN0WjTMLz9eZZlnZCHRxA2jbcqF3iBSh9sGqTTXWpuqFvPQZdCowMPLR5OhlRVgQjgztEhZd6QrzO0iqnrtov+3vMtxDdLq7bBOYvTEq0Ey+WS4dERVVPjhEKFAXVrUUCSRNR1SdvWDPoptoFhGjNfGkzTMpqMKYuawlUkabrdfMYYPvjOB3z0y59jjMOZBiUEgdYsZnNW65pkIsD50qwxDqtj/u1f/pK/cyVxACoFlyasWkWdG4ZRxF4QIcqMj9MYGoMtCg6HE9bTNaNeSpHVVKYl6e9ihKC1kra1uNohjSASAVpoipmiLkIGYZ9q1fD+t7/PneOHDIY7JIMBl7MptWtRYY8sm6FcTRpJfu8Pvk9d5Nj0XabTGeeX1/z85x/z9OSC4WQXkERRSFG1fPLJr6nrmm9961v8wR/8PkVR8urFSz799FPWr04oiqLLriqvrtNLsdZ7ClZNg3EbAw+/x20Hx22MIZCOMAyZTqcEgVf13fJD8g2wqezk0poOiNV0E4ObcaPHq0BerCmrHNv1UTZjvU3/wOP5fZ9ICIEzhp3xmOfPn+OUIhmNWCy8Q/ZgMPB9jVtNcSEEodbITohXRyKgqSy18PZWQvv6TEgI44AiKKmw5M0S6jVzM6UnBgSxwPYjZAEWg3UtVYcfEIGmtQYhJUGXmljb1b84tFE4PCowDG7Ub2/S+ddreXidKXj7Ft+kOLfHgJvotknR/kOlgEeceQqOFQ4pwDjnIcg4hPVjJJwPSkiBaxzOtOAcLS1KBKAanGxwyqICUJEktL5EwILDePKI8e7KvikkUSqkcH4k2nZc+Kr16+I6BGAcpyzzHHd9jZYW6WqqtqQplkTCcvfuY2azWSddnqHDGGf9DNg5h1biRmlZCoi9elBd+8nNeO+AeVmznl6ikog0ANNKUCOGyZCyXLIuHU2Wsiagl05YlWAyg11rqsM9MBZX5sxLiS0CFktwLiXu91hcFbTKlzXOSpRRBFZhUEgRMAkuSNMxO6NdFiLn4XiXN+4+JOwPKXGczq9ZVyWzaoXTlt3JmKODMXcOdzFViZAheZ6zd3nF9fU1Du/XmGUZ0+mUnb19yrLk8uIVAsvVxT5CCM7PzwHBP/zBd3n16hXVl1/z6uyMVVaQ9nuoIKRuW1Tgb1tnBbbzwjPOYo1D+EHOFv2plOxQgmXXH6hp2434Z/06mG2zj50nFW2g3ps975xnHVZV5UvFMECrcIsfcN2+Hw779Pt9Xr2SzM5Oqetye1leX1+Spilx7CXApARrzRZopLVGi9ZiMMgwpjdMGBCg1iVVVdI0JcnBLk0sEEYgjUKkEhMZhGppFEjZ3xpgGNGZWWh/uHo9L01UVRXOOpqmRFpoW18CBKHtDtfriL7Neb0B+dyk7n7xbk0SbgGGbqf2t7++abr8pnLAp1MOge3wBZ0jsZP+nd2gBgVSggw8dt04fzM3rsa6itZWWCqC0JthSKcZT/qYVmxftMa0GNN6RKDQ21GrsF5tt+nGn1Ju5sKa0rRb1de6XBMqy+54iB5F9OOA5Xrtvx/6F90JL1ZSNyX37t0j1AFHR0ecn76kqUpCnRB1t10QBJSto2oNIpCEkcI1BXVZsbtzjx++9y2Ggx6zqmYuFBd5zc7hXebnc+r5gmK6YFZcElmBtglBUTEJR8zPzz20lQRlJUZ5zQkpAgIREKEIjEBZyTsPhuzvHRFHQ/727GdcfPYz2tUU0R+ytNCkEfOmYFYsaEVDU1goA3pqj2g8IClDxsmYMBkTp/72K+qKJEnY3Z0wGY+wbUtdlzx9+jWz2Yy7d+5z7949Dg8PWSwXOKFIhwPS9YrFas1ynRFEHoOSl5XXY5Byy07lFqouiWN6aeqFYPEHbIMsNMZQlaX3S2h9AxYJzt00e60zXRQQXQnnsw1rXYdcrGmCgNilEPn9KhVofJZb5Bl7uzscHR5QVyVFkZMvasLu4K9XS5w1KCmwHR5hczEGQYDe2xlz1eSUyiPghLPUbY0pcxoLrurROCjrmghH21qmVzOy1ZxMO66//tLfKM5sm1s2UDTOMF3OOLp/hFWOIFY4aUh1jNBehkt0iKvNYtwc3ht23SZa3lbC3UCB/dQi9Jp8Ur0WRKy14Lw7jfP5Es560Q0/lhKdD18XYOzm8IOz3X+E8CWBpJsdS79GYtP1FmRFSUtN0+YYWyMCh9QW6SSjUR9j8BoEzstzbepL4zr5b90hAZ0PQEJJb9WORHYsw6TXRypF2zY8vn+Pf/THv08oGi5PX/Kv/j//zqsX9VLfL5Fy20E+ODhgMhozHg+xtmW1XjAeDFA6AusYDvvkUy8/rWNFpCy2aAgNDGTCbrTLH/3wH9KEMYsg4LPzc3q7+5yfXlJMF8xPr0ie/VsSBKmFtDZ86+49nn6muLq6IFQ1TSzxFaUPsiGOsDHI2iFaQ2/9kqP9HpN+yldyzdnpJbPL58jJAWY4xAyHlGFIqyzrpuX67IxXi2tqITg4OKC/pHN3jtk7OEbqELVcMplM+PZ77/lDUlQUhdfWv+icdJvmDoPBgNn1Nb1ej8O797BSUT596k08hCRNA8q6RimNDiWh8nRxrb3LFIBWbCnZm71qbLOdCGzgw+GtTNhnp68b424mpx4zpvBZryBOEoxzNE2FMQ1ah+gw6JCcEdOrSwIlwRoe3r/HcrnkxbNn1EVOFGiaqqTAgTXbi+j2FEI/euM+cnHFRbXE2JqyAdVUSEDrEKygqQy2AtWEUCnKWcvUFKxEy6BKCcOQ0WhE2TYUbQ0CpDOdsm+BTgISGREmnYmF9nRSpXzDbXPAb1L5m4N8GyW1nZUbtum+ViG3H5ub/XUuwc1C306/NhgFOolu5/wcTSEAdeN5JwDrx3bO4/iQQoJwSGmR2mKlQShLFGmUdlgHg3FKU9rtOChKIrIs9wYQHcy3kT5ACeF8ALjdEG0a0rRPtrEVc5Z79+/wve+8j6vXhLT0+glVU5Nd5Rgn2NnZYTAaEiUxk8lk6w0wm82YTadEWjMeDWhtTRAE7O/tsKxWrMo5dZbTw7EThtTTJZ/++1/C3DB5cA8Odnlx/ormxXOa2iAbwTybMQpAty09Y9kNNW8fTOiv9njaLFnXBVYFlFhqHFpGpMISGomwLda0uOmMsndK0Otzf2dIFMS8WjWUTYFWIy4XM5p+H+EkcRDT1IZiZVjMa9KoRlSK1lUESZ9+J3ZZFAW7uxPeffdd5h2QJggi9vb2+PKLr1nlXrSjbVu+98EHpKmv+Y2QrMsKKy9oW0NrHTs7uzjk9sb0qf6tfpQtO5kt70S1oWqLzYUjNgIxr8Nxra0xpkVLiXE3EPWbLNaPujcKQHV7233bcPtxcfaq+5t3GQ16mDtHrNdrVvMp/cEAnKHIVtsS+3aw0q0rCRPJMOkhA01SC6SVNKuS0jjiMKWuK9qqIbQhPTtCuRAj+8QBtMtLn3K5vl+IqgStKGxFkMTEiR9RhEFEFPn604kbjTvVuQ/dPrjO3ZQE/knfpEy3D/pvGvl9M3O4/TO3v759AV3THX6BM57AYpFdEBDESegPvvOgGmsbDIYOKEeQaIT0IiRBKEFLlBJgLXHUo6QhCEKSKKbX75PnHhySZTlVXTPLS6w1PgNxXY2Jo7UG4wSig5lqLYmjmNPTU/5//9P/SCRbIgVhFHm/eCWpi4L5ckGvN+DuvXu89fbbnDx/znK9wuAIOsaaxXUmETlh1KMXJ0hdka1WyLokUA6Z5WQrw6+u/5bDi3OiR8csbM7z6QX98S6DuE/VLKmswuU1s9WaNoo5uZyDThDxgLqtKVpD7loaIQi1QQYSGYTIUGENWBdz+nJBVb/g+irH6gTXGBpnCCqLFAqTtZi6JkpStBpQ1TVi0VK6DJWk5GWLk75JVpQ19S2NSdPWtE0FKezu7nS8Csf1fIFAESQxVgqQmv3DQ5Jej3uLBVdXVyzmK3Z3dzvQTdldQP4V2hzq4ch3/z28ONnKum+b0IatDl9RVN37YrsHtVSoTWfe2W15IDqQ3KafJZVAiNcNZArYKksJZ7m+vKDI/Of9g32caekl8VYKzhmLVAol1VZEVl9cv6KMNPRCdKhJgoDUhbRBRda0tKWlXre0a4uSIantEdFHSuiFmt6RojFeLXXTyIuSBGcESb/PcGdE0o/QoULHyoskmAaMh8pu0pHNTe/TpBtIrz/orzfyNh1Q0QFOfhMF9naAuB1cvhkcNtmI7ytIpJNIP5VHSYmSIWAwrtpmFU5a3zMQAh1EWx0/HYCwCoRHeqlIEgQKGYbIRBK3ZpsKAkgtqZC0laQp/BRjo//noc2avBOa7PV60NZ88dlnPPv8VwwjyZsP722hxpPJhCAMPS9cwLAesVwuuZ5dEWrfQxgOh1vItJeNXsPyit4kIYgFiQLRFMjGMuiPOOoP+Oqrr5mvp+jrXfSDHT779JfsHR2Txil1VhEcv4OgxNYzlAz5xVnGwaDHun9EJkLOswVr19BYS6x6lLLPQCZep6+pcBcWqQ21hOlCItOQojaUbQCFQoca2Qp0KYmFpK0tZlmjw4bQGlbGU9HzPPe+eK6lab0L7ueff4pSytuIqYCqbtmoPikEOgx5cXa2lVWPdMBgOCTtDRgMx6xWK7QOmV5dk+feA9Bafytv+lAbQxa6w7gRcd1kDKb1B3aTPWzk4DbZQF1WN/Tvtu2CgNgGgbbtzocQWMV2v28CQ5lnpHFEGkdbsxHh/Eh+f3fH2445hSTY7nkp/ZlCK3RjfUqyXhWY5QKjevSjHY72j7BByPPZjDQQJHHIXnpAW6WEccpSQJNodocJ0/kcqRVZVSOjgOHOhKgt6I2G9McDgliBdIgAtA5wzmwPuzHtdk65gfJuzvPNIb4pCTy19iY7sEa/Nuq7fePfUH5ff9wOBGGgsUr5qGIl0mqUUGih/azc+tr99mRCStCBRAUKocAoPJMFX8M11hs9WNd23X6FIkAoS1Mbj0+Xnn/Q6/WoBNA2tN3G0dqPPZUIqUuPdCzLkqZcEWFI+wnWFJyevUSpXYra+yZ64IsHq3z55Ze8evWKJI2IQ09ZHqQ32gph7N2YqgKWixlmsULZNWMBkVQo20BVcW//gPNyQVutubv3iDSCNBVE2hIJzWeFJLYJmBprBK8urnjjUFJXhlkJKxJWTlFbR2hDahtRihhlO5SjHHPv7kPef/97nF/NmK5zzpZPmS9WmPqCwfExQRQx1AGhilmXC1RuGLqI+4N9PrMzrBM+5V03xKEiTjSL5Zrr60t2d3cpSy+RbZ3CGEtOSV239IfepHXDprsqqi37cjIccffufbIs6wQ0xfZgJ0my9cvcTFic8yPe7Xy/e4RBvP3Yq1zflLvGGK4uLrfegP52M/j2lYd1K+Xh7DcgOLZjQwDTeDWhTc9nIxeeZd4TYEMH9kHLbc/Jdgqg7xwy/foJtjBM0gmBkrRWUbSQLackdYNuGmpXc5U9pepXFKakofV1YB5D6LufduJQWtGEOaNeShA5VFxjOzM70xiqxi9EmqboICBbrnFOYu0GzXczEtRabZ/w7cNrnXfeda1DEHU38U3GcPtn27ZFbIE1rV9AuantLUXh2XvyVpBpus9xbPnbrjUY47AoaJWXlgO0KHwwUIrJJOoi+ww9tKxcQV5WhEGfOBoRxH2UVESyTyihCRTZbEmSJDhrSdMhUdgnX+W4ykC75qg3xGhNbVpqNE0L1ytBGI/ImoCoUUx6+wRthGlAG01deINXmpLZ+dQ3yZKIsi3Yn+yTm4rL5ZyoF5NnBUpK0v4h+TLkql4T9GMEOfQ0qa7oN0tGNubhwnEwTWjDlMveiJUTTJonhGFIQeabdZOGX5Yn9JKYoBeTTwuqLEcaQ15coXt9Rsd3UQNN7yCiGLTMDzL+l+nf8Tu/9wdERvDj/DPKoECEguvqJcrGjA+PqV3Jq+aKYCfEvDGiejTiTuEP1HQ65fJyzSqrkQtvkHFwcJfpMkOpmGppqKp8S9ZK05SiKnE2JsuarsnmD3RtWy7KK4w5p9frsb+/z+7uhNVqtYXyzudTzi/PuasfUJVZl2V43L813vMhz0pIPbLP+waUxHHHMOxwGvffeMhisfCckUwguh6BaekCgNoGANVdcLZznTbGIGxAskEBlo44TRDA9HpFmMT0+p23hBQdJLz2QrOBb3Dq58+fU9Ytk/6IKEop1w3TdokcaoI4YrlaUTcVtW1oVYtVHrgSRhFBFJCtMp9SKLmNKlHn9RfGXRc18OmQVN7AYjOr34gpws2obvP5Nt2+jQD8xhvgRyu3fv6bNf/mAN9Om15rArpN+fCNkkFsCEWdCUeXlmx+Rm7+nW5UaIWfJmwyGSHUthPcNA2CCmc1WvXoD1KCIGI0GqGk9IaibesFQoXPLuI4xtQNDo/k01KCjEAr2m6W21rjR5dl4ScwuO36G3PD/d78rYHc0FPFFpdxfHjA6cU58+mMUMNgNKbMV5zlK/aDgDSKiHp9jHU8ePQGo8+f8NV8Tmng6O13GLS+xrSu3XrOKetoreNwf4flfEFd14SiY006T4iq2oZiWpA4Sdk0KK346S9+iY77xGnC0VHCdFVQOUFe1ZRnZxip/b6pKr7++msurq+4f2eX4XDIwcEB4/GYqqqYTqcsl0ueP3++JQFtPCY2NtrT6bRz2t1lPPZKucYYFouFF9sw9XaUHccxw2Gfvb09tNZcXl5ycnLire0OvT16VVXbMnZDY79tAmNvZXebG9g5R1n7/y+Kom3m4C+hm0ziNozl9shbSs/I3ewxpRSBCbccBeoaMu81GIahJzTdyoqFEOiytURpynBnl0HYp1Q5qpG4QCFUSO5aX3uEAXESI2KJCXx9q6OQQa8P8nZ67lCBJgw7bLvZiF+6bTq9OWAS0Epvu/83h0dsI9xtw0v7jUMI0DZmOyH4ZmMQ2Na83/z/Ngu5pRF/Q2NA3goAAOLWwgshOv6/QItgGwiklKhQEQTd8zXAQGFahTWWui4xUiJFjFKSOA45OjqkKT28uMoLPw3QgjAOaITDdVLjSiqkUggrkMZvstYYWmGwdUVr2w4wokDGVLWjrkuU8qnqRhkokAqcpa1qbNMSyxJJ6/EMQhNEIa4OaIVCJz3WZU2qNU5Jzmcz0l6P4npGEwa0ZYZMNGWe0RjHfLnk7vGxp6pOZ7zx8AFOwDrL6MURsQ62bEdnLRdXlzw6irm8XjHZjfn8sy8YjnYRYUoySFClZT1f0ApNuc6xUqHjhKZpePnqBH0Vc/L0M/b29raHeDQacXh4yPHxMb1ej5OTE8pOrEZKub2cvIXWAB2kzOdz//u0ZjQasbPrtfM305Omaej3+9y/f5/JZIJzAik1UZRsO/Obg745+Bv9gI0a0G3Oyu39B76PsPl+URS+669biqLYNh5vu0HdbpAroV4Dw232tAqDbTlgbDeJ6ngHUtwgA3V/MPH1jPBgjf54gm4VrXFUdUHhWmSgSPsR6SRFJ5pWeesmpGC3P+r+DE8f3lBa6fj/vV7i7aS71MZ1TzAUIULdGFpuHpuPb88rv9m8u72gwjq6wqgb778eAGpb8s2HB9l1SMK/993XH9tF/8bXxIahuG1Q+ucdqKALcC0IS5RorJU0FVSloSrXOFuiVIRWAaPRENtLCELFcraiKUpMC3GsUR2waiMXBR0QpMOiK2ug9RRuZzfjxBvJs01PxbQtDQ4tFc74TKhtGrTWlPmC3Z0BQo5ZrFfUrSUMIoLBmGC0x7o6wzhHiOC//df/mqY3IIq8/NiLp19j94YsFgtaa1jnBWlnjzadz6iaFqk1VdsQOZ+9WPAlGZZVmVOLhKevXpFMDpivChqRI0OHDA21BaVjkrSHKEvK1gtk0NQ0VUuovfb4crliNpujlGI8HjMajZhMJiiluXPn7hYXv16vWa1WrNeZp3anKb1+wHDYRynRQYEXrFar15p2y+WSoig4ef6S2dTLbi0Xa4qO0LQZPW4gwBs0YJ7nr9m9b+C8m9J0k61tmpCb0tdaSx2022zCGPeacI7rLpvb6NcN52ZzgUZpwu7uLufn52R57qHo3SYWQnj1aSHRTW2xQrJoMmwomfTHCK2o64KmqVjUORoveQUBoQQjfSccJVln69c69htrZxBYAYFSW96/cL4O2dzozjlMY7eL4yw07e2bXlJX7Wu8gJtO5kYwI/iNCD/xzRv8PzAR8Aaar/cAuBUgNinbNx/bQOUEznVgIueFODY6hv6FNmgdEycaIRzWVlhjCCOIowDhDEkSEMe7RIFmfj1FKUGcBLSVx48XuR8dVa1BComSnZyTs9SF2dKjjWnIWy8VJrrNFAQBTd01fjqkmW1bFIpe3OPO4R6t82QVg6WtGorWA6hmjeHo7gP6WhLqgC+upjRYvvPd9/n1yUukECxWS5brlb/x2tbTVoucsm1YlwW9QZ+olxLEEUEUI41BhBpb+8tguq5YNxajY5aVpVoVxP0QZQ2tg6N795FhiJovCZqKwXiEQ5KX3utQCv+3rTpDjY2DLvib9fHjx6Rpyng89pbyZclsNutGsRl5p+Tj6bgTrKUTiPV4DW/lFRJoPzqtqqbLOL0WxWbEtiG+bcpNa613d+4CMfhDuzHl3Dy/OL2ZImwcqIzxr+nm9zSd1VfTiYcac9P0dtaigg1OQeF5MYY0Ttnf3yXP12TFmrzICdoK2QUdOmq6Xi1yBukABxSuYZA6okCi44gwTahfPqNuapq8oQ5aIiJ0ognjgDBUiLzxaavaoJgkzkPscbJrdggfAeOuI2q6GqWuvQT17ebd7Vp+i+jrHpv65fZEIJQ3PYPbj833jbj5f27P/29nE/+xx83PvF4+iO69UiEQ4PX2feAQHWxYoLCqJooiAh0RBj7YNbVnD4ahoM5rWuVIooQkDcnXijBKiMOYtvap5XK5xlxbTFF2oBRwQnofPa26dWox3Ya07f+/sf/qlWzJ0gSxz8QWLo8fFeJGXJVZ2VNiaoo93ewhyCHQBIfsN4IPJEiAADkY8JF/j49sDIfkoGYm2V1VXZ1ZWZl144qQ58QRrrYyxYdly7Ztj7jV9ItAxD3HffsWZkt861vfoty/UHGgqNaodCSxQMP4AbOiwuXZOf7sT/4If/nf/xq7zmC+OkdZzbE1DvtuwM2xx8PDFl9eXeLZ9QL/83/1v8a/f/UKVV3iD7//Ler1BmeXFxisRYi1aUiJbrAQWmG735G69HqFqighpIIqCjgB9M4ChcK2d1hdP4esl+iDJHS+nkPXC0gPzJcrNP0AL4DZbIHz83MsVysMlijmtzfvkwOpoyoz08+HYcBvfvMbAMBqtcKLFy+IHXl+nvL5129fE4D48Qar1QoX55dYr5eYz+cwhga/1tUcQii0bQ9rm0jOoTmRjKV0cWI0OymeH1nX9USKnUfgKaWSdh9HeZyi0IBQytsBQOuRTEbpXEYKSlR1evV9j94azJaL9JkQRh0CaQy8tbBFQeX74WgxwED4AFkp6AuNup7DKAOlSFrbIsCKABMMjVdyHtIDMlA5iTewh0vlCweiOJuIAUABWsYuvSyk55/xJmUNtTy8GQlBU6BOCOpROM2rPlcKzA0MGxZCVkcMID92jgHQ/8uJ4YHnSIT5C1RVCMFFIpOElCKSQuhcdCExmxXQOkSd/RZKVTCmRXA9mv6I3rVxbNMCXTsA0mOwPequiPMByLAMljyJKiPG4elB6+BgoQA/Ap9CCBqHVVZQUiI4YnmeLc9weXGGY7PFft+hXpwBSqGcryClxkNnsKpK7KXA09US/+Jf/ks8++N/gv/ur/4Gz55cISiNtu/hYkgrtYKKjWBVPcfd4wN5KknNTdY76LKC9QFNPwC6wBCA1fwMD0cDPVvBQ6L3An1nsFyfYXs4oukHCKVRRKDMe4+qoH4GBvmEEKnePgxD+llVVbi/v8ebN29wf3+P8/NzbDabOCvvHEWhcHGxwXJJHa/f//AKfTdgs7nA06fP8fTpUyDI2N5rsN1u8fiwi6lEA6EkjLNoOiL38HovigK9GeARoOOzklKmsqPWGmVdQXWaWJ6KBo1wCmEGl9p3heCq2NQAWGvhHa3RwRGz0nuf0hJ2siKwcrSmLtS+T6mJ9geLpj+ia1oslz38s5eQICXUg6HwSClqISxUrI1bh6Ht4J3BwfQpBQBGeSilSASSQBGTWnh5g5exwUVi3OxsyQGki8ijgc+V+XJkPyf45BEEfzY3InwcP3DNdmpYcGoA5NhODCD23ANtb6A0aw94OBeRe0me2rmAzlgoORCPuyhQxvKmtR6lVNjvG7SdwXG/x7HdYbYoABXgpUWQNEZbFRJlTeSg4KkZyRg36fFWVYAvJLSxsKaHN7QAitgRyIKU3pNwSFmWENJhVpUYHIWnx2OP+XyNUhW4vb9HUZ/h7356g53pUF+c48nzZ/hv/7u/xNMXL3B794B2oNxXKoVFXWOxWkKXBRarJZq2R9/foutazIoSMqLRvbPoDPXV98Fj23TY9R+gZktISNzcP6LrDX4xX1LILSXWmzWEELi7v8fheMRsMcfxuMdqQeQmAQVfRfFUNDgeWhrcEiS0KrFaUvPV/d0j3r+7SWlBNRcRq1phs9lguVzi4+0dbm5u8NNPb/D1119DyQKz2QLPnz/HxfkVbm9voXWJ+XyZIksm8vA6ZiCbjRLtI5XWFIt0FEWRqic883IYBgy9TftAxrU24jourefB0vSofPhLAt1jdUIIgUVkKDZNQ0BjPJ5+enZFlNzFBvP5HC+ePCOr4Ul4wxiDuihIX64fUNUawgUMQw+YAoPyJKklWFIshttCQEmJriMjwoaBN/W4GdUkzyYdP0SUVY/tkPE9fPMQhUvliZc/NQZMgEilEUxZhvxQxM9kA1VFEU4a2BmPKaOkVVnOE8ouBHlW6jfivgYbjZJFCLSBhfSA9xBxEOZiWaBpDJrCQddA1+/QDjUun1xhuZ6jXtQ4uzhH31nc3z5ivz+mRdX2fTJ6VUWzE0XwsMbA9gPgA7qGpsBsNhuUukDwNBrrzZu32Fw4XD97ivBxi31nACgcm5aYg1dXsIWEWi1x17T4v//r/we++eYbrM42uL29S+Wr9XoNqRTevXuHt2/e4T/7F/8T/D//m/8adjDY7fcIZsBiNocKgPWgRholsT8csH7+lKi2+wbOeeiyRjlbQtcCr9+8w2KxQNN3eH97g+V6gaurKyxWc1hLXvNwOKRSXb7hNpsN9VzE0Jw3T13XaczX69evIbShGXvzPbbbLZbLNebzOb78coFhsHj//n1sANqiLCtcnF/hl7/8JV6+NPj48SM2F1XSr2TUnisInKen8e8hJFHOqqpwOBxS1YClxa+vr/HixQscDy36vsf79+/R97GjNkYRiLLtwzBAVSUeHh4wn9cp7VGKGtvW6yWqqoC1JFc3m82glMR8Xqfz1P/k61/i4eEB3nvU8xqLqkYhFYxtsT8MsEMPqwHhSRAh9IYGW3jEFkMfa+FjGC6lgopKkGVZwgtAs+eNOf+4AcfNz5s2V/hh6mwC57K6NkDqYIFVJzkFkDEPFwJ9JFzwi4wEYij9+T4B7iQMYdR1UzhJRbLPChkgvCAMRNDfJDaKZIAAMgrOMesrAHDwoYfSAotlDV2cY7Gkheylwb55RNsO8AGYr+ZYLtdgyvLx0KS2zhHToDHbZVVDzmZkxJ3HsaqwWiwJNMPItSiKAvs4Imq2WEFWCtYXhL4rhbIssKg1rFGA7dHstnh/d4e77Q5KFZgvV5Bdh74zgKSR069evYJSCrvtHm3fJQ464T103N44dL1Bbx1+fP0Wi8USi/UaRVnDe2DoLXozwAbg5u4ei+USi9UM1jp8/+MPKAqF6+tLXF9fw/QUcrMMvYnVDd5QxI5sk+fjZ8joe5DkkPb7PR4etqiqO5ytN1gsVtC6xDfffINCV+i6Abe3H/H3v/87VCXp683nc1SzGTYXFyiqKg2MZVCQz6XrOhyPxwQ8hhCwAlBG9R5eH9ygtFgssFysU5pijEsRBrH8Gjw+PhLIGMeIA4BuW1RJfpy+N8cb0rwBa6m87Bx0d2jh+gHL9QrBe3z/3Svs2z1UqXBsjpFsQDmtpu0LDRpTVesa0AOEAOW+PsvHJe3OShcYK/HTTRdCmNRJc0udyx6dVgD45b0nrfzPEIT4fZ0Z5wJIKckwBDZoYnLM/G8+TiJnyFGIVAhBnIZAvYH03oAcKCQjoSFUpvjro7pQJIFQQyFrH0qookRRiZSjHbsd2tZAQKNSC1SFxmIxg+kMEAiJXi6XmfAqbe4q5ntaSNQllbuWsznmixWsMSh9QFkSINv7j9BVhU09Q5A1jFVojYUPgNLAYFoCdQuFYrmErCrMlmfE6hxceoZVVQFe4P3796N0deRokNZhAZHRvumekkyVVIoaqhRNLZa6hDI07Yabxvo43wGgluqf3r7Du5sPuDq7TqGz1jQhiZ8fNZsVqGsa1c2GkqNBay10pRM413UdnKUJO/v9EQDN5JvPllitznB9fYWrq6uUXx+bPV7/9auEKZydnaUcm73/3d0dEA3fZrOBlHJSkvTWps/WNXnm4/GItiGG6mJBkQhXD7TWuLi4wNXVFQDg434L2xPmsd/vkwHiNcTtyH3fQ0RjUFUV1hcXdLw//O7vsTvucP30CYy3MG7AIY4Db/ojlusFdElyRUpSo4yEhAwKhSiAatS5CyKKaogpoYc3O/1jSuYxZuqd2XqfDlTIw3e+KO8DlEbK14nZN9IkJ3iAjI38gvgCqYznXSRUjDiGUipFADxY5NS4CC7zecuWjQZihIAQsqqGG3kKiGaCB3yGQOfvvYXx5MGhAnRFKZMLHrNFCWMCrO/RWwVVKqzPN5jVS8xmC8Jr4kNHbu11kR52UdBgzOV8Qc1DWSTTh8hJ0HNIUcF6ia53aG0H6w2V3NoB1g6YlxVm63PM5xc47Fo0uwalDGgtzX7cRBHKvu+JhNL3cJJKiErRSCQGo9gzrS42aJsOx+MeQghKeXSJrhvQdh2++OIL7A77KNulsVyvEeDw8PCAm5sbtLsuSWAvl0vCNQTXz8eek7quk2Fg1J60JTzKqsSsnmNWz9H3JhlU/vNwv0VZ3sZhHDQdmglFV8M5bm5u8Jvf/AZCCDx9+hTX19cIgeZNfvXVV1TCjZWAU7ygUIr0HOIMTF5/AoTJEP3YJl4/cQfqNK+yriugpknRUATQe0+yfEpLfPnVS+hCYXv/kAaUNo2FMbFP4P/6X/7vw5t3b1EvZtBFgdl6TjP86hLvb97h5vY9qnlFgxuUwLyuoCRSU0R5PTY2eI/EkFOREEObhpmAn0p6VdUi6aXlJRQ2AFw7TahlhgcAVGrMUwS27nw84mF/ygLMS4JMjJiAjNkmlVJC+DAldcRmEKnVJ8fPUwVGeMnzfYpTLHUF64itJSSV9UgAwmEYLGb1Cu1+AJxGqRdQoUap5oAV2O+P2D8+pOhCCIFSlWmTsQH11kXRjHlajAlsFXuQFLyGkjWk1DAuoO0btP0BaqbwsCPBykpXWM42uFw/gbAC7WHAsb8lPby6Qtu22O5oOq0PFnd3dzTLYD7DvKzgBoPryyss5jXe/PgTmqZBsaYefqULXFxc4ezsHEEoqsP3Bufn5zi21Lo8OMpvi6JIRLPdx8dk6Cc09BgVcGkul43LX4PtU9WJN2lRVIk2zPp61lo4O9bvr6+vcX19jaZv4qDYAh8+fMCPP/6YNP0vLy+p1l/XaYNTdLFPqL+NQCCvCyYgmcHhcDjE51ik50Xre7yeHqO6T9M0BCYqTdhIbBU+HA6I7Tg4Hgnw5zHh+ub+Ds3QA6WC9z1cH3DoDpCdwnHo4AsFUWhIJaCkoFAOIpYmNLzvkOfs5GUVXLAQfopIToZ6xgdxqul3ukn54SawLh6PvfXgHZQAlIzsOJCuoSyoZMJzBPNSYc4YlFGKJfixogCMwXwSd4giDAxg0hiugACTdO5HwzK2RudGA1AIYapg7HyPEKfVqEJDFhIqkP6cChJB0FQlJQRNIFYF5tUMwis4FzCL9+VTXsMYzfjCo5rVKOsKQUjoskrYAYJHcEBwdC+qosRipjGrBA59gMGA6+srXFxdQIsax22HopxBFhUCDC6uZqiqGbqOBrg0TYPmeEQQHkNHm6uMAhocDXoP9D0ZaOkMtKaJzVoJtC2F3lU1w8XldaqlF0UB4+kzPmlEBlxcXKBtW5JBi8DYIcqkceSTd1jm6YH3HvM5TVemTe4hZZg4n5zcI4pYyvNERf7+h++w3Jzh7uEeZ2dnWK1W+Kf/7D+Fcw7v37/Hd9+/SsdYrymnn8/n2BQRF2gbDE076aFhHkPb9miaJqUN4+a3CAGZge/Sc88rABxNcB/AvKpRVRUuzy/SCmnbFvp/+Lf/X5SzCmfnG7SmQ7mo8OH+BqpQKCqN9XqJoASgFYRSkLoACXuTrp0PNvbTT3nKtLgdlJDZ5siWZtyAXKY49fqJWxB5zPlDSyIJ2QWfhvzsdbnr6ufKhFKKyYbMryHHCE7LiCHW2bVUnFkgeCaCOHBP9+k50jXYdBxrTaJPS28gPRGpeGhq37eAoM5IlggLIaCIC2az2aRjcypA3WSkdsS1X4pQJOkNxMUTrAVQUSelB6QBNQwpCV3MIMuAXWMxn5dQVY1ZvcYHPGB5dg7XCgx9g8VC40nc+MuBFvPj4yOstQl0KssSUgA2LvSRhyFoXiEk6Sw6HrIhIXWJQksMiuYplrMaK03CrF3X0PTdpsGzs4u0eUIICeFvGppK1XUd6rrGYrFImyZvx5VxWElZkCQ7bxxG1DebTaz57zAMA1arFdbrNYwhTsCHDx9wOBxoTFdUxrq6usL19TUuLi7w7t073N/f4/vvv8fbt29xeXmZxttXVYWL9VkyXNyWTIM8Fri8vATxG4gQxmxHQKTIYrFaJLCR16kbYvmcy/OOWImPj4/omjalicYYaBQSQkk0Qw/jDC7WVzjaFm1/hPE0pFJXGjRAI8AqTbr4EKSgiwh/yQABlYUqIoKD+UAPmd5P/5Bp0+ehPVs6AnFGoRD2Iox+Sykh6iIZm+CmvGspJKx3yXikzSxoeo2QNOgjfyUcIh6DDRSLdPAxvGcjxNCCJNXYafdyMmj5uXtvE5bhA5Vae9tR1KQUpRVSQwiFQikoVaBSNGzEWPresiyxWmmUEYvwGVFJKVLbCWIEMZ1z6GMoy/fTew8UClVRQQcFDwvhSLtPS6AuNVR1ht4PaLoOUlQIAjhbn8PPNIJ/hLUfCQ2vKkBuovqspPA+5p5c9cjTLkKiRwVdAKjnS2hd4Nh0+PjxBvf39/j6m1+gqEroqgTgMVhDG+f6CpfiGqVDQrxHDzlq8RljIoW3T+uMU4SyLNF2Qzyncb3xmlRK4fHxEXVd4/r6Gvv9nu5j30NKoKoKFLN5qkI8PDzg4eEBx+MRm80GSilcX1/j6dOncI5wiw8fPuD9+/dYrVa4vLyEmc2TIS/LEsfjEQ8PD2iOXVa10AkAJEM3RgCconCFR2sNG3G2oijS80/DQ04EdsWTP98EEbXNZ7MqbkIa4aWUgLE9ylJTHreoUVVF3JT0QKUaPTEwhtq558vR/dMcOM+d08bNkH3Ou5LNCNPPcyci1+J5DBJPHqYFP9YhRkNA5+dsn84t36z84lLK5yKBEAKk+/TnuYeZz+dJtYc3B5eIpJRw+pgeJoJEsARuiiChhYZWNbTUSZ8xeIFCjotY9ZdZZHQ6ZJWugTeFVlNhSiHEOLwlezZ5OsabKS/DckRGbc7TSo3tSYzi8fERzYEWc9d1ZJx8iOy7Au/fvyewypJwRVmWyTNaS0rIy+USj4+PmM1mWK1WCeTja3LOAapOKQA5Bkr9WHqLG2kAQMkxkiQArcZyXqXn/7n1ywo/Oa7EObfWGq9evUrvz4FrPqflcomvvvoKz58/n4Daj4+PuLu7w7uP76kD8WKDi8szbM7XqOsSw0A5+v39fYxaiCMzqxc4W19ARJyklCpVHTjtyR3oer1ORp/Vi3KsTfzxv/wm0P+ImGspCBmgtYLWEtvdQwReNMpKx+mo42IvyrH7LN/MvCHyZpzcSJyG43n3WghIG7oqZyfluemcwBDF2XnDcXjDBmAkCamTxc1NP1NJMg6neYHlk4c+ZwBgRpf/uWucz+fjBtRjyYkfgi+aWGotIKLBYwOgUKAsakjQNJngAO+IxDObUe6t+vPsgY/nwYY0R5y1KrPwOySQkq+J70+OhfBCyTcE166ttakngt/rDYXgu90O7ZH+ZlKM7SmEllLi7du3hKcsx/Ict9U657DZbHB9fY3FYpHUbUjqm0pmDA43/dhdxyPZOZym54YEfDo7bmQhCEwsFBnm5XKZJL3ydPN4PGbrMkzku8ZmnRGkzrv+OKJomialDy9fvsTz589T449XAXd3d3jz5ic8bu8xm5d4/vwprq8vUVVV6kw0xuHxcYe+s5jPllgu13Suhr6XI5Pj8QjnCPTlsiRzaRhkZHKbtRbiP//f/aeBLobCUuKzU2OLLki/HwiEUMsoh6V1or8KgckCycPQU1ri6JlGr85lmxEpl/ARcbfWwgxuYiQm8kig4SV0A8bZgIk1aEfBkfxz+bkIjNOFEb0Zl3+stTg7O8vYh/jU2LlPG4tyI8HAU+6ZeYFYayHKLs0IkIGunfBGGYeWFlCigBKaUijHk2QoWpvjWTJYbADGlKpImACAZAByvIQN26nh4+vh0hNfDxNK2Lhzz0TCRixtYu6oaw5EgOm6Dt2xSaPeXr9+TfdjPpYq2XOyUeI89fr6OtW9SZ4rpFr4fEE5+na7TWw575Bq4XU9T4xARtDzOX1FVHNi78nXx8AjYwm5ccwdFuE0fYrqcvCN8Sv+DIBkfM7Pz/HkyROcXZxFXQKJm5v3+OmnH7HdPaAsifOhlMKTJ89wdfUEUmi0bYfDocHjww7b7RYXm03aR1zq5OiHI6n1ep3SMikl1msyHm3bktCMkA4CARA8UcfAh4AAgfV6RfVtxKYExQt8nL33OZCMLWEeVp6CakKIRATKPwOMG8a5sQpAn037bJLrhcDCpDmoN/IQAAchMi5/8oT+s8aJQ7r84fO555ELssjg9MUelo/T90TuyBlZRSEjk5GHj8QGIxRQUPDWQ2mFUpdQsoTwIYb6gDEOohwXI6Mr+YbmUhgbALb8/Dz4lVOl85//3P/zNWs1trpKKRGK8R7lXpOppxxqc2htArVMCyFRFCWWyxWEEDgej9jtdpBS4ebmFnd391itVjg/P0dVkbz6x4+/w9nmigZ9Rurvx48fcTweUWhSXCJAchTprCqke8I9/N77RNFl7gTX+tlB8TWyMWTM6ng8TkZ3cYTAo8lzI8vGZRgG3N7e4u3bt1ieLUm+7OkVnj69xj//5/8cx2aPN29+wocPH1DXNV6/fo3Xr9+iLGpsNue4vLzG5cU1vPc47Kgx6Xg8pmiF+wzYALAD4I5A3jfGGIj/8f/mnwS6cDpB9vp0w3RsbCHPr/RId2UBDK5R/pwB4Id/mkfzZ9gyT5H9vB4/4gdkUKbMP6Gm7b3MRxgBP51975jrsldPQzuyMDZf8Pl78/PnlxtM8rh5eJ0bKUao2UOxATDGQFVR6EPEMqYqoGWBQhZAILFSKTRNkYWMKVCcIgOJKlxkm1SebFbK+9gDFXr03IkI5cby5ikfg9OVPIpjIIoXvM5AWsYSnHMwXZ+Asf12lzZ0VVUQPuDNmze04VZVat9l3gbP13PO4fHxMUUmHMJStyRRcT/ePcQNSwo/LNDZdyZ9Pz2/0bCHENDF8zOm+wSozdcso+3L5TI9t9MNnq9Pfq50bCIccSmSnz/n6TzBiTYocfefPHmCy6sLzOfU2nx5eRlThHe4+3gPAFgsVpjPaegng41c7Xl8fEzAIP/+NOLjUjZHiQiBNmxZsWYZeXqtBfqeGkSkklAq9qJH78o02FPvmQNho67Z1PPze8/OziYhN31+NCTcFZWnF7xgQwgww7RjkEJ4N0YNwiXcQEoPkZUlqUZaT3K+03A+9/yn589AGC+sHIzkc85DwLwENYbMdO9s3MA64gFSFBBCoSwrOONhjIWxFoBEoUoUZQmtSvS7IXuYU0MMkFFn4Kos6rSx+J5xVMKLIn9+ABLolhvB/H55WhAIAAoxknFcVWFh3QR551DbOYfZlghgXiL9jlOHtm1TXf2LL77A4+Nj6lfhc9vtdjTm6+VXETm/Q9/3uL6+jl19EtYQCMbcgOOxTV6eabeHwy6tz1yditcAVwGGYUjkoPx+jSnmyC6VcpQeA4AnT56gqiq8e/cONzc3YECuLEt4Z7BYzyEENQr97b/7d5BS4ssvX+LLL7+Ei9fwz/7pP4P3Hh9v7/H69Wu8ff0Gu90Oz754juVymfoG5vM5VqtVEjBlg+S9n/AM0l79L/7PfxGcy9oYI8NKKRpgya2tWisoNarppo0SdLbgxpvAm2UMwccwMU8PgHG2+gi0jb/zbgRWOALgTeS9RxDcbTeCL9QPriahWfBjVMIbdxgs5rPqE8Pyc8yxU6SfvSZ7Pj5uvuF5U+XgEOeBWmvAE09BQKFQMf8sZhEUlKjrOZxxcAMBhEIIlLqCjvRae9RZxFWkc+FIikFMpRSqckSB+V6zseLz4vp3/jz4urjlNL+vVVWl9xVFgTrm82lT9QO22y0OhwN2j9sUkv7444/ksdpdMgwA5fgMfPF06fPz87SRb29vo16/pjC9JGBwtVqhaRrc3d1BSo2vv/4a3377LZqGPPXhcMB2u8XQ2wmo13THFDJ3XZciEV4TVHcfHRCnCATCVp+kifma4ffzsRkUzst9WiAZ4fmiTiIhTXNI8t5PnjzBV199k3QOWQFKCIG/+tu/wXa7RdM0qZy4Xq/TufH1cLTC6Q9TtsW/+q/+IrCFUIoXLeVJVV3AmCEuphieS87xaGNrNU+b5zRX5hw4v4G8iXKPyTdwNA46PaC+G0Ns+syYa3nvAenSAqe8EhmINPV4UoxEEAaCELKOvyyEyyMS3vw5sMnH5NIPb6bxXqq02DkXZ+SXcY+6riEDIdUiUCtxVdWoVAWlyABURQUEDQVFKYxgD0QNTYVYZQtuZK9xFYANgNYadTUOrsijptwAtC3RRBlJ52fK18beje/jfD5P9yKBaVk6pJTCYbtLlYFSUwTw448/kv6A6dP94BLgfr+HtaTPz5101lqcn5/j6dOnUErh5uYG7969g/ceiwUpBZ2dnY2jtGIDza9+9StISeHx8XiMz1wmx8NUYL4v/H1N00yiO17fuWMQguYT8ud5/fB7ecPxPEhOE/m+aq3RHalDkNuW2ZFA+ARmHw6kP1iWJS4vL/H06VNcXV1huVzi0DU4Ho/YbrdJu1AIgc1mk0bDMSGu67rEjuy6Dnd3dxD/6r/688C1Ye8JNKBxWALGDLGsRqUfiNE7Is72C37st+eNzguKN0ie4+dGAEAKUTlSoJtZpMXZNv3JQsXUoOhRSGT0VH7yXUyLFUIAYaosdDwcJueUGzP+zGmd+HNWnh9snkOzERurG35E5CM11RufJvcIIWkKs9Soyxmqqgacggxk+CQkpNSQgjr9hBDQYp7hKyqFpbQgdYpQiqJIIODPpVN8bdw0wnlsbjByA+icw2xB3y8CkgHQWqfqQFEUsd//MMmL9/s9msMRu65J7L2+71PofDweozeXKarz3idOACPeu/0j2rYlMkw1T9ECGX5qyPniiy9wdfVkzLvjZmiaBkVZJpadECJJePFm4fbdvIrDLyFE4inkzUhsXPJI6zT1TWvYj9EHGwpaOzqVOrmPhCM0xiZmsxmevfwisQ67rsPbt29pYwuB+XyOV69eJRryZrPJDCRFeeK/+L/8cchBraJUGUrN3jcivBjBGP45QjlZTJ8LhT4XGfArLzGNhmQM1znsHX8/PgApJaAsBOTke+jmqskN5//PwUUA6DPLm2+OHLTMgb+8SiCESHLQ7PFyAIkjIC4v5dgIH6dWFKVoVUbNAfL0pS5Rqhm8B5UDlYaWBVQECBNY6sfGqDwCoPs6ik0UBX2Wr+Nz18rGgDcpb7ocHMyfcwgB2aR2cha6SGGmAJLGXdu2cINJpb7dbkf01MM+hdoPDw8p1+Y1eHd3l2rcjGovFosUeq/PlhMA7OF+C6UUnj59StODl+sUBbVtVMdZLNLPHh4fUVUVHh8fcXNzQyzDi4v0vG5vbyc0a/7DG5ybzXLsh1iaqxTuJ7wkwwj4Gdm+y+67S8ZnGGzaqFSiVNn3jFF1iFH7arXC8+ckYVaWZaL+fvz4EbvdLlGMLy4ukiHw3kNzzzCX98ZNM24AtvbOuTQwgU/AOzMJf04Rc/bM7A3zTRRCSBfIBAzaQCGFP1LqicEQ4lOk3vnICgt5igEAI4pN/59XEMbcNxkTfNrVx4v+tEqQNg8yarOghh1kx1BaA0LARiAOQBxRHtMeoaMBk5CSqwAaUpRk7BwAJYgVIGkkNKdIAkQOGiMYfZJijeQdpdRkhHpuAPIXPyuOJPIclg1C/uqGfmrokQ1oycBErrPDjbVx7z22xyaGpRLW+hTC+jgifrlcR+xBJ62/EIgf75zD29dvsFqtcHZ2hmdPnuL8bIPHxx0+vH+P71+9wosXL3B99ZQaceoovQ2B4Ej0Ja/rA4jS4PtEntEn6Ux+f0MIqZTIayTHTpiYxukfN5bxxm6aBsvFLDoF0kx0HiirGRbLMnUYIq4xAnI1lNPo+xaDMThbbbDb7fDx40f88MMPuLi4wNOnT3FxcYH5fI5f/vKX2G63uL29jdOTbrHb7bBarQhP+M//D98EXYzdUqNgQ0i5I+f8efmIF5UxbiLkybkje3AmwuQePo8O8veyd0TkNBdFkRSE0gLzYwuvEAKyyNOSGFGIEantumGyQfg4/CeXJT+NRoARTzhF//mYNgOMTo0bGxb2oLy5cqCu8HUM5TlMpzIgvKLqDKgqUBU1Kl2hKMpYJRAJDBqxkyKdZ7RIyQjTfdET48Xh9akhyEFWJugwZsIpAV9fb8bacv5dSoxRZfBZn7sQ6JsWj4+P2O122B6bqEV4nNCum6bBfr9PZSwOkfk4vNmG/hCfkcrmASg8Pu5wf3+Ph4cHXF1d4dnTL0hRODL+qJOVJhTxc+Z19PDwgKZpUgk1/5Nfp5QSd3d3yZvnm5sNAbNJF4tF4hbw+6y1aNoDGYdyBqYxO+dT56wQROzphxYh+AiWevQDpWgcbXlPXAZOWXhq8MXFBc7Pz1PL8uFwoMnHW5pvoH8uf6f/Hx8ieRedhYtTYgxfEF84L0QGjk5JIfx9DL5w116+QfJzyQ3AaR6Vh7VS0rAIPhcCK5kGPO0LyPP3U0/Ix0zeMzsfXghsdE7xgtzI5N/1uXKiZhagIBEICZoFx3iFkmQQ6P6T+KUIsZQJgaJQn4CnozGaKi3JTCI9x2Hy8+FzZ1SeIwEeXZUDpCEE6BkBm8GO051SdMGNSiDiNW9cL2iA6uCIacnIPwPGjLTz/eb7yM+AgV3+N+NIfIzFYoHVivT17u7ucDgc8P333+OHH37A9fU1vvrqK1xfX5M2Xjs+K2Y4jinu2POQV0G4jyDXHmS6LzC2kDPxiScEPT4+Yj6fY71eY7FYUCVhXsW1FNAOPaxxACRI3YhmGApdAK1ECA66UAA8vPCwMV3j58+Tkbh6cH9/j+PxiPfv32O9XuPq6grn5+d49uwZzs/P0TQNNIWScuJpc+DC+wAp2eKNtXbeBEUx1evjm8bedFLzzjZEnnefetUpJjAVEMk3FP3BZDEDY0owGiKZbTxe8LTAh27slju17qdgWb6xk2HKooKp96X3UueYHPNiMQXepFLZvdARq6AWWCUltKqIBCTZg6uU67OB4nP+1Jj9vJoyv/gz+Xvy58CNOkIQQJYbAe89nMS0USaMz4qBwQRsiekINyGI8cfVBAATIKyMAN3pc8kNsjVNEkABAGtd4hIopXB19SQqBrV4fNjh5uYmRQUXFxfYXF5hsSBOwv39fRwQQmDeMAxYLpfo+z4NCmFOBd9Hvv/8LDji5Vw+/7dzLlUXttsthBD44ssv0n4SgmXx4x9ZJCo8gZ4BUglYO0al81j+PERtR6Yxn5+fx/tBUmcfPnzA27dvUdc1Li9JT3G9XkPni0ZAAYFaI/kL8lLQCKRRjp17emA6iDPfFKebKQdB8tIS39RJVUCOc83zjc/H9b6PvxvnptP3j6wvilbyaEbGkmcBZ0YqMD/cfENw1HKKBKeoRo76gMBIVfYxH7beoVAyDWZM9wcBQmb5uSqi9+eNo1GqEkKQ4rKWMm18Ej/h/u9PjRTfJzYAp+lJbsjG944/58/kxiE3NEzsAYAhuER/zQ1A2hQyL8OOFGHOqW9u79Lz15oGeLKAJof8+fPIyUQAcLn5IunrGWMi1qFh+wGdtTCdweXlJZ5cXuF8fYYPH2hy0PfffYfXP/6IX/3pn+Hy8jJdN5fJ2KAopVKozUYhd1a73Q6MoyWh0TCWTvm8GXTjaPfx8RFd1+H28SMWi0Wi985mS5jBYbvd437/MRlG7seBt3DeQiiJsq4wdH3iJTCAy+fIBoDLpMNAnIzXr1/j7du3dM8/B34FT7p+ed7+c688182BwCRUKcd+gRwpzVOCfDYa55m8UFRZTBYUpyW8AW1a1GMakngBqpgIguSRCh0zTPI89k5snPKaOT/QdF5xIXIOmW+q/L5NvBW3sAJJskoJBa2JWCOCpPo+RvyEOAIUoQkhKBrI8ArqcRg3eP4cT43C5wzA6bPNr2GCtXDKkr43bkxv00J3zkGdSKuJMEZXrLEwm83SRpsvVvjw4QNubm5SyWs2m6XONr7fP/diUhWXxaSUNGIu/tw5h7dv3+L29nYCkN3c3ODu7g7/9t/+2+QRnz17lqYESymT2hCvGcZDcsOZE6gYq8gZsLkjydMHjjoaQ2XJn376CR/ef8R6vcF6tUFVEcGJm5+8t/AhNu2pgKIgSTFR1Z88P67isAZCLo/OhparGeJ/8X/8o5AQWpD3B5ABguNiEnIM8zkcM1H3Pt9EeZg2Irdhssl4A7jOTU7+NNzjfIz/fcpVL+Z1PG8/MQB8zhyCstdiXII3p3N6NBgpjBxxDPYq7LV4A/M9O7RjRCFl7Ka0UboqOMAHmj/I4iciKuBoyquXmCV8hWb+VYQLQEOgIMZftulLNRonyrOnWgv55ud7dpoi8cI8/dzn0p48GshRcP4516VPnx+/mCjEz56xGQbKPt69w36/x83NLd6/f4+7uzv0XRxtVlB5jitBzo66jGVJ3nZ7uJsYa17YrLqUwF439vLzUJDlcokfvnuVmHTL1Rm++eYbvHjxAvV8QUarpFxf6TKChqPYqFIKh8fHRGFmI5Cn0LPZbCJKwvuHy6FKjjwY50zqKlwul9icn2G9XqefCTHe2+T1g8But8PueEAI2fDYWPLlVEPIAG9dPI8OpSJDq0/zQ37o+ULJPQdvtoSSew6bqVdACO4BGFIex2OyGOWMR4ZzYzdfXh3Iw/BTlPoUM2CUPvdUpws9v6bTUJ6VjnJAL6955zl7HsHwOYQwykj5YClPA6A06Sc7Y1MEwOG7EFn7qSgneb8QAggCAQEh/OOR1+lz45/z9Z4+t587zn/o/flGOv3sbDabGID8MwBShYg3Bi9+pVRqt6ZIZ2wBv7ePOB6P2O+PuLy8RNsSjyB4kaIHgLz7ZrOZPE8GLInS3GXfTdJtIYz6ADc3N/jqxUs8ffoUu90ONzcf8Vd/9Vf4wx/+gF/80a/w1VdfwXqSO3Op1VojyJEKHmIEu9lsEqGIS9t8rovFApvNBk1Dev5ML57NZujaEcRzboy6GNRkAI9q9ypVS7wnrb/9gboYV6tVFPwoMFhidFpDPAXn4xi5QmKxmEMpmu5ljIHO5bIBADLKZiOMf2LLrIpSWhAiyW/rT0L0qarM5wCyPKzWRYUQc3bKjCmX9giQIgpl8gYHKR8LNRol790n358vxhzQy38+hr9TWmx+7sBoQNgAsKEYDU5B5xscgg00EEWJKJzK+TO1OGup4oxBGRdjANJ48fHaaXNHL47Pb/L0x386Qv1zf+f3Jjccp6Dc5/6cevhTo8zvOY0a8vuXGxGOJqy1kOocdT1LmIb3HkNPtF1GzouCgDnu8z8ej+nelqogirdmHUqTYRaz+J3kPZUaQU9yUhbf/f4PWJ9Tqez8nELuh8cdfnj1Pf7hD6/w53/+56gXy5F8FFvVtdJQpYKNqRp7e9YQYGcRQkibFsAkGqL7KrIozKfOQYom6V5vt1vc3d1htSKdwCdPniAE4tBwhGXjzMFhiBUL76iBDwK2pwExRVmirilyMB0RqzRvkNNFwovDmBwdH8NGvoCyrLIQJo6hlgpVNY7yov5+XkQAd+MBmHjUfAPysZjyyeeVky5CCKjLsfEkr9WeAlz5Z/LwOA/Z+Nh5uJvjGvlx033TY7VCeA8PD8qifELBpZSRxgsIEYDAYGWHXpbR+5PgSiEloAjtV5hGM8IHBHkiauI/v1nza/7cvyfH/UdSAP55nlblv/9c1PA5A3KKwfC9LcXYbWiMQd8ZdO0QUwsaNLJcUnmLm5ByPsrxeEyjwagWTgMzy6JGtaRpPUoOEKKdkH6KgtLB7e0tHu/u0R6OWJ6tsVysUT+d09jz3QG//vWvcXl5jZcvX+LpF8+xXKwAULXi2LRYrhZpHTHTbrVaYbvdYrvdYr1eJ+Sf1ZT4PldVhdub+5Qa9X2bDInWGj64RG2mtKlL3Ia6ptkAF5crwrmMwZDKlS42ZtGUKfgAAwMRK2YKAqpmQ/aZ0hE/WMqNP33guXfv2mHyQIhVqBI9TnHI7nkRcBSBdCPHXJRHXZPhsdZD6/KTRUWiH7TpqjKTnA6B9AOEpvFgQsAMXLYZvStA2nqjUfrUW/J3srHLjQEvIiEEBhNFQxGo5YA3ZnBjlKQ1VOThp1q+j9oBQgAxylIICD8TigsfEETGsgMZExH05HzzazkN3U8jgM8ZiDyNOt3AfNzPpY35+/MXA7p5ipb/P7MClaJuxdVqlXjtUuoIBrZ48+ZNkgQ7PycZtK7r4EHTgAhHARYLNcnRQxhJZQyGDXGSjlIKl5fXqY6/f/0OUt/i7OwMl5fXePHiS7x79w773RG//93f4/vvv8fTp8/w4sULKiGu1zh2TVqzHN0wGJkrCz158gTGGDw8POBwOEQNzhmurq4SeKj1aGiNMbDOpNmY+T4NISRmZtNSk9B8PsdqviCcImIRwVos53NoIZLUmukIs2FMTHPd/nTR8P9zaCbiQs37+wFgsOPNZmBPCJGIE8yFDsEnC5Qjo8bsP0vGYUOTL6DPpREyor15yJ5jCNxqyZ/hBcxWW6qRHcjRCHt73vCnqUx+jiaTNWcPrzLa8TAMUF4mzy0EjUsToIVaCcpnERt+6LgC8MSz995DQcDLaX0dKlKU/UiwOY3ecrzkcwYgf+anHvtzIT5ff26EPhcZnD7j3EDk7yWjWsEaTz0OESEnEY45yrLFy5cvcX9/j5ubjym/Xq+PKSSfVfPEJGRZLCll2tSMN5RlDSE0QpAIgUVokPLxqqpQFnVMDwIJmez3ePnyKzTnLe7u7nB7e4s//P3f4+PNLb799lu8ePECelamsJ1l0Ky1ifCz3++TSElOIONUZj6jwShlWWK9XiZwsO97CInEiCREX6SmI26g6rZ7VHEu4XxOjVl918EYWvfi6gqs3ZjfdxqIOoeGGnnpKTzPFr0NPgJXmGzIhGZyDioAjdgcQjgWPEKaY8+bE1IAUsDFDexCAAKFz2nB0iqBkBKOF3Cg4RiKc/L4pxv6kQSjZNLO9yHAe8IoeIMYYyhnVpLoqTmYkxm9nP/P7K5T4zJuLMIvrCXlJCUp1Kf3ChqpHqMIb3p45aFmClqNoh0IjAPQhiZbKwEBCC8QRJZ7B8ARQpIMQL6R882WG67TTfofMgI/ZwBOc/1PMRH5iRHOvyc/P/7DJU8uBytFdX6uMCyX1PBzf0/CIO/evYtsvxWWKz8xSPScFIbBwPsA5/wk0isKwgwSOcn1sWQ2jN670Oh7g8fHHd6+fZ8aiy7Oz/Hh5gYfP37Ev/k3/wZ/8zd/g//kn/2PEqkmX0c5DZjLv0qRTPj5+XmKRu7vtokwVNflxLuXFQGIT548AQDc33/Ex48fcXNzkyjNRVFiGAyG4QHbx0eE4AAXW7NLheawS2XluqJ0MwCx41ZC/1wuxw+bEU3OvRjYGHOZsVvMGDMRSeCyDDAKVfJmYMQ39zq5N8nzxDzvzqMF5xyMs5NFB4zMNO994oYnpD4aGt74Zsixi5FswgaOI4jTsJjvEUdQzhl4FxD8iPprqWLpUcH2Fn0/QAgLBA3i0QgMPFsQ0WBIhRDTFy1OGqgSBjCCd8GLT86JzzdfkP/Y5j595Z47L2klI5R9dlLz/8x3/Fx0mSI4SWVRpQqUZY2ioFIZe0L27EVR4OrqAovFLBF/3r9/i/PBYrUiOTCRQl0SKlmtVqQB0JlUn5+es6R5CrqAjjnp4DzghrR+WJqc8/nzzQaXFxfY7XZ4fHzEX/7lX+KLL77Ay5cvcXZ2lii+zjlst1s455L6D2stKEXde9fX16irBR4fH2MUoNE0TUqNlssldrtdwg9YJYmNY9M0kNzijThSTxZQcqRIVwWl0EVBU6O9kOmzx+MRmh/EWMNHCsUIiLAJoPF+pEE6F4UtRJm8JtMOhaByzXw+T4QM3vT5gtJaQ8+XE1yBFhLLdlE4xigrsZz6bLPL2Pvv4P2QbQIBnhLrPTCO4xIgnIG9koSUI2351NMxPwAYaZ4Axl7qGJEEBAg1ipN67xGchxM0DbjSFF7W1QJUeBBwxkGpIoX7QsTKgYoRgfUYMBoTSgki1z4AMlYZbJbv5lwGLmWyCi8bPt6oec6aG47TVw6G5uh/jqafYgX5+3J1oBxw5TWQ8zaYCchrJycEOUczFs7OqDZ+f38fBUD32O0esV5v8PTpUxRFgf3+Hvv9Huv1OgGHfB7OhVR+1lrBOknzAiKz1dmpSGzbtsnIf/z4EXd3d1Sj32zw9ddfY74lkO83v/kN6rrGl19+ST+P58/0Yj4H5gPwveW2YZIto7Zdfj9PWeb1Vtdlkifj8jeXVgUCKq1QaImuadF3DTSWgFawgca0tW2L2XyJ2WwOqcjY6FMPwYw63uRcXqENgvQwUzioFIT3wIkh8SHAneSHMgRqdZEy5STeT73v6R8OA4UQEy2ClM8rBSFlmvh7ugC5DZfPKV4ApQifCfuTYYrRyuFwSDkbn0ceqTABha8fUDQgNXpxhVzIlNp9oo+Gs4F1fLnfE4CECAQKpvsSCEPgc4enFIvk28u0wfnFG13KT3sxTnP807Qh/5uPy9ecE4tSBHIS1ucpwudC/jw1oGdKFHNSdDYgkhR5v6urK1IRKkv0fY/t9gHb7UMCvb799mu8fXcLAOi6Bj/88ApXV1d48eJF5L9Tfz+N915FTv6Q7k0IAbIoAW0hCkVGNjkzBcnEshDg3TiRqu973N3dIYSAJy+py7BtW7x//x5/9Vd/he+++w7ffEMSXl9++WVS7AGQBE/7vsf9/T02Z5fJUG42G8zn87TmlZbJ0TCmxg6bJ/30A6WhzhpwBy+8hQweSgLLxQzGWuz3R9ze3mMw7zFfrXFxSYNYtYgYgFISMnowgHqT4R2kz0JyNXbEBe+Bk24zfuhsCIZhSBRf/jkvJL6ZLtJItdZReHTs1gNizV9QlRxSQMkpY09l35uXAXMPo9SoA3C6OD+nWMThE5NWEqoaRlYiLyK+FgAQwREZKJKeFCjMDJ7wComodxg9P3kcBwEiUQGADDISgQRCHNxJ9eDYTMNHintU6U9nGybDceKh8018Gvr/XIrAzzt//WObno1DHinmv/scVpG/l35Pop3c3rvf79F1TTpuviFW6xnm8yWapsGbN2/w40/fo+/72NAT2axqrF4sFgtIKZNQqK40KS5lTk06D6EGCEucex87HXXEKbTWGGJkcrffprkFv/jFL5L02XfffYff/va3+NM//dNUuWDREmstNpsNXrx4gYf7XcLVylInEJPWnMWzZ88Srdd7coA5nX67axGCQ9cGwBoER8peUlBJ+bDdJo7AarGELis4IQnQ/MN30Byi5w99Coz5FCKflnBCCICgsdZKU2urLiSszXJpRU4rUUHdNOKQoYBSiM2tyADJEB+4og0R4uxBqaFVZN8F2gz03pDCO7o5McfzANckAyOUUVpLCJ8aS/INxOkKb3g2IDmvn69BqQKAjCXIAECn/F1KTbgABOBJKERJArngAC8CwgBwRqKgpgbKi+T5RaQJ+VROjZ7aZRONs8/y8/u5Tc3/zp//58C7/Nh55MO/+9yx8wjhc8fPy6lKjmXcqWGh9xA336BpqvT9zhscd4SMb87PISWx6l6+/AK3t7d4/eZHrFebpB/onEWQAVIqeO8ik444JoN3qaTM6zmIgCAUhAoJNNaC0tCqKMeO12FAgMf9/T0OhwPOzs6w2Wzw5MkTzGYzbLdb/Pa3v8VyuUy9BjwazVoan16V83QvSXh3XF/OU6TLlTUmrfHYMXJuBbwn7MhJB+lpWIsCoJXAZnOGx+0e+/0Bg3GoFmtU9RwsIKvT8MsEjEwZfMwDyA3AuPgVIBDLX1x3JV78GCraeCyfcvH8lZNdcvQ9z1HzUJMNCUcYZVR5yY1WvuDy78tzej5f/ly+MUJg1eAhfSe/TvEKJWhYqmB/L7j3nnr8dalp/LaXEIg5f6R8egeUUBCBpgKRIRGAoKHlnjdZAPEFJHEZgKhyGAJsGL1BvhFz6u3ptZ1u6n9sA+fX/LkUgf8/R/v5GKcRSX4O7M05SnPOIfhx9Bj3OgzDAFYANsbgcNwlabDVaoXdfov3H95htVrhqy+/xvn5H+H29g5dN8C6kVBEAhklmiO14hZFgcvLS3RNCxscbHAIju8FRcRKlbDeQUVSDpyH9Q7eBng4qEJiuTxLYOXhcMDt7W2c9XeBX/ziF0m+/Pvvv8eHDx/w5Zdf4sWLF0kcxJoRA2GsLW8YS1GJlGkv8homoZCxIidFgHABWghIEaAEIBEwn1Xo+xk+9nQus7nB4uwcm81m7AY8fZjjQ56Ozsrfo5SCE+TJnHNRZk9QmuoDAjyGTL9MKJLMyheQciPT7rQcB4ybNl/Y/HPnHEzEEAJNKaD9IygCCLHcKHwG6iEAkdEIJTF0I5Ept775oufrz6sbvICt5eiBwEshaHKyiJFGVdTwCvBOwDsa/jl4Cx7kWYAiCD6m9x4EKzJ5aTwfhAAZvT93Nzv/qd5Cnob9YzyP/D7zv08xlJ8r401woBODcLpO0vP/TARy2olZaKKq0obv8e7duxQdLFdzbM7XCCEkncHSaQyDRNsecfvxBpeXl7i8PI/gryBq7z2x8khJd4XN+RpdO2C/30OWFRRKBEh4SXmzlITUUG4+NoL1XRsJOhaIz//jx48JsON73bYt3r59GysXV6n09/DwgN/97nf44Ycf8M033+Crr77C0E9nRvBIMyEEyopwAQCxs3ZsxuMejDdv7qAk4JSANwP8AFitIbyDBHDY7eBBUu4Xm3NYKASpYA1Jsmud9Sl7H8N5SYNAaIEPNK8+eAQ7bbqAENA6E3zIcuPTvJANxmloKVWR8ncfAtW+BeX6KYcv9MRbe97o6lPjlf/Nm4AXGnvEvJSYA5cAcIpBsDHkNIi9Ff/M9A7cpUWgHy9ymuJjrYeApHKdFzDWkiEIcdNyrh8EhIgCp1KkELiIRCW6prgBBRsc8dlrPUX78/fkvz/dvKc4ws+98s1/WoM/jTI+95n8c84yPXwKxlL1YoNnz57h3bs3OBxIOuvy8hJSSrx//w53dx8xX9ao6zKmf4bC6qrCrJ6jLKnttmsH3N/f48OHD7DWYb1eQwiBw76BnM2o/KoVtTKreA2OqkvwlMYq57MqmIdzxCVYCJnmL/LmBJAwitevX0dBkjWePXuGJ0+eoGkavH79Gr///e/xH//ZX6RRZLNZlbpwCYCXeHx8zCLUqVRbXde4uLiAFAFDd8TQNuiDhRISQVBj2nq9wrHt0R064qqUBXRVAcZjMD00W+C0sOUoh0SbYQTIQphOtZGSJtkIGSACDxCVFMLGG+n8dPT2GAKOY5r5+PkmZO4BMw/zcDQPyU83/emxOKrIO/mYlJFXFFL14iQKOeUN8OCMFAE57iMYgTlkaQ1x0WlaMRwN9wjBgxRfNLw5kZqGJEKT/LRWL4QYdwt/kxzZfqf3Jf/dKUj7OQ9/umH//3nl9yrf+HnKlkco+fnQfR0dBKddjBvUdY1nz57BWmLN7faPeP/+PaSkuX5cHQghROYddQY+Pu7w+PAOUtJorafPaMrw99//iN///u/x5MlTfPHFF3j67Bo3rQHPuUxrNDhYYeGtR9O3FBWEmKcXBQotU7heVbOJViIPHeWe/xAC9vs9fvjhh2TA1ut1Kv39zd/8DZbLJZ4+fYpnz55guVymtY84LYgpxSG41GgkBLXUn5/PELxFqwTgLGzPjoXWwOFwQDVb4MmTNQ59h8d9j+OxgY/VFvG/+i//LAxDlzbFbDZDWbFCr8FqtcIwdHDeZJuXNpLWGgjVBBzjzZQvMAI4dAI/uDlCSolVPY8DGszEgwU59UwQ00k7LuIJ9WKWNjcDd0KMlYmuHdImJj6BThtAKQW46YBTXoRcasoHZOSST2zhWUfOu4AhTljSggaUOOOxqFcQVkI4DVgJ5RVk0NQcBBpdxgZv5CNEMC4D5fjaQ2YYQgioVXUCnk3ZeHm08zlA8PTfk42Q5Zv5e3O8gWTB4/dBQYrxGoQgJmQIlA5KCRSFgi5knGtAoqxFQS2su0ODbuhhrcd2d8DHh3tSsbl/wM3NDe4/3uH+7g6Hww6zkoZ/vnm8wfn5GS4vL/Hw8ICzszM83H+Ecw5Nc8RhtyP5r81Z1B+4wXa7hZa01p89/YtPDF4IIcnKPTw8oCjGHhXmKkhJxq1zHRiZH4YBztJ6KyRFDrOqjP0HbSrjVQXN7Lu4uICfL/HmzRu8f08ly2++/gW+/PJLzGZzWENS5mVJMulK0rpKmEkQMMc7QHjMqgpDc8T3r36P7cMd1nF+oicLCxcUOuvQDha9BYJUEFJBF4VCUSzSxlOKxoPRA0ccjxxLOZLJHAFa04Yyw+hVTsNpDpPZMKQ8L1o4rTUQPQADHmxkHHh2X5RY+gTppofFTQ45S1HKUbiiKMpJjT9/CUF047z/n8+B87H82Dl7ka+VR1gPvYHxcRpv1En0lpiUwisqKdkCLnjo4CGhIYSLrcK5R0UWSUyZi3TSU3DtFMA8feXe/nMG4DRdO/Xkp8f/xHBIQZhETN/Gz46fD+B5e7wOACsRqzgeLgh63qC105sOTd+gbY/4zW/+jq7fUEluuVqhqgrYfiB5680ZQiDuPncG5lFmURSk8ns44uJigy9ffo0XX3jcfPiAm5v3MMNPRCleLhHgcTweachI5Mp/8cUznILC3o8KvIvNEkAmmwbAOQPEiOFwaAB41PUcWtNaaw9HvH/3AR8+fMD8yTNsNhtcX19ju93j+x++w6tXr/Dy5Zf48uXXmM1mFEk7B2sYKxlHqt/ubtC0B9hhQK1VEr1hY9X3PdarFXQ5x65pIdseNTR669C0HVUBmIfNi2HkdyPKPXEuPG52KncplFk77ucWGW+sHKFnZp/WGqbpyBDIaT24tyaV47z3iVTE3sfHzj6pP6Wo5nkm1ClyPyWxlBk1mQ1gLuDJHj8PbXPPyriAsQOsnzLrvPeE0jsP6SRgPVTQQCgIoZUKIZBWAIOn6R5HwG/ckLGyEsIkCjgtzf1cTv85752/8meWYwX/IQNArEqqVHhBXt7HfgYhBJwQaaPT+eoIgMY2cBHgA2C9hfUGve/Qmg5t36DtG1RxSlXrDDW4COqZ75WC2ZLSznq9xllUz1FKoesNhp4YfMvZBQ7HPUWdHwy6bsB6TSSjy8tL/OEP93h47NH1R5yfn+P586cQgib+3N9/xJMnT1JFouu6ifjm+fklnLTxntAkJqcMrFXw3lLRRkl4ZzCYTKuyKEnXwgf0zREf+yEZnF9+8y3M4LDb7fDr//4v8ezZF1gtKcJZLtdQitSZu+aAQ9T76weapcCpAu8hXvPL5RKL1TlkeYAsWjhoNP2AfjDQTdOkcUas/sqLgHN0zv/hRdSid2MZriiyRToSafg4uSz46SLMc1Oc5Il5qc97YvHxsZVS1FQEoNIFnIg9zuDmlLhIIVAoBXBaEqiuC+8hpITwAQ5jPpUff8xRp1WIvCLC589kIhWnEud4ghDUpuwjbUEEDydclPf2VNuPG16E2BgFQAaegkTGId+IEjq2EdOm4w2Z5/ynyH9uFPINnadrpxuco4/T1+QYPiDAwovxHglQKS0+1hgdxMUfLODGnzvtAAv0xqJ1LTo3YPA9rDBAIfDtH32N/f6I+9tYabKO1JIZlDUHVDMaqqlmKmEC/WAxn83wsNvibLnC82dfoIgitMMwwES9vD/+kz/CdrvF4+Mjbj++w7HZJtnu1WqBV69eYbVaUR/A+TmBinE0uPceZdxwdJ8Nkb2EAkQJGSOeriVxk85bFEqjKEpUJXn2Xlj0fYfDYQetyziwY4XNZoPNZoO3b99Rzd/RcJaqmqUN7pzDfEm06aogYZqcJASMnaJSks6ADSKlAOcQox4ALzBdUD2aZ+zxJqaSUswrZQFnHTo3wNtisuDSZpcyLgXSJ1OyAALJjFMo6OC9Qa0juu9G8k0OSjLV1mV5e24AkoHIIgxkarj5SC4AUQdgnI/e924ymeg0hcmVaU/FSDg0ZP12UmIJQIjnWkh4QxvbBQcRPIyncqFTDgJTkDFPQUIQkDKnUuepQmTEQSVs5tRb588j3/Cn/84Nd167PzUc+c/y343n7eOm17EEmpGHBFm/EGI1KbCSssOgbOohafoOgxnQwyHogGJeoDkecWx3kIXEFy+fQgmNw26Hw+6IoipxvnmC4/6Adx/eEzJeVpivlpS+eY8vvnhJslx1HMdtSWrr48eP2O92ODu3cbN9ibu7O7x+/RqvX/+E58+f4+XLL/HFi2dJZFNri7IcJ/haa2HFCDpTlEYsUCmBQini2xcV5rE9XKqYQsRuQFXL2KlHRKf9doeuabFYrDCfL/Ef/9mf4s3rt/j7v/stiqIiYZKnz4lObHocDg5FSb39zY6mMHM0wM6JJzvpkqYTDY4ijrPNOekBnCLE/GDJm4YMCCtQlmOI65yDkiODK29I4QXClF9gqoqbcmhJF+7CdEAlLyCeqOuyxc3HpXOwkwVJ5zCW+nJUnysUeSQiZZiMwMoFQ/nzOX6Qb34Gf/hGa60Ba+EhoEHj1Dvbw0fv5wOhyTYO1AtSQoQiEvtjaTD2BdC0hhBlthWEcHFUugAUgACIuLFyr53fPwApujvd7Pnfp5v8FBA7/f3pz08NAuDHEdaS2KRBABKeCFFpwzi0kiYONX2Lrqf7PziPAQOCNNg2j9ged1BQWJYLKEh4AKqQmC9nGHTAYrVEN5BwhgjAfLlA1w1QEPjFL3+F3eMWd7e32G63sMNoMBfLNb7/4e+xftikEeO/+ie/pFHij3v89V//G3z77S+hNc3m8w44HHbwHqlX4fX7dwlvoEYigCZpF4BUKDSp8Poik54LAIJC8BL9sAWUwny+xPKM5hF03YC7uzv88N0rvD8/x/PnL/BP/+I/wX5/wE8//YhXf/gHvHjxAt988w1pDxQEEjZAlr6L1EDFjqoqq1jdc1BxfqHOudrWWjg/PljeBCQKMlI4fSRZsFfiDZWX7/LFlEg72ebK830GkHIPK/x0DPNpGMvHVGokLY3I90hd7iLRJ53nyWLO67Y8gDI/j5GGibTA8w2mxChvnqIHqUBdgYgdlYDXPvbuU7gfYujugocIHtKTsWX0PIRo4IIEYGl6oMgZmgUIgxvBtvw+je9TEwPGL37v5zx9/v/5vTv9/fS5hMmzCrCAEDA2RgCxCkCpXASNg0UrO3SmQ2Na9K4nQcuuQ98b2MHAKQNVSwgXcOz2CA7oQ49iVmK+mOP27h2uLi/xpHgGpRR2j4+QEJgvB9RlhR9++IEksVwAgqTjWpqYXBY1vvzqJW5vb/F3v/v3OFtv8M033+Dp02vMZjPc3tzh3//7fxfVgV7ifHOJYRiw2x2w29HIc+tsWld5uM1OyJdACA7CWARvIYVEWZWo6jkWS4P7hz61C5t+wPaBegXqssY3X3+Jtu3x7u1rvH/7DpvNBt9+/TUAgbu7O/y3/5//F/74T/4MxvZw2d5i58xGOh/Sw2sSMbrVxvZQWkDpMpY2aGGyOAPLYvPDpYNYyufkODiENxwvmBx443yFZ79xqzG/XwhiCOYjwaR3yWjkCyuFqbEPXqspsQiB5I+D8Ih9NLEJR6JQOpUBER+YsUhYA+uoMxX1lJo8ll/GkHkW5aO5LAgAUgPWB7jBYTZbwAvABwnrHYQXkEGkEl8IDj7QDFCggIitfgpkaL23NAQUyOTCaB6AjByM/HUaoZwSdfiVh/uf2/y5gZjc35P3jIbFpfNCPF8hfEz5HHHxISDFKMTqg8PgBwx+gHEDet+hdz2aoUXTNhh6i65pUZYVClVSCBU86nmJUleQhcJivYQoFA4PD5SueoPLzWV8dgo/fvgAUlekFvHl6gzOWFjrYK2D8hYXFxus10v0vcHrNz/h7u4OFxdX+PYXX+P8/Bzv3n3A3/7t3+L8/BwvX3yF9XpNvITdDlKXaboTRZjTwTFpfl9RpuGsXhBw3A1mnIfRmeSQ+NlQ+hkiptHg9iOxH1erFTabM1xdXeLVq1eQCnh6fY3NcpGehxDEo7DWoo6DTgZr4QL1rwzO4fj4SIIg7MFyZRYhSIddQCH4AGPGoRhlUacFVhRVEuCwtscw2CR5LaVCXRfREwVoXSajMAy0WealSjyAnKXnI0jE/dw+TOW6x5B8On+dfphLWOnJAEXGDPgmWzuKJyRE/2RaUZqDl+nPc8Qwr2dkPKIMutYaEkBVlZAzhd3DDsFJCK+glYaEgLcDrAdEHAUGAMFTsUxKCRkkyHxZSCjKrYWOkoMB1g6wlq6/0NN5fKc5PWvRnwKZbOTy934uhTh9naZpUog0uZYnF0kZCKMJFMl44UE8Rg8XaF4CXYOF1QaHdpfKb73pcGwPaNoGzgWoSsPBwPQ9nPGYl0ss5zMEG/B4eMBivcDDwwNW50sUusJ+u4UXHmfnG3z/3SvsdjtcX1zH52TRPu6SlgINyDjENFWjrksY40hEpDfY7Q54+fJlUiPa7fZ49epVxAwucH19jfe3N5CqgtI8Om8cwhpCIMEZGyB1TI2ljKCvgFQF6mI50USg9eaTQyFR3HF4bj+0sI8DdvtHCCHw9OlTQJBBvbm5QXPcTXglu90OL778EmW9xOPhiFk9h9A1tocj8QD4S/O8mwEm/tkpS45SAA4xR2/KaUDOnMtz51NPE0JIs9+kHlt2uQzITR9VVUFpPdn4knN+Oe0tCCEg+GmuyrV7WvxTFeTTsl3OJORZ9TlXPa8CsMEIIUBLhSBIRBVgMUwyao50vBi3JAqQIJ127yIwIAOCtAhQcOCKgIwGThHaL3xaXEpy6D/1zKd5PqcB/Pscm8mf2+cqBfwsTp/b5N/82RC7MaLxpTo4yVWHYBEk9WRAODjQEAwfPPYHGsrRdkd0fY9+6NCaFqIAZvMS2/st1b+tQCELWFmg8xJ28GjMEWHXQShgdbaEEAIPjxZN12Bez7G5OMdiscLQ9Tjujhi60ck4Q6y9ajHL+B6jqKf3NCr817/+Nb768ht888036PsB7969S91/i8UC3/7Rr/D4SFJl1trUx6CkgvMB55cXkxSYuQRSSpSzGqFrkDNH6b6OupVlWUPGUiMbCiYdee/RdR66kKjLEmUcNSfCGHFfXV2haRq8v7lH7zy++JK4BU0/EA+A56DlISH114xNGnxzxpByBIo47M03P/88zx9PS4EJdzCj4MQpSJgbDT4PjlRUEb2xMYkVxOfHNGPvPaqSPHZA7JpiRh17MTmly+bUYI428jQn5zDw72gjCSBOsLHewBo6RlGUVPFw0VMGz13MkFE7gNpPY3VE8Oah3gEEoqZSXu0gpYOWCgJjVJO/Ple353vJz4DvKxOZ+JWHj2y8TzGATwxAFnkJSd2fHoqAPkGkGBccAkw0Yg4hOBhHm+794/sECHpH0temaxFUQEABUTh4ZyC0QlGV0CVg/YDO93CiR9f3KIoKLhgqv8nIMZBANa8Io3HEHQiugekGNE2DMjYdVTMaxNl1HYKPg0zqItb8G2zOLqIk2D4Bf8+ePcPD/RY3Nzd48//+b/DHf/zH+Pbbr5NikLUWdZzVx+mu0CT15hOgDkgX0zkBQIyVKiE1JA3AQBepxc45ML0qAHDxZ02zgy4kTFVhXhbQKkDLMap/8+YNzi8vUVQkovr4+Ij77RFBkhqRZgnjfAN6N6QDcL/96Fko1OFSm/e8KAR47ZHnCOCON9pYjNLL9FkASTHVOJs49qzuyoZDaw3rxnmDRVFAl5Rm9MZMPBb/Ow9rT70ce3Pi8o/v59QlNwD5KLLcwI07LkQ2HHlD9prWkREoS25XjseI479tEFBeQSgBJQRCIC8vPFUDEIFWFctH8NwgjEi/nc4ryKs3p/eA/z8HqXLwL+c+5Jv7lDR0+u8QQlJ2AmgdSykRIsnHCw9rDYL0JGTqLVywMLZF35Pwpe3Ik/WmQzsc0fQNjOshtID3Bcq6BOMLVangYNC2BxjriFKsCvRDg5v79yiLGqoQKFQJKaj93LgBQXis10uUuoC1Hrfvb6DjiDWEgELXCKVMBpHSWg9nj5A1OzSiBbdth+Vyiaqu8OVXL3B7d4ff/e63+P77Ct9++y1+9atfkV7gbgsBqiypkvUOC6hCp7Jc1/WolIBQmngSyB2mQmCA3jkIQUK2QkYBXSERpMNMSjgfIwtrUJUSqi5TW/UwDPjw4QOME1icbbC5vIYqBRwcrPPQpLGnJii9FONQD57LBowNKkKIMRRVn06Oyb0Je53THJPfOy9jDRtjJ5jWGjriEBzq8IblBTye3zTFoM0+LuSht5MOKw73Ro2/6XmeIuOnOW9+jSm8FkToSbThuNmlAnVLFoS+SkiaDORo4m+QAUI4uDg0RAaBIBwQBHwA4Ak0E+wlIMgIiJxZN5U6z6sUfC/z8831AZIN81N9QP4s00lPKwXTqoiFlPE9fK84woCDC0S8CsLBw8G6Acf2iMNhR8SWRYVjs8f28RGPu3sY16GYacyXMygd0A9HeJBs+IABQ3fAseuhoKDqObRU6J1H0x1h7YBKV5CqBARQ1gqzcoPH+0foosRcalxsLlEXFfq2w263Q3dsUeiKIiqhIEWZuCtlWWK/P0axzwrH4xH393f4+PEW6/Uaq9UKL794jsWsxvvbG/zd3/1dEgidLxe4v79HHx1I0xwg9VghU0rBFyGKyEbVIpj0HEIgIZmzs7OkhcnagMFaar4LAXVRYzCAPRmCy0a9LEvsDge0vYMTEp1xUOUci/UZ5oslKQJJSfz+1IyTJgAVWe4bgQ1/2jgypeJOAbrposrzbI42pBdpeAK/OPRkgkhVVdSFFf8IQaPJuq6DPEGnaXGOwyt4s/NC51p/+r40sGOauvDfLMyY58wTT+mRwjc2AD7QpoAU2aa0ZMURS4DBwjtHg0CFALxCECQMMjLpBSAkWPtbCAmwRHiwGOXEp12PE9bgZzgep4buFDv4HB7wuVf+ucn7BWIqQOfpo/e33qAdmjRM89gdIXYCzhv4nlh0hdbQQsKYHr1rEMDzBQWsa0iGXtM8B1kGOGNQ10QvhgcGRw5jUa1wtlmhbyxW6yVW8zNs77eQkoBjro9/vO9hwsiGpFSXIo66nqOqQlIo5rq6lDJN9L29/YA//dM/xde/+Br/8A+v8PrNT9gf97i+fgKlFNbrNV1v02JoG0AKVOUMVVWhqmt0exsHmxABL+9UdW4sL4/y5hQd8N/OjI1qlVYoi7GBy3uP29tbeACXl5fQ9Qy394843u9wNhisjR2ZgMC01EaWX8TaYpE2vws5IEhEj9NFclo6Oi0p8QKki465qVIT0UMfRrkqRt15A3Keboz5rAHIm4HyqCP3jCkSwbTUl5OBEBdffl35tdDfHlyqofdwlQKQWsM4O6K8Mvb7e2I+AqC2aQhAxAggEO8/XhFCcAhQUGlTUmhL6ZVEUgbBp9EKL4K87MmL5TSs/1wKwJ/n6/0cLVhlj16I6UyJEMt9NlgY18PYFm3fom2PaAcai3143KOqCkgFlFpjcBbOGYTBwcCgrCvCVmKkqUsBXc6AIGGdQRAKspDpXEMQMLZHLwusxQrG9pjP57i8Osdhe0jl3sVmQdesSKm362lAiHMexkTnJBX6vkvAIUePADCbVZjNKlg34G//9m9xdXWFb//ol3j69Bq/+e3v8Pd//zs8f/kSM2sAoVBVtIcGa2DsqGztISF1LDsHgSAspIq4kxA4NN34DKWAkIqk4/hnzpEUuBAo5Mge5fVYFAU+3N5if+yxubpGXdeo5iV6a/H73/9+VAQapbNDpOzSzSSMIHpQ5E0GgJRhokhzKrSRh6c5ISUvy81Kouu6MJ0VIKMIyHxO7cJd7Lnm3CaIMcIInzECvIBTxOCnnYj8yrnweYQCTGvlp2lO+sN5Wfa9QmTGSIkYJQloqak91kXQz4vobagtmHAA4i7kG5j5AhACIkj4xP7zUPJTpl9+vsmgZs8ij9LS/c5+Pr2WaZNQbgRCINkpWhljpQEn94rTy67v6I8ZklGa1zNILdD2DR63Dzj0O1SLAmeXK5ytztANbXQyMY1SVE7te4P98Yiz5QzeB2qI8QJ1sUAAOYe2bUhYxIz9GavNCldXV1jM5ri9/YiXL1/i5uYGd3ejoCyXKCmFIo598rJVBSmJgt62LQIclqs5js0ev/71r3F1dYU///M/R9M0ePXjj/j48SPOL6jxaLkucTweafBpd0RnBtRybNtmx5YPj2WMbDSqblIFWM7n8MESXuAZtI/GOeppeO/hhgG3t7doB4vZcoPLJzTsRPxv/2//s9C2LZqGVFcpzM5m9FnSMOecOQSXGHMAIKp4cwRtbCU0gvPQQsXeaZI5HqyHKoiB5By1+2qtUbtRDomPy5s8LynmPflsjZumgZyPTL3TzS8EyYrzYIn8O5iy7Mx4bL5pOaeADQYbCDZS6XziiC8GL4UQ6abn0uJMCGFuAX9fJRb0+SjQ4B0RgEpd0b3rLIxxJBwS5x2wroEIgBZ6EuHk+ErapCcNThzh5cIv/LfMFiTfBz7u55ieZTED4xFQgubQg+r8JgzwcAjBohta7PaPOHZHDAON7To2B3zsHjGfz6GUwrGhrj0qxRHnfr6owVUn2pCxizTy82fFZTRkPk2hUnHYiDMelZ5BoYCWFYST6A8D+tagUCUW9QL32war1SrpDZytFhi6Hg93d9CxNH15eQ4oiY8fb9ANPWaRcLM/HnBRryctxDy6+8WLFzg7O8Pj4yNhDV2HxWJBw0DqGtvtFvf391hsXtI6lhJnZys6Rt9GEhBT0gOsG1IEIuUINtdyCW9auP4ImAalBBbzGqv1BtVihX/46Q1aC7SDH/Uq4KgbER6a65d5rZyFPL33UPofbx1l5R8dgbe+7xGch4yoZw5KSCZBeJ/m3hkzaggw6y/PZU89Wm4tq6pC78cyZO6Z+MVDFvIoZQzfp+nLqccDxuGleUjM5yGEAOynyrj5NbDxzL+bo46iKKAZZE26hQE07ISo1kJIaC2JBBfI6+d5vvf2s5t/CoqGmPvm10tRXAhq8pkcz+F7cnrcHBT03sIL0mCUXM70jlD/QAvXRafBgBgASC1RlCVmYpYaV5yvE3BZVWy0x+GuZHTdxCE0TZMk48pSgwfMWuPgpMC+2WNRLVEVZFDqcgbpJJTQxIjzwP6wBYLDL375Dc6WK7x98xpdc4xTge5xe0uzB6r5DKuzNbygdV6XVVLnBUalqbIsk0DokydPsNlsSND0cMCrV69Q1zWePHmCP/mTP8Fvfv8Oi8UsDS/t+x6zeZQy65o4SWiaptEzoeufzWaQtYYtBIajhXAmrVPmHCRQkOnanuTNgrfQbdtOPAJtDJcthulmyRcAeYu4KYVMVtlbhyIubOYYFFHrzjoii7g4ykgmAxOgCj3xpN57DHE6quBSpXeAizek0PDZ7L7TcwSQOrfy3yeUNctr81QlD3P5358LpaWk+fSnm/+0ns6hYwhjY9WIvRCiH4RA7BcGddV5OGdoQYOMAGEyQIBF8FGLIACUbdOf/D86HzImCDRkNESIUYDAujSbMf7Nm9+DWpLzNEhgfD9NeBbQdQbyClpYvR3Q9Q160yEIIv00fYPBdFSWC5RKlJWGdCOIzOxLjkiklDDWTCIRaz2kHJ/nYAaUMeUisdcAqXScvUhppSo1gvDoTA/lFWo9Rwgebd9gPq/g3IDFvMJ6vY7Tcx02mzU2mw3WqwUet1vs9/uRlq6oqawsayjhU8ma5bqYPHY8HvHmzRtcXFzg7OwMVVXh8fERbUvDRvu+x/Pnz+C9x7E5oO2auPZnydCTs4v7z4morERTppUiwZ55pRJwLtJnxtSYy/A6Ol0EO06u5pvNVFiyrqPXtm4cuZVvIj5wiKyjkDzX6EVYt1wIASUFPBgIJODM+5DwBd40TEUGkKam5jJcjLTzwmRuPxOAxnOLnsCOGzcPdVPOb6dKQKdePP/5qbE49fxsaIDR6+fpBi/y3KgMUVKKPZeUCromOqlSGsd9Q7PsVUGMdkGKOkISBsOqxFQ38GCqCD8yqj4Qe5PES1X0/CL+rT/x/PnzziOB05cQApAjU9DDwwkLhwHGdRhsB+MNrB3Q244IUoF6SZynDk8BwNlROl4KAYkYEcFDQkBFiTQHG9HwWIES1HbrhSf035CGf1WRRy3nBWShUakStjPY7xrACyyrHgIKfdNjVi2wWFYolEbXHdA3LZ4+vYYIAduHR9R1ja/Wa+wPB7x58wa7Q4M6KgD3fY+L9Sr1y/B0YE6X1+s1Hh4e8PHjR/R9j7OzM1xdXWEYBjw+PuLNmze4dvTe5WyGs+UCu90O717/hNlshuvr6wRU931s+HFhsv56YyBqcpCBjXlcq4afZ9YeL6WkaV6BelZ16q8HsvKXGcMGNQ7KpPeN01mKooCJC58WGpX0EDuO6OcUYQQhCOhzrJTDm7KeeNjcGBCTbuxN+Nwr30x52Ju3OefA3udIQTlynv/NnzvNkfMNYM2YLuWhfR4FMHbAD64sy4xklA3OEBpCj6PGAQsIC4D02yAlhA3UMAQK350bz/80+hnvD0d1SH9yg0CjyAAE4ikgViWYoUYLhyobzHmgCqXEsT/E3yOWPR2CcBAqQOiA7kj1+SEyAj2IBZj3dYxl0rzywPd4XINKEZEnX4NeOiL9CEH9E87BOAHIAAkFpQtAeXjlo7ESCDqQ8Kfs0fQOCzmH8wJd32M2q/DFsyfomx63H96jbVus1xss5nM8f/4Cm7aFC0DTtTgcjhiGIc0LFILmD1RVRQQgpfDkyZPIH7jH4+Mj1us11ut1lC+/xPuPNBh0Pp/j+voaF5cbzOYVmqbB4/YeFxcXQNAEzDtMolnvXBQQqeAHga4s4fqRvWpcNBR+asSVUtBSAEGRHgA/BPauuYXh1lreAPygOFz2GGW7iqJAVVSQQiQt/kQnDoFIIXFslgz5KKjR6+Z0X76Q3HPmCL73Plm3PE/PvTOTJ/jGMciYNrKfDvrgDcvfy0xJDqk4suFzLzHeP8/5Lajnm+8j52v8/1rS/MDe2BgF0abzsNQ6DAl4GmRZVBpaAlJR6BYkEJxNVRqhKyCAGogoP0iCHOmlxj9eTDUCqXFCRB18wCPQwFMRN7QARBzpTjJshB0gRhBCxVFyCPDxvrRDi7Y7ojcdetvDmAHWGwAe1lsMtscQKwFBADYThOWX1mNjWvDEhxijMPoTAjAYA6klyqKE1NyDQucQbMB8RhtTlgr1uoSwEoBB31sMrsdmVkJoB289fOjQ9QZv3/2EUpX44sUzeAdstxT+09Sfp9ju95APW2hZwPQN+t7g7KzAxcU6DiCZ48cff4zgnsZqdYblksDCh4cttts9zs9pMMfl5SYOQG3w9u1rXF5e4vr6GvP5HHd3d2hbIioppWJqERKY7WIrMjEquwkxjveBlCQ/K6OyMQAQREqNfqkbMPeCOVrMG543BW/QlC8XBFT55GECkvkGeZkQYpSAAK0Kyv2i1ZeZ5n8whgJYKSC0ghaaJhDbbAPGfI/otpZabMUoPppv0nyz8oZlYlBS4OVzPjEcbAw4+siPmxuAIkYHzDTkTc4ePjc2HE3kJTfylnFDegLTlBbUD+AMlCoox4/PQUgJaA9vPJx30KpIbl3IkEpw/AohAErQ9FvBxjbiDsFBCaIYx1gJSiqiFiiiGDg4BJImoeP5ABEpygoKSoxc9cFZGNOj7Tt0XYvODCDef4fBRgMQPHo7wPL1iClRiQ0vV4F4rZHHQ+I9ULXExzKrglQKwRs4HhTjaY5i71r4YKFQQigaFNPzSHjloMoAqQlvqeclFrMlhmOHYWhwcfEEWmpY67HfH9PaB7ibskSvgIuLCzx9+jRVADht1VrjeDxivV7HWYWU2u52O9zc3ODh4QGb63M8ffoUT55e4ebDR7x+/RNub2/x7NkzPHv2DPf391mUOkaoVJGh7trjscXQ7OGMQZUxc3ntKaFQiHEsrXAD4Clt10NGIRzBvfGLnB8Vd9jaMGdfCIFCj+OLnCPyhhOkzzfJdc1ALZB67N7Lc86cuZcbojy0zg0Vd1Z5wfpwOr3fezPpG+A5gXxM9ixFUaBrjhOjl9qRYwrA4875+3OgSkoJ2wwT/QB+WIm2GUZREb5HeeekDw4U3VPjT1GOQqsQGs44mkwLQEuao6h17AsQAc6ayfMLJwaAIryQ/iCBg2wgWMoqdihlGIKUIlaH2MbklGjCG7a7u+w7aWiLVAGqEigVNbPYiAP4KASSIkGlUKsSCgJGRKMZABeAQipUmgBcLxypijkfmZchRVxVTSo3AbFXJBoMXRbQssDQ9ehDDy00ClVCBIUgAspZgWqzQLvdQ1qJrunx5Rdf4n/6L/4zeAP8m//hr/Dh3RsMg0ddzDFfztA2Q9LUt9ZTR+BM4/z8HOv1Gu/evcPd3R1evHiRypkXFxdxUvGHtBaurq6Sg2iPB/zD77eYz5e4vLzEL3/xC+z3e9x+uMGHd+/x7be/jIi+Rdv0KS1WSkMWEovFHN3Rw3YSQmtoNaacjCuRUVfUoR0CQrBwLkruAeMUk6IoMJvNoBTVz5umQVGOrDv68FjqKIoCWpVYLSs4Y9C2LfreQEl6gADSCCN6SMSU67oGXgBFqVKulOcneejOgEr+/+zR5/M5BudTyYM3Kk/07bougZuMZ+TpTo5/8L/5wXAu37Zt2kj5rDb+f+vHDsKRPKIn18MA4OnmFEKgKsfZhlIGWO/RDi1RgkNA0zUodQGtSwRhiXIjJXRBKHznLMZpSmO3H9+jckbNJ4Ox4FbXoohjqGwHJQEoUil2idCjIEWAlAFeGCgFCAUEPzaseOFhvIXzbboWIUnuy/iB2H59h91uS0ZfE3vNhUicAtIQGn5uvKYYHzgeqRS3WCwS+YXvfy7PfjwegSjtpgsJYy2CIU/cDS3m9QISQN+3UEJjOVtCQKIfjgjKIcDBC4PH/T1+evcjrjbXWJ7N8fr1gEPbwQwWs9kKq9UCkIRDDIPFar2GFhYfPnxIo8BevHgB5wi0e/HiBd68eYPViur7bDxZVLSu6wQCt+0RHz5QO/F8vsT1kytIofDXf/3XePr0KZ4/f4H1eo3d9oD9fg/vaW1z6l2WJbr+AOdGfITnWzgLOEuxXFVVqKolvI3KyfmN58VjbdSnKQpkKUWGC4wo+na7jWHG2N1XlxUKRbJYfd+nYymtadyypy4xYww2s0XmuUcaYx5xhDCKgfDvT9+ftyXnpJU8h+ff5VFEOMk983SAo4X8/3lzJdTcR88aQpoJyJG4DECpNJRUVAGJTVc+DoQ0xkBviASjQRGRdQOMoWsvZBFHXBdRDIRktIhBGGCcgdY1nzmE8NHTjx76eNymZ1YUAkIQEKZi6EzkIgGlQBtdxPq9pT5+imLshPwDEIgIAA52NG5R8MBYC9IxyDAVO0aSha7S/RRhajCTDLwb6/0PD9t4/lUUYumiUVZwxsIFDxkknHRwgdiZzFotChXr6BLSeyCQErQMDtZbVFVce8qjsUd8+PgBx2OLD/e36L1BNSsBR1OadaUhVQnXdnDBAsJD6wKr1Tpem0wOqCwreB8wny9QFOw4uDNWQ+sArQsE6aLjoftK6/1I9wQS/9F/9Cvs90d8990foBRVFjbna3pvT+PGhR/QH4+wfQ9VjqPkROQr2KAghIaScbRdP6TZh5rr4pxj58i01tSllOe2Wo/5OKnnOPIUIBaYiqGcj8o6zCoUjKCT40p/PD8w72HjQ1cxNUjpgBDpdxocpNJnSaHYw7t8noGgha0KeBdr1nE0uACJbDjnYY2DVqcEGWQ3cGQpnqYgKV0KYWI0ckCTHygbV25mAsZORv4OGR8O4Qtxqq8ijwoEQrkd5e60GceejSmIGY21iLRhjG3OQgj44NCbUTq6LKlPnf4EKicB8EKQAQgW1gLSTzkSbIBNGAeziPhQQwg0TRceZampO9IRlqClgtRjNIbBQskopR3hS18USfDFDg739/dYLilE7u0AF727hIIx5EGDjqmN8PCBMA3nXGyi9KQLIKnEKCRzSRxM8LQmCwkogYfDI+4e7rG728MGS4o9CHCBWpmD0LDBYYiVjLsP27ReOOxn42YMTdbSWid16dyZAATe0lU7WGNhuh5taNPauNhsUJcaripgBodmv4Mb+glfAtzwpqdiuMaMlS+tK8jYimxMBymJ5q8ZYc89Y+6BmQ7Jm4C/gEOyuqYQ3xsL4ugQDuBjJ9/l5XkyFsEZIKsgaK3RHtvkXfJmIP4MTzrhm5wAIXZBvOHx+Y2cs6H4pvKmoahhxC/yXJ83aO6J8i4rPmaZDRrJP8/3kCOTnFKcvz+1YEuak+cyTQXv/cRzeh9STZwMk4SXEsIjVSBSAUASkFgWVQQbAR98+kP7QkCih/cGzg7QpGVMx2ceBWI7dhAoVQkdeRck7eURLEVRfEwpJXwQEJ7mIdR1Tbk5S5wnIzL2FrDhk1JNtCitoQk8XdehrucwxiVMZjZbxB54UOnSg4DoWOWIIVN6dlIipUhSSggE6ELi2HfkAGuNuqwhCoHm0KG1HZQuoCoJXRQABA79EYUnroHUQN9QdDufz9N64tSQUq3iZ3steI0BcaK0oudvjIO1Yxn+D3/4Pc7ONlivyesfDgccmz3a7hip0hcQ0iMUBaQrUWQO2jkHXVTwgY6lIzPXdmO1TLOH40VJ4dgY7o3VgHHDJcDPGFSLJf0uvoc1+JB5tRACUUPF6KJ4VHh+g3KEPG/IyTcWv/iGB4TJe0+NQlIQyoA3NgBCCAi4T4zGaU09Nw65l+fvyUuIfH/4fHJVYT4WA6nOOZSLikQzTo4BF+Bc1PNDRkyS4/dKKQl2i96WLQAdI0YOwScjM6YCOrsOGlXuHGDtaJhH0VaTDWh1CEFP2qNjATCVlSCopBgCKTsjSbTTLAcVGaKGBVLiYmUsiA2AlBLe9THHrZKHpck+a8xmJOWlJQOsVFUKApCayENkLJEGeyIEwDsqn0XZOFkVEZsSCFrCKyCoAKEV0YfrGvNqjqF3eHw4wDiLs7NzzFDj8bjH2dkZlstl6gfg+8r5eV6ay9d56kWZ/J4Mo9bjnjgcDri/v0PbNlgsFpRi11XqamyaBsJTGRDGoI7pVUBMR5yD9QHGd1BZOdo6GjSq8yEHDHwpNQJlpxsqr9uTN2aEPSrcemIScsmBlXaFllH+ivJYOJkADPaOuWflTcd/syFhY5WiheAmGy4PqaWkKbJ5ypKTT6y1KItM0kpMWX2MuJ5u6vz6VZCwzkaKraCauY8KuHJsZpKCSDZSCnipAF0AuoCoaDoyuf7RQwU3TmYiMgcx/UIIsN7B24DgPKCLlO/Toplufq0Vqds40nwAWNItLtQqm47sSL3YBwVjx3sxmBhFSY/BiAQIa62hYJF0CRWggiRdYCnhhIAdqGVXxDCf7rGCFoxB2HRP+dlS5BPi2imyHnyKppRSxJqGRKUrCBlgYhrihScCkNCQciwPc6+FdRZuiOvaA8X5EnAefTvg2LWwmtqXdaVRVhW1ZmoF1w/oTAdAojIzokTDYugtem2wfdwn0M0MLoGZBI7S0FQlA6RQUFKgKmXqGWCNDb42APCxs+/q6gpte8TxuEfb0uzDxXIGXWjoooIxnyfIpaidKdXew2fgtreIBvSk/EUWYlzweadcHuayZ+OSoBRjy6gxJgkTVlWRQlDnPVxgxhdZ/6Iqx5AlZEKiAhCKhBc8SDJMiEhGiSm9x3QWX5665CxGNiSskJvX5VFMiRN5tMEbkK//tNRG51pk/5aT30/v6XgP+dyUUmi8hZIFRUTZechSQmIsPZLHMuMGiQteK+L3CyniHwZCmdjjILVAIaPn9hbO2DEU1jy9N36Pos945+PzqwjwAmAcnU+6j1rA90N8bnGsfEnqPVJKlEUBYzqwkJELDrABrJDKKVZRFFgsFlkqNIKA3MXpo/TcfD6HiyW46brr4B0h+qKIArIQ0BF4dd4jRO4AuF1WSFhroCVFJ4MlFeagJFRJpURvPQ7tAUNvQMNxLbb7bRJzzcHz2WyG2WyWOj+ZSJZrbuaOhFKFBXycRMwakHT9BJSTx6fGun5ocTju0LS7VB0pyxLBegSjAD+uKxFir47W0MUMxku0Qw8hiK0bnEbXegIBT3Nfng0AgNpHshA597Baa9zcb2koYRErCYJGQqtYq53NaLJPZ0jSyDgK9ao55UjcDMIy24zg55uQ/52H4bxZZ1F8kaMYfj8vppHBOGIbfP453vC5Y5+Cfqc/F0JAxlltuXFIv5MsrBImxCSubGitcfRjvwOy866qClVZoev6GBp+OvhjCv6N4WXuBbbbLcqyHOXV/UgkqaoKXb+f3BPWbqRjU+4sU9oRYv3YQEQe/sAKSp4ENEIIEJWCVgVCoaA1EWdcIM6/4ZZdRfp4NvZ7cMjMzofTUaV0TJeobDar5wkXWK/XEEKC5pMSVdbx/Q8AMBoTay1oQIMHgkxYyuOONpMqNJTwUErT8UihBarQaA9Ugp7NZjDGoW17WO9RVhVqXacoI29VH4YBx+MRz58/T+uGf5533p6dnaU1kXQI5Egdv739gPl8jsVyhuVyCRP3UdM0cUZAjWA7uL6HDtmcS6nhhMLRkM6hDCrpMBBnpoAZFMT/8v/0J2G6+d0ETedcJQfl2FofDgf0nYUPZMWXyzmKQsF4AyEDyrKAR0hySmVRwQWPvqdQpK7mmFfUOdV1HYxxqXPOOYe26ROQQjeRjAWHhPv9HssNbcDUieipO6uqqsQhcM7hcKBpLlJKeuDxQQk37Zoay1Mj5VIJOUlVtBjTgMaZMQpxo3y4cw52MFguCSPxxk70CNmyf3y4T7kdL4QxFVPJKIYQUr2XPae1FrbpUvcZeyEpJdp4L6ylsdp5Xm8z8RX2YBwVnaY6LMnG9zHXbCDqN50j5/AMfjFGxNwKVlrinJeZcvt+SM+T1oCBUjo5BVp/ZTqX5kiU17quMZvN8Pb+A9FkZ2VaK50ZoLXGYrFA2zbUKZnhXJAZ1T3hO4qUh6SClBpClkBQGLqYGlkATiK4AB8lxe3gMO+fYrGY4djs8Hj/AReXS1jXY7mq8Xh/B+cCLi6uEAzgncbH2z0W8zXahlIyUR1QFKRKdH5+DmMM3r17l/oJqB14BJ/ZcDNuYo4Bs1pjVSn4/oDnlxe4OD/D+5sP2DY9lufXGGQF4yUM41nBx34SD20HkzZ7CAHwpHGfpwb8ED0cnLEYukj/NJY8ix61AIwBVEmso7ZtASnSohl6A+sdTLRKZVEnlD4/B/aWDBKxN8iRY67z97FdmBcVe+qc/suLmuvNvLi6rsOiWn0SogshUmiplEqDJJKHxxgR5WW+kGEYWuvUIp2XAHPP3bZt8h5MxmLQkj11DmyeApDAWF3Iw+Y8GtBap355vrc2CkMw6MYbP2dh5veeAafT9Ic2fQUPQvchJVyI/eaBBp0M8XM0Dk0AkhrDjKOaPRt7NiL0fFUST+HqCAORObV6GAYUWgPwNA0qeuAa5SQ1lEJAnYx4I+AUgLcRWCWQMMTIB95CABiGDkpWoBF0Mgq+Mv1cYl3PKM3VNY6twrE/YOgOqOcXsMFCaolh6NB3DkrWsK5DP5TohwFCKCwrGqzTxWGhWutEG84B2RBIAzM3rFpr6JlGIUZczHkDoUCy5KrEu/fvoZdnqJbnoyMfDBAcFAIxAXnB5Asu94Z56S8RaLJQt9AlAjzatgfgURc1QkDyZvzglNQIlppc8rAoL5GkkmFcaLxpiIWHdBP45Z2D59A4jA8RvNHj8ZWUqHgEuKSN6Z1LoWcOQPICT2F/OOkalNN5e0KQtLcTI9FICQmoqVxZbsmNMfDWoazyNuwx8uLvykej8f3JXzmAZiP3glV5+fzy59f03WQBqUKncqP1Y/SnoBAEoAqdNieAyUQhG0N/ZACfCx7eRlEKEGAJUEORkjqOPPMJ8ymEiI5jBKiEGI0os0v5uVPkMXaHzivqrAwRfKW+AGpeQqQOS0mlwrwMa33EgDyxH0VSWiadhBBr84PpUJUKRVFD+ADvPIL0UIp6Vlxo0dkWsvCoFxKD6TBbaXz17Re4OKzxcHcHBEqVqlpheTZDoQsIpVDXM0g9pgQcnTJ+wHuMq1Zs9PhnWmvSowCDu592xz578QXudg0+fHiHop7h4uIC6+UGXXvEfvsAXemR1w6M0tbeeTjriBkqACUUKl3FECIKNAqdHpzSMumlKUnioVLG2WhVifl8jkLT6KWmaVJzCYeEdA6jkWGjkYN6IYybRynSOysqjeAFTKT/huhVVF0k5hMUIIVOiD95a4FCu7SYR88wVgs41EUYeQdETBq7E+cRoGFjNnpROuZ8Poc3Nnl4KSn/LJSGFxIy0yxMmzKr43LdO6fMqsywMD+BDYixJPaQvLUUsD090z6yL/PFxQYmR+BzLIOv7bSElXM1cgwp10Tgc+V/nwKsdL49BtNBChqxzlEd30vKm/u08CfHDRKF1jEKiLUPR2w/4QWCIhCfaIFRVzCM/ArvYzepD2TUfYgj6TwBrkEkeTMlZMQtBMog4YSBcwHG7DE0HeaLCkXtoCqJi8sN/vTP/whd1+Ff/+v/Gl3T4NC2KOoKKAOgAe0D6oVGc2xS6lZVVWo+2++pqpA3ufH943uXKnIioC4FirpEWWp477A/bPHY9JitPebzFeZnF2gHg+32AVtvsZjVuLq6hA6O1CVY8x+CWFzexjZcCNL4KwpIXcCJSOV1FrGJHF3bYj6fYXNxBqUE9oct3GAgdeTZC0ma65IELVhxmNle/FAZRBpRdJ1CP1qIo3Xjm8GbKg9fc2966tn5b6VUyrvzhc0vb8cwOTWf8ObIUgC2xHxMQmBHULDSBQaf6QFgOl7MZLMNc4PHzUz5BvpcmB6ikaJy01T/wEfdRW6cchj1CPh4bdtOgMXcEI7db6MxPo0Anfg8QSvhRxxheBL/kPE8IzETSPdfTMJ7G0fD5VhO35sUArPBRGQFck2dZzTKiNV4XlPGYQifaidIFYBAxKAgmWEa3xeorOp8j844lKFApSuUlUAPAdcNmJ0tYfcWVgR4PUBJD1UBKD2Cc9AVIIwDdIAuJcoQiH0qBPRMIhxCqm6EQBJn1locj9R9uF6vU2THzy5Xrg7OwssAQNHUKz3OwOy6Do/Hd5ifW6zOL1EUGmWpMXQD+raBNx102zSf1OJ9pFDyA0Mg8QEOpYP36Y/SJZyL7KxqDkgXT8CilhLz+SLWbX1sgqB6d1HQQzX9MIkCxIlRYMtPOWGdPDZ7wUOzS+fO4AhjFuydTisdOSbAmyxPQ7TW8DHs0ppETvOQX2WbOAFt8bxLXSQQkDcxQNqEvPl5k4YQYM1UnyCvPDjnsFgsJot2QnemD9C5ZWXPEEgeTIRRzs0LmqPIFQcX/KQ0mt/73FtzXsr3OwfThCCKtwDg3Ji2cZrF5VoSghlr+HkUUEVQM4QQowHqQ+BzSRGmUiiKsfrBGNDQNlClQKk0bNRScIJwLCUkFFG9yGPGciAiSUYKieCI0+8BCKFITC1Q2ZHLzNYbDIMBgo3S2xJSWUBbyNpDmwDnWwy+RaEUHo8P+PH1KxyPLfSswAwCLiiUiwpeOiqT+gGQBGgze5DnJfD94TIfr4vT5+S9R6EDYA2sNVAyVs1kgCo1qlkNERQeHx/x/uM9lus1rq+vcb6+RnN4xOP9HVGBc3WWPNzj7jfO/9jb5aGdFcwelDFcJYvKG7VSOs6IoympLkznDOReLX/AAHWc5R4thTyZh5JxsSkpEwv2lHKbL2qAcAP2mKfKQTm2wRs8h90Ia8i8JIeSYcxb+XNwPoGUhZrWgnNvmxu9Uw+azkGIyT3g35tgUjySNihGjT3Oj9N1SkFEIr6ngvDgcHKveIaijhuUMRUP8l5CSgg5dkLmmMmY0o2l1vy6+Fqstah0kRSS8hKZlKwU3YFFaZQSSfiTnZb0DlVZUhoQArzW0CHAOY9hMHCW1acCvAsQyHgTAIbIiRCaDDvl/9y2DGgtaE0LC+eAzrYoFbVYF4VE0+0hCgBWUGhfKuyPO3z30w9omx7HfQNAoXMeTdfieBxQ6IDjsUNnHc7kIu01rpYx+ayqSHQ0x4H4b+YG+OaAwRsIRKHPEDkP8X3dMKCczaClhHce796/waxQ2Cxn+OL5U+jUz+9DElPQWkMrquVyacZ7CrVEHRF4XUKrANv10Jqs1PF4hJSAVgpCVgm5JCJQrBGDWG69NfC+R/A+yxunNGCBKR+f/3A4TbXZ+eiJTUTOhUZRlpDFONwyB8ucczFhlJjNZxOvmzCAjO6ai4bELZv+XwpNOSOmiD2cT4Ig3jrivwDJoORkoNxg5ZufUwG+7gTQZVTSIYsWrKXOuNxLdmYYjRlokk5eHdGZh8k5AhwJ5bMS2ajk0ZLTAcHSFJu0sWL7L4SIIC0BZkLEpiMANngY7zAMXSodjpRjYg45R5JX+T2fGpKA9WI5sjUFUY+dcxjsgOZIDTg+cVkSoQHclZaiXSeoASoSzLwnLCEEEfsLAjwMjHUQQUdnKNE3FovFHMoXMN5A1SW6B4Pbj/foewMJRTMLdSDmpwpQRQlVBEBq7Pf7RLjKHRCH8BwB5xwPLrcul0vcNXuoOE1YiVFDox8GNN0AXczgYuVFSkFMTWew2xkc9o/EBJyWR8YTYFAtR37zsh0AzGZzQvIDWdDBDCApgIC2a5OHMKaHcQ7z+RLLJeU1u90OWsukqmqtT3Vvrndzfm2tTbML+IZQuWSsTzOKzA1Epwg638DcKGy3WzjnsFwuE7+cjSBFJQWcGVFa7z3sMDbwFEomsFBrTd1csbx3cXEBb116mIXWqbTFegWhULG/26eynIzgZT4sNa8A8Lk1TZMaUSAF6vksbdAQaPYCqyZ7TMlJIxIfsmdkUmjtvcd2u03ny96H7yMDlPXZPHnuoihSSNt1HY7H4wTXyEN/vg4ASXMhR7rZ4IRjVm2K6D8/P601ZroEPHn74/EI62PTliUjvDsesNnQiO6271AWNUpdJCPIVSBjDEzfkQSaVigj9mBiakPVDQcrBEQloFWJqqzgLdB2lEYtVrSu58sNdf/JAlrWqOolZrMCbWMBUcB5oKhohsAM1EIvpcTZ2Rl2ux3m8znWa5IXu729RRVLhZyu8dp2zuH84gy372na0tn1RYokQgC6doCzEigEVFFDagXpA4I1GIYO8I6YgKcekP8GkOqR/ND5IfKr7w2MGRACewoLoWleAHyADTZN+9XRQzPSLyOb7DT1yP/mRZcDTfmLHyT/7hRDyEuGnDawp8lRbv6OdB5iJEHl+n5SEi8/94ZTvv5Yq2ZDEULU2QshgTkAAZtOTT3/6f2v63oSZvO5pnOREcDN0grvPaBkRK7HUeoc3QysnSAlVHZvThF+NgY5dnIKonF5LucMcBUlL1/lzzcHPNUJ+YzazauxQ1AB1vB3E4stB2vZYCfpN2aEOvKUq/kqdhc6aMNycNTdRwaAjLpxFso52OARsnmX+bXydfD9ssHDBQUPTYBZIDxE6Qq6AESQsFbAOB6hRtRcpUsIBSjrEUI/MUY8dHS73WIYhijQM47Ny0vlbduiHAaawwGAdBoFRZtSQ1cVAjRcADE1bYAKHkqI2E7toIXgElLMk07y4LHRhzTpWTKcFxrJTE3HRclACD4r6ggub8DBuRhFBO6Z7jN1l6m0dvCjwi6FpWNvfsolByLOFFJDBgERSFtPCECBWlN58dDY7UCaUwAgAlSpkrfJyUMQ3A49GoBk/NS4+YPzqQyVA34ijItSZgAiN/4IIVBE/b1T+i6/eKOwccpDd452RBIVHVWdvQBUbAG13kFF4VIXqGmG7zcbB2upi06XtNm5di+1SpUc71xKL2QMka13cJ2ZpDH8/NgwchTG18bAasIKMMq557hH7gCoEYINPBtK3owhlVj5OwZjEg5V13MU1Qzet9CqQFGMMvPeA0UZ8QlLKQHCiKGYDE8BqDdFihEPoVSUJDYFBImYC0DrEsHHUm6sZjgIBA8UWqIoSABEFzJFe8z4K0sqmR+PpDh8fn4+qfxwqsDX7FkMFJngjadzqGcSCgX6IIiK7YgBqCRF60oqaB4o4UFhTohECBEfwGANVKERBDBE9dZUEkJAKSSCkJT3C04hEI1AASE6BEf5OS1QD+Fo7DhOEPQQxujCe+rKAjCRBT9dJIMbJh7xdBOdRix5WsF/MwDFmziEAMQHc/o6PTaHZSFw95pCVdB46q7riJyUgWIKowehDfF5kg9fD89G4Gik7/uU7mitEfzYTmo8eTAfDUwQmBgO5smPvH8S02TDNTFS8b7zwstLgnkk4DH2buT3Ok+5TqOanLE4UxwZAHmeLyWSAeH1JoWcfDYHcAHqqbdewg/Ufal1CRWNGvUJC6rlqwI+yqIrELCZyrOBeQAezkcjKMdeDDJ2mhyLGw0XO0gRqC1aKZZej6xWb8lBiQAIBwgPIVzis3AaxBFVbvzZ87POAD8LYwxkPyQZfqUKhBhpKF1ioWdwsoSyAr2h0iEcqTdbxDFhrLTjvU8MMkbI2aI772kyT6AKOJecEC88eWQG0CIjy8GhKKpImGhhnQPpvBfpQXJoSiH2dC7fOKR0DAHpQU+Bs3zjnIaqeeh0WkZJuXKGCfC/QxaO54vOew+fRymZd7PWwlsHo4sUHs/icEeAdBKZ2cjsN6umKRDff74PXIbL5w7mnHob4gKT0zDdBQ8ZsQ1jDHozzp5PG1OcgptTDkWer/PffH6jwQgI1qVnPk2TbConq4zjQfeTjJIppiItp1Og84pC8CKRhLg0me5H8OkzRVEAUkOVtNEBil44fSCDELkIsJAhK11CQAQyrAExjXEg/y6JDCQkEQYocnGgHpWRWUhwKAHNuiAlpxAj5YABzgc4HxBg4f1I6kpYRKbf8PDwMHE0p++rA1eE4iyKIKMAiIZWFYQsUUjABhGnzNMcSm+B4Cx0b8d8mAkuUsRSCUDjlgoNqTXgLKSS0BWBgjASYaCHVRY1IDxU19FnhYCGhCxkIi4EL6BLkW3waW1eypNOPXdKbUS28JBIPOOimpJ+GEhjgG2y+NnTnNS/c6Q13/yMf9B5jSXTPERnObSuI5kqawzEjJqVeJHlGAWFmaNM+alB4/ezgc4BvJQWxOUGP6X/ArQg5/M5TGbkOTLga+Lv5fuVG7vUz57dnzxakVLStJpAUqEhVg0AAeen6s4JYwERw0Qst3EvxUiTtmBbQ8+LnAwAEu/MnoVzDl17SNUfzu/Lep7OtR8MiqIcv18VcDF/l0JCK4kAUjySQqIUpNcgvIP0AUprOBFgPDFgSfePJjR7Zh1CZXMuIqdFCFhYkB6hh4ppZ0BP9yZQdBDCLHFYqqpK0mHsuFjYNnd6+VqlyUlRAAWKUo3AjlkBQZORAjU5SZQ00Tk4BHiqApyCZ/xij5F3kuVexDkH4+kilVKprj6GhXISzgioOP+PvL4UCk6MSq/5YgEA73zWEEI4Bf+ew/ZK6TReijcG+P3WUo94DMPZG4UQ0s/LQk02XIoU4nfk9yU/T34lbxi19/h9ANIk4ByZZ4PE0Y/rh4kRyWvmAFKHW46ocw6bh+T8PVrrSSmQFWj5XF3wgB3xjqSpkAF4vFF7M1Dey0Y2EHU2+Gi8rAGye8dGLb9XeTSWA638jHvjPrkGeoTjWhuGcbCLkGHSQOWcA+KodeccZFGgLIhX0A09QmBOS03sO83txaegHpVy82gs5fPBAI6G20gvCEZyAs4JKGcSkcjHBiOpFLUUiyjj5gL1KgQAoChBIJAEfNQP4Hs3ieIcdT3O5/O0HpjxyJUD2w8QYJo84vQgB+tI/FSUIuEndH81lHCQqAABaFXoTzb9BPmUAkLJsT4aorRzIBCo67pYerNJQNRj1GFjT1GWJZQsQOOj4qaSAlKGtPB1JIWkigNcIiPlG4NvzjAMmC+r9Lt8w/J7TsPqFF2c/DnFCvgYnwvPkf2MN5KWapLOFDFE5SiFvzensZa6APppyJ8vBABJNWYYBtJdiA8+hLGikJ8ngZYjL6DveyDef4CeId8XpRR6M/LN8/4HNjB5lJVHWMkAF0zSmQqG5tfMP8urGKfch9zZMPjMP3OuT/gKcRPU2M7M5+pHijjfd0rBiIkKyeepJ/Li+Zp3gTpUPMhDjxETY0tMLhujQxEcQqBPjd4fkEpCCHpGQrITCSRKIkg7QWuB5XKZytjcoZqzPUkmfJ4MHp8zp4XHbL3nEau1tD9niwLSGrA2AqUiIqX5/z+cVWxosVCQUwAAAABJRU5ErkJggg==;" vertex="1" parent="1">
          <mxGeometry x="340" y="-210" width="256" height="256" as="geometry" />
        </mxCell>
        <mxCell id="CQqDh8j7xDfzOsfukJwt-94" value="" style="endArrow=classic;html=1;rounded=0;exitX=1;exitY=0.5;exitDx=0;exitDy=0;entryX=0.5;entryY=0;entryDx=0;entryDy=0;strokeWidth=3;" edge="1" parent="1" source="CQqDh8j7xDfzOsfukJwt-93" target="CQqDh8j7xDfzOsfukJwt-49">
          <mxGeometry width="50" height="50" relative="1" as="geometry">
            <mxPoint x="600" y="-100" as="sourcePoint" />
            <mxPoint x="970" y="50" as="targetPoint" />
            <Array as="points">
              <mxPoint x="910" y="-40" />
            </Array>
          </mxGeometry>
        </mxCell>
        <mxCell id="CQqDh8j7xDfzOsfukJwt-96" value="vvvvvvvvvvv" style="group;strokeWidth=4;" vertex="1" connectable="0" parent="1">
          <mxGeometry x="700" y="760" width="460" height="40" as="geometry" />
        </mxCell>
        <mxCell id="CQqDh8j7xDfzOsfukJwt-97" value="" style="rounded=0;whiteSpace=wrap;html=1;strokeWidth=4;" vertex="1" parent="CQqDh8j7xDfzOsfukJwt-96">
          <mxGeometry x="50" width="120" height="40" as="geometry" />
        </mxCell>
        <mxCell id="CQqDh8j7xDfzOsfukJwt-98" value="" style="rounded=1;whiteSpace=wrap;html=1;container=0;strokeWidth=4;" vertex="1" parent="CQqDh8j7xDfzOsfukJwt-96">
          <mxGeometry width="420" height="40" as="geometry" />
        </mxCell>
        <mxCell id="CQqDh8j7xDfzOsfukJwt-99" value="" style="rounded=0;whiteSpace=wrap;html=1;fillColor=#B9E0A5;strokeWidth=4;" vertex="1" parent="CQqDh8j7xDfzOsfukJwt-96">
          <mxGeometry x="160" width="120" height="40" as="geometry" />
        </mxCell>
        <mxCell id="CQqDh8j7xDfzOsfukJwt-100" value="" style="rounded=0;whiteSpace=wrap;html=1;fillColor=#FFE599;strokeWidth=4;" vertex="1" parent="CQqDh8j7xDfzOsfukJwt-96">
          <mxGeometry x="40" width="120" height="40" as="geometry" />
        </mxCell>
        <mxCell id="CQqDh8j7xDfzOsfukJwt-101" value="" style="group;strokeWidth=4;" vertex="1" connectable="0" parent="1">
          <mxGeometry x="700" y="800" width="460" height="40" as="geometry" />
        </mxCell>
        <mxCell id="CQqDh8j7xDfzOsfukJwt-102" value="" style="rounded=0;whiteSpace=wrap;html=1;strokeWidth=4;" vertex="1" parent="CQqDh8j7xDfzOsfukJwt-101">
          <mxGeometry x="50" width="120" height="40" as="geometry" />
        </mxCell>
        <mxCell id="CQqDh8j7xDfzOsfukJwt-103" value="" style="rounded=1;whiteSpace=wrap;html=1;container=0;strokeWidth=4;" vertex="1" parent="CQqDh8j7xDfzOsfukJwt-101">
          <mxGeometry width="420" height="40" as="geometry" />
        </mxCell>
        <mxCell id="CQqDh8j7xDfzOsfukJwt-104" value="" style="rounded=0;whiteSpace=wrap;html=1;fillColor=#B9E0A5;strokeWidth=4;" vertex="1" parent="CQqDh8j7xDfzOsfukJwt-101">
          <mxGeometry x="160" width="120" height="40" as="geometry" />
        </mxCell>
        <mxCell id="CQqDh8j7xDfzOsfukJwt-105" value="" style="rounded=0;whiteSpace=wrap;html=1;fillColor=#FFE599;strokeWidth=4;" vertex="1" parent="CQqDh8j7xDfzOsfukJwt-101">
          <mxGeometry x="40" width="120" height="40" as="geometry" />
        </mxCell>
        <mxCell id="CQqDh8j7xDfzOsfukJwt-106" value="" style="group;strokeWidth=4;" vertex="1" connectable="0" parent="1">
          <mxGeometry x="700" y="840" width="460" height="40" as="geometry" />
        </mxCell>
        <mxCell id="CQqDh8j7xDfzOsfukJwt-107" value="" style="rounded=0;whiteSpace=wrap;html=1;strokeWidth=4;" vertex="1" parent="CQqDh8j7xDfzOsfukJwt-106">
          <mxGeometry x="50" width="120" height="40" as="geometry" />
        </mxCell>
        <mxCell id="CQqDh8j7xDfzOsfukJwt-108" value="" style="rounded=1;whiteSpace=wrap;html=1;container=0;strokeWidth=4;" vertex="1" parent="CQqDh8j7xDfzOsfukJwt-106">
          <mxGeometry width="420" height="40" as="geometry" />
        </mxCell>
        <mxCell id="CQqDh8j7xDfzOsfukJwt-109" value="" style="rounded=0;whiteSpace=wrap;html=1;fillColor=#B9E0A5;strokeWidth=4;" vertex="1" parent="CQqDh8j7xDfzOsfukJwt-106">
          <mxGeometry x="160" width="120" height="40" as="geometry" />
        </mxCell>
        <mxCell id="CQqDh8j7xDfzOsfukJwt-110" value="" style="rounded=0;whiteSpace=wrap;html=1;fillColor=#FFE599;strokeWidth=4;" vertex="1" parent="CQqDh8j7xDfzOsfukJwt-106">
          <mxGeometry x="40" width="120" height="40" as="geometry" />
        </mxCell>
      </root>
    </mxGraphModel>
  </diagram>
</mxfile>
